<?xml version="1.0" encoding="UTF-8"?>
<!DOCTYPE svg PUBLIC "-//W3C//DTD SVG 1.1//EN" "http://www.w3.org/Graphics/SVG/1.1/DTD/svg11.dtd">
<!-- Creator: CorelDRAW 2018 (64 Bit) -->
<svg xmlns="http://www.w3.org/2000/svg" xml:space="preserve" width="176.228mm" height="144.534mm" version="1.1" style="shape-rendering:geometricPrecision; text-rendering:geometricPrecision; image-rendering:optimizeQuality; fill-rule:evenodd; clip-rule:evenodd"
viewBox="0 0 43604.13 35762.03"
 xmlns:xlink="http://www.w3.org/1999/xlink">
 <defs>
  <style type="text/css">
   <![CDATA[
    .str2 {stroke:#A4A4A2;stroke-width:47.88;stroke-miterlimit:22.9256}
    .str6 {stroke:#A4A4A2;stroke-width:47.88;stroke-miterlimit:22.9256}
    .str1 {stroke:#2C2221;stroke-width:47.88;stroke-miterlimit:22.9256}
    .str14 {stroke:#A4A4A2;stroke-width:47.88;stroke-miterlimit:22.9256}
    .str7 {stroke:#2C2221;stroke-width:47.88;stroke-miterlimit:22.9256}
    .str0 {stroke:#2C2221;stroke-width:47.88;stroke-miterlimit:22.9256}
    .str9 {stroke:#A4A4A2;stroke-width:47.88;stroke-miterlimit:22.9256}
    .str5 {stroke:#2C2221;stroke-width:47.88;stroke-miterlimit:22.9256}
    .str13 {stroke:#373435;stroke-width:162.14;stroke-miterlimit:22.9256}
    .str11 {stroke:#373435;stroke-width:81.06;stroke-miterlimit:22.9256}
    .str10 {stroke:#373435;stroke-width:81.06;stroke-miterlimit:22.9256}
    .str8 {stroke:#2C2221;stroke-width:81.06;stroke-miterlimit:22.9256}
    .str12 {stroke:#A4A4A2;stroke-width:81.06;stroke-miterlimit:22.9256}
    .str15 {stroke:#373435;stroke-width:81.06;stroke-miterlimit:22.9256}
    .str3 {stroke:#2C2221;stroke-width:121.59;stroke-linecap:round;stroke-linejoin:round;stroke-miterlimit:22.9256}
    .str4 {stroke:#2C2221;stroke-width:121.59;stroke-linecap:round;stroke-linejoin:round;stroke-miterlimit:22.9256}
    .fil7 {fill:none}
    .fil4 {fill:#373435}
    .fil8 {fill:#509B58}
    .fil18 {fill:#53D97A}
    .fil13 {fill:#672B2A}
    .fil12 {fill:#672B2A}
    .fil2 {fill:#8A4B39}
    .fil1 {fill:#996633}
    .fil14 {fill:#9C3D41}
    .fil17 {fill:#9C3D41}
    .fil3 {fill:#A4A4A2}
    .fil10 {fill:#BD7C9E}
    .fil9 {fill:#E2DBD1}
    .fil6 {fill:#E2DCD0}
    .fil0 {fill:red}
    .fil5 {fill:#FF9999}
    .fil11 {fill:#FFA4A5}
    .fil15 {fill:#FFA4A5}
    .fil16 {fill:white}
   ]]>
  </style>
 </defs>
 <g id="Camada_x0020_1">
  <metadata id="CorelCorpID_0Corel-Layer"/>
  <g id="_2414413331024">
   <path class="fil0" d="M36795.67 13841.52c4039.06,2043.38 6808.45,6232.06 6808.45,11068.02 0,4348.15 -2239.1,8172.81 -5626.7,10385.56l-13540.13 0c-284.37,-185.77 -560.68,-382.85 -828.22,-590.69 -94.54,199.9 -194.33,396.83 -299.04,590.69l-21827.4 0c-945.61,-1750.5 -1482.63,-3754.12 -1482.63,-5883.31 0,-6846.46 5550.14,-12396.65 12396.63,-12396.65 196.21,0 391.19,5.12 585.17,14.1 -577.11,-1431.19 -895.18,-2994.65 -895.18,-4632.57 0,-6846.51 5550.17,-12396.68 12396.68,-12396.68 6846.48,0 12396.65,5550.17 12396.65,12396.68 0,488.85 -29.25,970.77 -84.27,1444.85z"/>
   <rect class="fil1" x="866.86" y="34896.39" width="38889.64" height="865.63" rx="1358.71" ry="526.67"/>
   <path class="fil2" d="M32578.64 24982.09c-404.95,2908.55 1327.76,2835.43 1313.54,5384.54 502.21,-2252.09 743.43,-3235.85 -1313.54,-5384.54z"/>
   <polygon class="fil3" points="24573.44,33785.31 26473.65,33785.31 26516.44,33707.47 26676.62,33707.47 26664.3,32860.81 29471.4,27376.63 24536.52,22880.24 23649.75,28327.5 26985.66,28475.3 "/>
   <path class="fil2" d="M6547.34 13558.14l448.02 -534.15c-894.71,-941.42 -1854.77,-1565.4 -2686.03,-1408.28 -7.84,1340.98 901.56,2086.46 2238.01,1942.43z"/>
   <path class="fil4" d="M6855.76 13124.57c294.62,346.33 724.38,45.87 566.34,-345.61 -30.26,-75 -235.73,-325.67 -397.65,-625.38 -219.92,-407.05 -408.73,-877.93 -425.78,-873.65 -154.74,39.07 -76.38,1452.64 257.08,1844.65z"/>
   <g>
    <path class="fil5" d="M25427.96 25799.03c620.38,-354.25 456.56,-1639.25 2380.85,-925.89 274.08,534.01 570.5,982.47 881.15,1410.01 310.62,427.61 787.62,735.83 1118.76,1186.8l-1016.62 319.09c-1603.92,275.42 -2828.03,-207.15 -3347.59,-1530.48 -45.97,-117.08 -117.48,-401.93 -16.55,-459.53z"/>
    <path class="fil5" d="M26353.38 28203.72c206.11,0 375.58,-247.41 395.57,-564.34 -263.98,-111.07 -499.76,-263.93 -703.57,-459.48 -52.85,102.04 -85.71,230.9 -89.2,371.67 5.17,6.66 7.94,16.65 7.94,30.34 0,37.63 -0.67,76.04 -1.01,114.41 35.46,289.1 196.73,507.41 390.27,507.41z"/>
    <path class="fil5" d="M27183.26 27927.81c0,264.48 129.01,478.9 288.18,478.9 159.15,0 288.16,-214.42 288.16,-478.9 0,-23.63 -1.01,-46.91 -3.02,-69.68 -195.54,-10.34 -382.43,-35.61 -559.74,-75.96 -8.81,45.92 -13.58,94.84 -13.58,145.64z"/>
    <path class="fil5" d="M28294.08 27999.46c0,243.42 127.18,440.77 283.93,440.77 156.8,0 283.98,-197.35 283.98,-440.77 0,-79.6 -13.58,-154.25 -37.36,-218.73l-32.51 8.31c-164.54,28.23 -325.03,48.55 -481.2,60.74 -10.86,46.74 -16.83,97.14 -16.83,149.67z"/>
   </g>
   <path class="fil3" d="M16429.15 33701.11l1530.71 0 21.11 -242.78 401.16 31.67c-1812.26,-1748.91 -671.82,-4521.38 -1027.26,-6798.11l-2277.03 727.92c154.87,2051.55 1766.48,3448.57 1351.32,6281.3z"/>
   <path class="fil6" d="M3299.64 18658.88c-534.92,-190.82 -978.46,-1315.09 -500.75,-1580.71 2042.02,-1135.46 2302.37,-1460.58 3472.47,-3470.69 1061.01,-1746.54 1630.96,-1392.39 3483.7,-971.19 532.52,-626.07 1248.07,-964.41 2174.67,-971.19 5.1,788.91 -366,1364.9 -980.25,1830.05 728.26,830.06 1835.49,1217.78 2986.04,1273.55 2378.77,-816.4 4737.51,1581.48 7116.28,2369.69 674.72,195.2 1423.02,387.43 2024.21,15.44 1946.79,-1204.57 5289.85,-2398.2 6430.6,-527.13 3591.8,99.94 2140.75,6466.9 3410.07,8994.11 -1248.96,-547.79 -366.27,-6414.74 -2733.39,-7947.25 568.77,3481.33 -777.82,5437.46 163.82,7329.37 656.33,1318.68 1218.84,1795.95 1482.21,2518 535.56,1468.38 -1007.27,4396.37 401.13,6397.35l-2121.87 -73.93c108.92,-2867.85 -413.51,-4448.88 -472.69,-5342.85 -22.22,-335.44 -273.41,-658.26 -480.51,-897.53 -707.03,-816.87 -1954.31,-1828.61 -2815.56,-2701.1 -4319.45,3365.85 -7676.24,1730.6 -8651.19,2053.28 -974.93,322.67 -1789.37,976.49 -2776.42,1055.66 -61.56,1433.96 -458.22,2262.46 -730.94,3590.84 33.65,681.47 321.83,1402.61 552.56,2055.95l-1942.43 0c559.76,-1749.63 20.36,-3386.88 51.14,-5070.6 18.06,-986.56 -94.05,-992.42 -794.05,-1800.13 -715.69,-825.8 -825.13,-2188.3 -1121.43,-3848.54 -296.27,-1660.24 -410.78,-3746.94 -2172.96,-4535.03 -138.51,-61.96 -333.29,-133.79 -556.89,45.08 -272.35,217.81 -2033.01,-163.33 -2928.52,203.93 -528.02,216.6 -1659.57,1305.52 -1953.99,74.25 -2.4,-50.38 104.17,-51.79 99.1,-75.71 -1.71,-8.12 -112.48,15.37 -114.16,7.03z"/>
   <path class="fil2" d="M9041.86 12467.59c215.46,51.07 451.54,109.19 713.19,168.7 532.52,-626.07 1248.07,-964.41 2174.67,-971.19 5.1,788.91 -366,1364.9 -980.25,1830.05 728.26,830.06 1835.49,1217.78 2986.04,1273.55 969.66,-332.79 1939.29,-132.25 2908.92,275.39 28.75,273.58 39.07,651.06 39.07,1205.09 0,598.11 -175.48,998.33 -306,1297.13 -116.76,267.37 -144.94,902.28 -10.64,1060.61 454.7,536.13 525.62,1086.74 393.59,1454.82 -94.77,264.16 -190.15,746.6 -55.5,1142.14 418.78,1230.1 129.95,1985.11 -419.25,1995.53 -817.54,15.56 -1136.55,612.69 -1135.91,904.53 1.26,570.87 -871.9,560.11 -1042.2,272.4 -446.59,-754.39 89.87,-1126.16 -647.77,-1304.55 -211.33,-51.12 -664.6,-26.52 -1062.32,222.34 -561.69,351.5 -2002.98,-620.31 -1403.72,-1382.64 187.95,-239.09 -124.23,-831.57 439.04,-1459.64 125.94,-140.42 110.35,-580.08 36.99,-770.62 -250.03,-649.38 -1176.61,-1525.31 -1746.79,-1612.65 -1240,-190 -1232.33,-227.71 -1418.17,-1287.6 -76.51,-436.47 -664.75,-402.52 -862.17,-302.34 -342.02,173.57 -605.17,533.71 -747.12,847.87 -150.26,332.62 -661.85,479.05 -749.44,63.52 -31.47,-149.27 125.45,-522.2 -114.39,-625.46 -208.83,-89.89 -758.72,-109.44 -554.74,-919.21 35.36,-140.42 613.73,-992.47 1788.23,-1470.13 346.97,-141.13 694.98,-541.95 832.38,-877.86 443.2,-1083.8 905.23,-1022.83 944.25,-1029.76z"/>
   <path class="fil2" d="M30322.24 19870.1c-72.15,2187.21 -696.67,3676.94 22.57,5128 -15.91,96.13 -41.47,161.77 -82.42,184.34 -759.71,418.92 -484.72,-931.75 -1171.78,-1425.13 -224.99,-161.57 -813.82,-327.99 -833.99,-802.34 -38.97,-917.47 286.87,-510.65 350.21,-1265.01 30.31,-361 -310.28,-1028.72 -110.73,-1356.34 341.43,-560.58 430.21,-554.27 1389.25,-554.27 210.74,0 348.16,23.7 436.89,90.76z"/>
   <path class="fil2" d="M13046.28 31267.77c-56.93,-884.61 -220.71,-1752.08 -203.73,-2679.77 14.2,-775.79 -52.16,-945.23 -421.47,-1374.9 -1.01,-1.66 -2.03,-2.87 -3.07,-3.59l-0.05 0c-33.01,-38.38 -68.37,-78.78 -106.37,-121.91 -50.45,-113.1 2.6,-232.73 179.54,-219.4 121.34,9.15 134.9,-126.86 380.05,174.19 154.74,190.05 487.59,28.38 381.86,907.9 -75.02,624.12 908.69,1198.6 316.71,1952.97 -79.08,100.78 -79.72,1324.27 -523.46,1364.51z"/>
   <path class="fil2" d="M20636.99 18185.02c-520.64,-432.9 -1818.37,-665.32 -1087.61,1055.96 228.28,537.72 -209.77,1051.28 -389.46,1351.96 -362.91,607.22 -923.54,1036.12 -17.27,2003.67 219,233.8 438.6,710.23 515.35,992.37 104.04,382.45 143.11,873.58 1089.93,919.58 334.55,16.26 808.65,-75.42 1391.75,-102.04 2877.84,-131.51 857.4,303.62 2054.64,-806.23 1007.04,-933.56 178.82,-3285.16 141.13,-4408.47 -0.22,-7.4 -800.22,-1406.1 -1024.26,-1531.03 -747.51,-416.9 -2200.65,917.97 -2674.21,524.23zm675.36 1096.14c397.52,0 719.78,322.25 719.78,719.75 0,397.52 -322.25,719.78 -719.78,719.78 -397.5,0 -719.75,-322.25 -719.75,-719.78 0,-397.5 322.25,-719.75 719.75,-719.75z"/>
   <g>
    <polygon class="fil7 str0" points="11480.69,34756.25 14056.52,34756.25 14056.52,33806.14 12546.92,33806.14 "/>
    <polygon id="1" class="fil4" points="11480.69,34756.25 14056.52,34756.25 14056.52,33806.14 12546.92,33806.14 "/>
   </g>
   <polygon class="fil4" points="23418.85,34961.99 25994.68,34961.99 26511.96,33916.87 24590.63,33922.14 "/>
   <polygon class="fil4" points="28992.77,35046.44 31568.6,35046.44 32085.9,34001.31 30164.58,34006.61 "/>
   <g>
    <polygon class="fil7 str1" points="15222.01,34756.25 17797.84,34756.25 17797.84,33806.14 16288.24,33806.14 "/>
    <polygon id="1" class="fil4" points="15222.01,34756.25 17797.84,34756.25 17797.84,33806.14 16288.24,33806.14 "/>
   </g>
   <path class="fil8" d="M5329.46 31424.94l1446.28 1076.77c110.18,-1320.24 487.91,-1952.57 992.32,-2259.12 -182.98,1506.09 -365.97,3012.2 -548.95,4518.28 -373,0 -735.46,0 -1108.46,0 -61.49,-1452.91 -325.52,-2558.71 -781.19,-3335.94z"/>
   <path class="fil9" d="M8313.77 8952.17l5183.35 0c-404.67,-302.63 -1184.53,-531.93 -2122.78,-452.97 -222.49,18.71 -460.52,35.78 -602.77,-103.6 -875.86,-858.29 -1997.85,-408.14 -2457.8,556.57z"/>
   <path class="fil9" d="M19444.74 5722.26l6555.75 20.83c184.71,0.57 -575.57,-531.73 -1330.14,-401.16 -227.66,39.39 -511.98,160.24 -634.34,-35.01 -1146.82,-1829.68 -1938.1,-867.07 -3014.65,-168.01 -177.23,115.1 -352.74,256.21 -533.31,216.63 -593.71,-130.07 -1380.07,365.63 -1043.32,366.72z"/>
   <path class="fil9" d="M34179.79 10472.88l-2414.45 0c175.26,-91.38 282.15,-147.52 708.1,-144.43 125.72,0.87 241.1,-122.4 321.21,-200.89 493.55,-483.68 1220.95,-166.69 1385.14,345.31z"/>
   <path class="fil4" d="M8240.14 13397.04c294.62,346.3 724.38,45.87 566.34,-345.61 -30.26,-75.02 -235.73,-325.69 -397.65,-625.41 -219.92,-407.05 -408.73,-877.93 -425.78,-873.65 -154.74,39.07 -76.38,1452.67 257.08,1844.67z"/>
   <path class="fil10" d="M3928.93 16411.86c-308,200.25 -674.74,413.18 -1130.04,666.31 -457.6,254.43 -87.59,1348.74 500.75,1580.71 652.57,-4.03 1164.14,-622.61 1164.14,-1163.37 0,-540.76 -242.41,-859.82 -534.85,-1083.65z"/>
   <g>
    <path class="fil7 str2" d="M24499.97 26111.86c-14.18,511.29 -10.81,1056.58 26.23,1654.74 19.3,311.42 -2.18,663.61 -40.97,1021.99 466.88,106.02 933.8,130.72 1400.66,62.06l-470.46 -3269.57 -366.32 -2545.91 -59.31 -412.19c-83.21,-514.04 -305.97,-522.8 -306.17,-36.08 -0.02,38.35 -0.2,76.6 -0.52,114.81 -9.53,1117.6 -148.56,2162.79 -183.12,3410.16z"/>
    <path id="1" class="fil6" d="M24499.97 26111.86c-14.18,511.29 -10.81,1056.58 26.23,1654.74 19.3,311.42 -2.18,663.61 -40.97,1021.99 466.88,106.02 933.8,130.72 1400.66,62.06l-470.46 -3269.57 -366.32 -2545.91 -59.31 -412.19c-83.21,-514.04 -305.97,-522.8 -306.17,-36.08 -0.02,38.35 -0.2,76.6 -0.52,114.81 -9.53,1117.6 -148.56,2162.79 -183.12,3410.16z"/>
   </g>
   <g>
    <path class="fil7 str3" d="M3375.18 18722.32c643.62,-138.83 1019.59,-501.39 1115.59,-1051.58"/>
   </g>
   <g>
    <path class="fil7 str4" d="M6753.28 15421.39c37.63,419.59 782.2,555.7 962.65,115.3"/>
   </g>
   <rect class="fil11" x="23138.76" y="33648.33" width="818.09" height="793.74"/>
   <rect class="fil11" x="26762.18" y="33569.16" width="818.09" height="793.74"/>
   <g>
    <path class="fil7 str5" d="M22803.61 20102.07l3167.01 -126.66 1722.39 8338.61 93.36 5384.98 -1231.14 8.46 -1539.98 -10702.59c-72.4,-447.16 -266.19,-454.78 -266.36,-31.37 -0.52,1410.58 -250.42,2672.85 -136.93,4505.99 45.08,728.21 -165.78,1712.79 -238.05,2368.7 -208.21,1889.68 -317.5,3088.73 -145.17,3914.11 -1.91,274.23 -163.87,-70.15 -1293.62,21.13 -35.04,-572.98 -279.1,-3779.41 -280.64,-7435.29 -0.87,-2085.54 404.75,-4402.88 149.13,-6246.07z"/>
    <path id="1" class="fil4" d="M22803.61 20102.07l3167.01 -126.66 1722.39 8338.61 93.36 5384.98 -1231.14 8.46 -1539.98 -10702.59c-72.4,-447.16 -266.19,-454.78 -266.36,-31.37 -0.52,1410.58 -250.42,2672.85 -136.93,4505.99 45.08,728.21 -165.78,1712.79 -238.05,2368.7 -208.21,1889.68 -317.5,3088.73 -145.17,3914.11 -1.91,274.23 -163.87,-70.15 -1293.62,21.13 -35.04,-572.98 -279.1,-3779.41 -280.64,-7435.29 -0.87,-2085.54 404.75,-4402.88 149.13,-6246.07z"/>
   </g>
   <path class="fil12" d="M22110.39 34868.93l955.38 -854.8 291.87 0c22.57,95.24 106.94,222.12 209.1,231.32l519.48 0 -12.87 1231.17 -570.08 0 0 -211.16c-140.76,0 -281.5,0 -422.27,0 0,77.42 0,154.82 0,211.16l-1499.03 0c-610.63,-327.97 135,-486.5 528.41,-607.69z"/>
   <path class="fil4" d="M23081.01 35320.76l-1703.16 0c33.28,47.33 98.35,99.05 204.13,155.86l1499.03 0c0,-42.86 0,-97.88 0,-155.86z"/>
   <polygon class="fil4" points="23503.27,35320.76 23503.27,35476.62 24073.35,35476.62 24074.99,35320.76 "/>
   <path class="fil7" d="M26797.76 34035.98l756.07 6.61c158.33,260.17 232.21,511.12 390.54,771.29l-10.57 686.17 -1261.53 0c0,-207.59 10.57,-473.29 10.57,-680.88l114.91 -783.19z"/>
   <path class="fil4" d="M27936 35358.65l-1262.42 0c-0.77,49.07 -1.29,96.6 -1.29,141.41l1261.53 0 2.18 -141.41z"/>
   <rect class="fil4" x="26981.3" y="34490.4" width="547.91" height="129.09"/>
   <rect class="fil4" x="26974.35" y="34729.69" width="543.26" height="130.83"/>
   <path class="fil13" d="M26989.67 34735.49l508.79 0 0 122.53 -508.79 0 0 -122.53zm-313.25 178.84l1272.24 4.08 1.58 -101.4c-159.79,-262.6 -234.39,-515.87 -394.16,-778.44l-763.13 -6.68 -115.97 790.47c0,29.59 -0.22,60.37 -0.57,91.97zm832.68 -418.58l0 119.88 -508.77 0 0 -119.88 508.77 0z"/>
   <path class="fil14" d="M27950.47 34911.66l-1275.75 -4.06c-1.66,144.23 -6.48,305.87 -8.81,453.74l1277.66 0 6.9 -449.68z"/>
   <path class="fil15" d="M24132.89 12359.29c-253.37,252.06 -656.66,136.19 -719.16,112.43 -38.92,-14.77 -73.76,-191.76 -107.88,-395.52 -2.94,-17.62 300.23,-155.58 297.31,-173.52 -2.87,-17.62 -311.99,84.65 -314.86,66.93 -21.23,-130.77 -42.56,-263.04 -64.63,-363.53 -417.19,-82.62 -169.24,-181.09 10.57,-506.74 8.78,-371.27 17.54,-742.49 26.33,-1113.74 337.47,-1144.79 2333.37,-1019.37 2533.62,-147.82 159.89,479.52 208.63,1464.22 -299.99,1785.34 -124.46,178.22 -12.27,344.62 -136.73,522.85l0 1198.18 -1224.58 0 0 -984.87z"/>
   <path class="fil8" d="M22489.55 20114.68l3269.06 -130.79c-3.79,-2332.55 1317.32,-6648.56 -27.19,-7012.26 -769.39,310.5 -1476.54,519.88 -1935.55,-72.5l-352.59 292.46 -953.72 6923.09z"/>
   <path class="fil15" d="M17595.3 16011.91l114.26 -549.37c-604.3,-148.8 -953.77,-507.8 -1716.4,-841.73 -140.44,-61.51 -1142.02,-127.7 -1371.24,-2.87 -280.96,153.01 -141.75,404.5 968.07,403.24l508.99 227.93c195.62,87.59 128.84,274.72 -47.51,253.39 -1453.31,-47.51 -776.91,271.88 -50.25,345.78 293.21,30.09 587.25,7.35 880.48,37.44l713.59 126.19z"/>
   <g>
    <path class="fil7 str6" d="M17398.14 16256.69c180.85,-264.06 221.43,-549.69 219.15,-841.96l2314.17 113.35c723.56,-691.4 2475.3,-2530.67 3511.81,-2336.49 -78.06,3036.42 -212.02,14761.59 -856.38,14863.02 -868.63,136.75 -517.82,-8171.4 -516.14,-10697.45l-1526.67 -330.94 -986.56 -31.82 -2159.38 -737.71z"/>
    <path id="1" class="fil16" d="M17398.14 16256.69c180.85,-264.06 221.43,-549.69 219.15,-841.96l2314.17 113.35c723.56,-691.4 2475.3,-2530.67 3511.81,-2336.49 -78.06,3036.42 -212.02,14761.59 -856.38,14863.02 -868.63,136.75 -517.82,-8171.4 -516.14,-10697.45l-1526.67 -330.94 -986.56 -31.82 -2159.38 -737.71z"/>
   </g>
   <path class="fil8" d="M24132.89 12914.13l-325.03 0c96.08,116.39 209.5,166.72 325.03,227.17l0 -227.17z"/>
   <path class="fil8" d="M25357.47 12914.13l0 152.22c118.17,-47.73 248.52,-106.37 371.32,-156.1l-371.32 3.88z"/>
   <path class="fil17" d="M23252.08 10344.66l8.49 -359.05c337.47,-1144.79 2333.37,-1019.37 2533.62,-147.82 159.89,479.52 208.63,1464.22 -299.99,1785.34 -121.69,174.29 -17.17,337.22 -128.84,510.99 -198.76,-129.04 -331.58,-355.71 -217.22,-578 199.06,-387.01 -129.6,-930.81 -368.15,-557.71 -17.42,-262.5 -350.36,-232.34 -338.61,-642.33 -276.31,2.23 -806.45,0.32 -1189.3,-11.43z"/>
   <path class="fil12" d="M24506.04 10626.04l1397.66 0c5.52,-294.15 -42.11,-586.09 -109.51,-788.24 -200.25,-871.55 -2196.15,-996.97 -2533.62,147.82 -2.82,119.68 -5.67,239.36 -8.49,359.05 382.85,11.75 912.99,13.66 1189.3,11.43 -3.54,123 23.95,206.38 64.65,269.95z"/>
   <g>
    <polygon class="fil7 str7" points="21062.72,19958.36 23986.93,19958.36 22888.98,15760.32 19931.46,15528.09 "/>
    <polygon id="1" class="fil4" points="21062.72,19958.36 23986.93,19958.36 22888.98,15760.32 19931.46,15528.09 "/>
   </g>
   <path class="fil15" d="M24966.58 18498.91c-748.65,-68.09 -1270.66,-441.27 -1761.88,-153.28 -997.67,584.9 -426.03,1171.68 96.52,931.45l410.31 -188.64 1352.09 -49.02 -97.04 -540.51z"/>
   <g>
    <path class="fil7 str8" d="M23438.82 15150.36c166.15,0 300.88,165.43 300.88,369.49 0,204.06 -134.73,369.49 -300.88,369.49 -166.17,0 -300.88,-165.43 -300.88,-369.49 0,-204.06 134.7,-369.49 300.88,-369.49z"/>
    <path id="1" class="fil16" d="M23438.82 15150.36c166.15,0 300.88,165.43 300.88,369.49 0,204.06 -134.73,369.49 -300.88,369.49 -166.17,0 -300.88,-165.43 -300.88,-369.49 0,-204.06 134.7,-369.49 300.88,-369.49z"/>
   </g>
   <g>
    <path class="fil7 str9" d="M25735.96 12945.38c1427.65,374.29 2010.05,1320.96 1804.86,2708.7 -49.88,426.47 -115.06,851.43 -149.67,1279.41 -65.35,807.84 -247.23,1638.21 -102.63,2449.99 247.26,1387.99 645.13,2917.36 574.88,4461.3 -49.81,1093.82 63.49,1839.38 141.13,2612.13 56.22,560.11 299.64,1351.02 95.53,1905.39 -276.63,751.45 -1594.47,569.29 -1921.84,-34.02 -946.6,-1744.31 -594.16,-5975.38 -823.05,-8859.95l-443.17 1.93 -193.05 -1266.15 501.72 -8.44 -5.96 -3590.34c15.59,-797.64 588.34,-1092.65 521.26,-1659.94z"/>
    <path id="1" class="fil16" d="M25735.96 12945.38c1427.65,374.29 2010.05,1320.96 1804.86,2708.7 -49.88,426.47 -115.06,851.43 -149.67,1279.41 -65.35,807.84 -247.23,1638.21 -102.63,2449.99 247.26,1387.99 645.13,2917.36 574.88,4461.3 -49.81,1093.82 63.49,1839.38 141.13,2612.13 56.22,560.11 299.64,1351.02 95.53,1905.39 -276.63,751.45 -1594.47,569.29 -1921.84,-34.02 -946.6,-1744.31 -594.16,-5975.38 -823.05,-8859.95l-443.17 1.93 -193.05 -1266.15 501.72 -8.44 -5.96 -3590.34c15.59,-797.64 588.34,-1092.65 521.26,-1659.94z"/>
   </g>
   <ellipse class="fil4" cx="23458.34" cy="15416.58" rx="250.58" ry="266.22"/>
   <path class="fil18" d="M25728.79 12910.24c-378.1,152.59 -718.09,337 -1141.03,345.51 324.58,1068.95 966.17,573.52 1114.33,79.92 35.18,-117.21 59.06,-293.77 26.7,-425.43z"/>
   <path class="fil18" d="M24138.68 13144.34c-122.35,-64.33 -242.68,-115.97 -342.82,-245.2l-352.59 292.46 -32.51 130.4c422.39,573.22 704.83,926.63 1177,-66.24 -22.05,-0.89 -380.03,-75.12 -449.09,-111.42z"/>
   <g>
    <path class="fil7 str10" d="M24132.89 12875.68c-1016.84,22.12 -530.76,1365.47 -731.6,2301.5"/>
   </g>
   <g>
    <path class="fil7 str11" d="M25355.96 12868.13c387.38,-7.62 164.22,1036.41 164.22,1235.15"/>
   </g>
   <g>
    <path class="fil7 str12" d="M25383.2 15200.51c-58.59,5.62 -53.17,-68.02 -53.17,-113.94l0 -834.01c0,-104.51 85.49,-190 190,-190l0.02 0c104.54,0 190.03,85.49 190.03,190l0 834.01c0,46.27 0.35,113.97 -70.96,116.66"/>
   </g>
   <path class="fil4" d="M25406.31 15086.37l0.02 0c17.15,0 31.13,14 31.13,31.15l0 157.89c0,17.15 -13.98,31.13 -31.13,31.13l-0.02 0c-17.15,0 -31.15,-13.98 -31.15,-31.13l0 -157.89c0,-17.15 14,-31.15 31.15,-31.15z"/>
   <path class="fil4" d="M25631.97 15092.95l0.02 0c17.12,0 31.13,14 31.13,31.15l0 157.89c0,17.15 -14,31.13 -31.13,31.13l-0.02 0c-17.15,0 -31.15,-13.98 -31.15,-31.13l0 -157.89c0,-17.15 14,-31.15 31.15,-31.15z"/>
   <g>
    <path class="fil7 str13" d="M25330.03 14664.43l0 -411.87c0,-104.51 85.49,-190 190,-190l0.02 0c104.54,0 190.03,85.49 190.03,190l0 411.87"/>
   </g>
   <g>
    <path class="fil7 str14" d="M25220.67 18195.66c106.74,-5.3 529.72,18.09 705.45,-125.77 125.92,-103.08 -174.96,-1723.97 -12.89,-2027.74"/>
   </g>
   <g>
    <path class="fil7 str15" d="M3136.31 17398.04c49.83,-70.64 130.89,-112.63 217.34,-112.63 146.92,0 266.01,119.09 266.01,266.01 0,146.92 -119.09,266.01 -266.01,266.01 -56.79,0 -112.09,-18.16 -157.81,-51.86"/>
   </g>
  </g>
 </g>
</svg>
