<?xml version="1.0" encoding="UTF-8"?>
<!DOCTYPE svg PUBLIC "-//W3C//DTD SVG 1.1//EN" "http://www.w3.org/Graphics/SVG/1.1/DTD/svg11.dtd">
<!-- Creator: CorelDRAW 2018 (64 Bit) -->
<svg xmlns="http://www.w3.org/2000/svg" xml:space="preserve" width="297mm" height="210mm" version="1.1" style="shape-rendering:geometricPrecision; text-rendering:geometricPrecision; image-rendering:optimizeQuality; fill-rule:evenodd; clip-rule:evenodd"
viewBox="0 0 29700 21000"
 xmlns:xlink="http://www.w3.org/1999/xlink">
 <defs>
  <style type="text/css">
   <![CDATA[
    .str2 {stroke:#A4A4A2;stroke-width:15.87;stroke-miterlimit:22.9256}
    .str5 {stroke:#2C2221;stroke-width:15.87;stroke-miterlimit:22.9256}
    .str0 {stroke:#2C2221;stroke-width:15.87;stroke-miterlimit:22.9256}
    .str9 {stroke:#A4A4A2;stroke-width:15.87;stroke-miterlimit:22.9256}
    .str14 {stroke:#A4A4A2;stroke-width:15.87;stroke-miterlimit:22.9256}
    .str6 {stroke:#A4A4A2;stroke-width:15.87;stroke-miterlimit:22.9256}
    .str1 {stroke:#2C2221;stroke-width:15.87;stroke-miterlimit:22.9256}
    .str7 {stroke:#2C2221;stroke-width:15.87;stroke-miterlimit:22.9256}
    .str11 {stroke:#373435;stroke-width:26.87;stroke-miterlimit:22.9256}
    .str12 {stroke:#A4A4A2;stroke-width:26.87;stroke-miterlimit:22.9256}
    .str10 {stroke:#373435;stroke-width:26.87;stroke-miterlimit:22.9256}
    .str8 {stroke:#2C2221;stroke-width:26.87;stroke-miterlimit:22.9256}
    .str15 {stroke:#373435;stroke-width:26.87;stroke-miterlimit:22.9256}
    .str13 {stroke:#373435;stroke-width:53.75;stroke-miterlimit:22.9256}
    .str4 {stroke:#2C2221;stroke-width:40.31;stroke-linecap:round;stroke-linejoin:round;stroke-miterlimit:22.9256}
    .str3 {stroke:#2C2221;stroke-width:40.31;stroke-linecap:round;stroke-linejoin:round;stroke-miterlimit:22.9256}
    .fil7 {fill:none}
    .fil4 {fill:#373435}
    .fil8 {fill:#509B58}
    .fil18 {fill:#53D97A}
    .fil13 {fill:#672B2A}
    .fil12 {fill:#672B2A}
    .fil2 {fill:#8A4B39}
    .fil1 {fill:#996633}
    .fil14 {fill:#9C3D41}
    .fil17 {fill:#9C3D41}
    .fil3 {fill:#A4A4A2}
    .fil10 {fill:#BD7C9E}
    .fil9 {fill:#E2DBD1}
    .fil6 {fill:#E2DCD0}
    .fil0 {fill:red}
    .fil5 {fill:#FF9999}
    .fil11 {fill:#FFA4A5}
    .fil15 {fill:#FFA4A5}
    .fil16 {fill:white}
   ]]>
  </style>
 </defs>
 <g id="Camada_x0020_1">
  <metadata id="CorelCorpID_0Corel-Layer"/>
  <g id="_2275373796656">
   <path class="fil0" d="M19820.72 9160.81c1339.04,677.43 2257.16,2066.07 2257.16,3669.3 0,1441.51 -742.32,2709.47 -1865.38,3443.05l-4488.86 0c-94.28,-61.59 -185.88,-126.92 -274.58,-195.83 -31.34,66.27 -64.42,131.56 -99.13,195.83l-7236.28 0c-313.49,-580.33 -491.53,-1244.58 -491.53,-1950.45 0,-2269.76 1840.01,-4109.77 4109.77,-4109.77 65.04,0 129.69,1.7 194,4.68 -191.33,-474.48 -296.77,-992.8 -296.77,-1535.81 0,-2269.76 1840,-4109.77 4109.77,-4109.77 2269.76,0 4109.77,1840.01 4109.77,4109.77 0,162.07 -9.7,321.83 -27.94,479z"/>
   <rect class="fil1" x="7909.51" y="16140.97" width="12892.79" height="286.98" rx="450.44" ry="174.6"/>
   <path class="fil2" d="M18422.68 12854.16c-134.25,964.26 440.18,940.01 435.47,1785.1 166.49,-746.62 246.46,-1072.76 -435.47,-1785.1z"/>
   <polygon class="fil3" points="15768.78,15772.63 16398.74,15772.63 16412.92,15746.82 16466.03,15746.82 16461.94,15466.14 17392.56,13648 15756.53,12157.35 15462.55,13963.24 16568.48,14012.24 "/>
   <path class="fil2" d="M9792.71 9066.87l148.53 -177.09c-296.61,-312.1 -614.89,-518.96 -890.48,-466.87 -2.59,444.56 298.89,691.7 741.95,643.96z"/>
   <path class="fil4" d="M9894.97 8923.13c97.66,114.81 240.14,15.21 187.75,-114.58 -10.03,-24.87 -78.15,-107.97 -131.83,-207.33 -72.91,-134.95 -135.5,-291.06 -141.15,-289.64 -51.3,12.95 -25.33,481.59 85.23,611.55z"/>
   <g>
    <path class="fil5" d="M16052.07 13125c205.67,-117.44 151.36,-543.45 789.31,-306.95 90.86,177.03 189.13,325.71 292.11,467.45 102.98,141.76 261.12,243.94 370.9,393.45l-337.03 105.78c-531.74,91.31 -937.56,-68.67 -1109.8,-507.39 -15.25,-38.81 -38.95,-133.24 -5.49,-152.34z"/>
    <path class="fil5" d="M16358.87 13922.21c68.33,0 124.51,-82.03 131.13,-187.1 -87.51,-36.83 -165.68,-87.5 -233.25,-152.33 -17.52,33.83 -28.41,76.56 -29.57,123.22 1.72,2.21 2.64,5.52 2.64,10.06 0,12.47 -0.22,25.2 -0.34,37.93 11.76,95.84 65.22,168.22 129.39,168.22z"/>
    <path class="fil5" d="M16633.99 13830.73c0,87.69 42.77,158.77 95.53,158.77 52.77,0 95.54,-71.08 95.54,-158.77 0,-7.83 -0.34,-15.55 -1,-23.09 -64.83,-3.44 -126.79,-11.81 -185.57,-25.19 -2.92,15.23 -4.5,31.44 -4.5,48.28z"/>
    <path class="fil5" d="M17002.25 13854.49c0,80.7 42.16,146.12 94.13,146.12 51.98,0 94.14,-65.42 94.14,-146.12 0,-26.39 -4.5,-51.14 -12.39,-72.51l-10.77 2.75c-54.55,9.36 -107.76,16.09 -159.53,20.14 -3.61,15.5 -5.58,32.2 -5.58,49.62z"/>
   </g>
   <path class="fil3" d="M13068.76 15744.71l507.46 0 7 -80.49 133 10.5c-600.81,-579.8 -222.73,-1498.93 -340.57,-2253.72l-754.89 241.32c51.35,680.13 585.64,1143.28 448,2082.39z"/>
   <path class="fil6" d="M8716.03 10757.87c-177.34,-63.26 -324.39,-435.98 -166.01,-524.04 676.97,-376.42 763.29,-484.21 1151.2,-1150.61 351.75,-579.02 540.7,-461.61 1154.93,-321.97 176.54,-207.56 413.76,-319.72 720.95,-321.97 1.69,261.54 -121.34,452.49 -324.98,606.7 241.44,275.18 608.51,403.72 989.95,422.21 788.62,-270.65 1570.58,524.29 2359.2,785.61 223.69,64.71 471.77,128.44 671.07,5.12 645.4,-399.35 1753.7,-795.06 2131.89,-174.76 1190.76,33.13 709.71,2143.92 1130.51,2981.75 -414.05,-181.6 -121.42,-2126.63 -906.17,-2634.69 188.55,1154.14 -257.88,1802.64 54.31,2429.85 217.58,437.17 404.07,595.39 491.38,834.77 177.55,486.81 -333.93,1457.5 132.99,2120.87l-703.45 -24.51c36.11,-950.75 -137.09,-1474.9 -156.71,-1771.28 -7.36,-111.2 -90.64,-218.23 -159.3,-297.54 -234.4,-270.82 -647.9,-606.23 -933.42,-895.49 -1432,1115.86 -2544.85,573.74 -2868.07,680.72 -323.21,106.97 -593.21,323.72 -920.44,349.97 -20.41,475.39 -151.91,750.06 -242.32,1190.45 11.15,225.92 106.69,464.99 183.19,681.59l-643.96 0c185.57,-580.04 6.74,-1122.82 16.95,-1681.02 5.98,-327.06 -31.18,-329.01 -263.25,-596.78 -237.27,-273.78 -273.55,-725.47 -371.77,-1275.88 -98.23,-550.4 -136.19,-1242.19 -720.39,-1503.46 -45.92,-20.54 -110.49,-44.36 -184.63,14.94 -90.28,72.21 -673.98,-54.15 -970.86,67.61 -175.06,71.8 -550.19,432.81 -647.8,24.61 -0.79,-16.7 34.54,-17.16 32.86,-25.09 -0.57,-2.69 -37.29,5.08 -37.85,2.32z"/>
   <path class="fil2" d="M10619.7 8705.32c71.44,16.94 149.7,36.21 236.45,55.93 176.54,-207.56 413.76,-319.72 720.95,-321.97 1.69,261.54 -121.34,452.49 -324.98,606.7 241.44,275.18 608.51,403.72 989.95,422.21 321.46,-110.32 642.91,-43.84 964.37,91.3 9.53,90.7 12.95,215.84 12.95,399.51 0,198.29 -58.17,330.98 -101.44,430.03 -38.72,88.64 -48.06,299.13 -3.53,351.62 150.74,177.74 174.25,360.28 130.48,482.3 -31.41,87.58 -63.04,247.52 -18.4,378.65 138.84,407.8 43.08,658.1 -138.99,661.56 -271.03,5.16 -376.79,203.12 -376.58,299.88 0.42,189.25 -289.05,185.68 -345.51,90.3 -148.05,-250.1 29.79,-373.34 -214.75,-432.49 -70.06,-16.95 -220.33,-8.8 -352.18,73.71 -186.22,116.53 -664.03,-205.64 -465.37,-458.37 62.31,-79.27 -41.19,-275.69 145.55,-483.91 41.76,-46.55 36.59,-192.3 12.26,-255.48 -82.89,-215.28 -390.07,-505.67 -579.09,-534.63 -411.1,-62.99 -408.55,-75.5 -470.16,-426.87 -25.36,-144.7 -220.38,-133.44 -285.83,-100.23 -113.39,57.54 -200.63,176.94 -247.68,281.09 -49.82,110.27 -219.42,158.82 -248.46,21.05 -10.44,-49.49 41.58,-173.11 -37.92,-207.35 -69.24,-29.8 -251.54,-36.28 -183.92,-304.74 11.72,-46.55 203.47,-329.02 592.84,-487.38 115.03,-46.79 230.41,-179.67 275.96,-291.03 146.93,-359.3 300.1,-339.09 313.03,-341.39z"/>
   <path class="fil2" d="M17674.63 11159.42c-23.92,725.11 -230.96,1218.99 7.49,1700.05 -5.28,31.87 -13.76,53.63 -27.33,61.11 -251.86,138.88 -160.7,-308.89 -388.48,-472.46 -74.58,-53.57 -269.8,-108.73 -276.48,-266 -12.92,-304.16 95.1,-169.29 116.1,-419.38 10.05,-119.68 -102.86,-341.04 -36.7,-449.65 113.19,-185.84 142.62,-183.76 460.56,-183.76 69.86,0 115.43,7.86 144.84,30.09z"/>
   <path class="fil2" d="M11947.26 14938.01c-18.87,-293.27 -73.17,-580.86 -67.54,-888.41 4.7,-257.19 -17.3,-313.37 -139.73,-455.81 -0.33,-0.55 -0.68,-0.95 -1.02,-1.18l-0.01 -0.01c-10.95,-12.72 -22.67,-26.11 -35.27,-40.41 -16.73,-37.5 0.86,-77.16 59.52,-72.73 40.23,3.03 44.72,-42.07 126,57.74 51.3,63.01 161.64,9.41 126.6,300.99 -24.88,206.91 301.25,397.36 104.99,647.46 -26.22,33.4 -26.43,439.02 -173.54,452.36z"/>
   <path class="fil2" d="M14463.75 10600.78c-172.61,-143.52 -602.83,-220.57 -360.57,350.08 75.69,178.26 -69.54,348.52 -129.11,448.2 -120.31,201.31 -306.17,343.49 -5.73,664.26 72.61,77.51 145.41,235.46 170.85,328.99 34.5,126.8 47.45,289.62 361.34,304.87 110.91,5.39 268.09,-25.01 461.4,-33.83 954.07,-43.6 284.24,100.65 681.16,-267.29 333.85,-309.49 59.28,-1089.1 46.79,-1461.51 -0.08,-2.45 -265.29,-466.15 -339.57,-507.57 -247.82,-138.2 -729.56,304.33 -886.56,173.8zm223.9 363.39c131.79,0 238.62,106.84 238.62,238.62 0,131.79 -106.83,238.62 -238.62,238.62 -131.78,0 -238.62,-106.83 -238.62,-238.62 0,-131.78 106.84,-238.62 238.62,-238.62z"/>
   <g>
    <polygon class="fil7 str0" points="11428.23,16094.52 12282.18,16094.52 12282.18,15779.53 11781.71,15779.53 "/>
    <polygon id="1" class="fil4" points="11428.23,16094.52 12282.18,16094.52 12282.18,15779.53 11781.71,15779.53 "/>
   </g>
   <polygon class="fil4" points="15386,16162.72 16239.94,16162.72 16411.43,15816.24 15774.47,15817.99 "/>
   <polygon class="fil4" points="17233.89,16190.72 18087.83,16190.72 18259.32,15844.24 17622.36,15845.99 "/>
   <g>
    <polygon class="fil7 str1" points="12668.57,16094.52 13522.51,16094.52 13522.51,15779.53 13022.04,15779.53 "/>
    <polygon id="1" class="fil4" points="12668.57,16094.52 13522.51,16094.52 13522.51,15779.53 13022.04,15779.53 "/>
   </g>
   <path class="fil8" d="M9388.96 14990.11l479.48 356.98c36.53,-437.69 161.75,-647.33 328.97,-748.95 -60.66,499.3 -121.32,998.61 -181.98,1497.91 -123.66,0 -243.83,0 -367.49,0 -20.39,-481.68 -107.92,-848.27 -258.98,-1105.94z"/>
   <path class="fil9" d="M10378.33 7539.89l1718.4 0c-134.16,-100.34 -392.7,-176.35 -703.76,-150.18 -73.75,6.2 -152.66,11.87 -199.82,-34.34 -290.37,-284.55 -662.34,-135.31 -814.82,184.52z"/>
   <path class="fil9" d="M14068.49 6469.09l2173.38 6.91c61.24,0.19 -190.81,-176.28 -440.97,-132.99 -75.47,13.06 -169.73,53.11 -210.3,-11.61 -380.19,-606.58 -642.52,-287.46 -999.42,-55.7 -58.75,38.16 -116.94,84.94 -176.81,71.82 -196.82,-43.13 -457.52,121.22 -345.88,121.57z"/>
   <path class="fil9" d="M18953.5 8044.03l-800.46 0c58.11,-30.29 93.54,-48.9 234.76,-47.88 41.68,0.29 79.93,-40.57 106.49,-66.6 163.62,-160.35 404.77,-55.26 459.21,114.48z"/>
   <path class="fil4" d="M10353.92 9013.45c97.67,114.81 240.14,15.21 187.75,-114.57 -10.03,-24.87 -78.15,-107.97 -131.83,-207.34 -72.91,-134.94 -135.5,-291.05 -141.15,-289.63 -51.3,12.95 -25.33,481.58 85.23,611.54z"/>
   <path class="fil10" d="M8924.65 10012.94c-102.11,66.39 -223.69,136.97 -374.63,220.89 -151.7,84.35 -29.04,447.15 166.01,524.04 216.34,-1.33 385.94,-206.4 385.94,-385.68 0,-179.28 -80.37,-285.05 -177.32,-359.25z"/>
   <g>
    <path class="fil7 str2" d="M15744.42 13228.7c-4.7,169.51 -3.59,350.29 8.69,548.59 6.4,103.24 -0.72,220 -13.58,338.81 154.78,35.15 309.58,43.34 464.35,20.58l-155.97 -1083.94 -121.45 -844.03 -19.66 -136.65c-27.59,-170.42 -101.44,-173.32 -101.5,-11.97 -0.01,12.72 -0.07,25.4 -0.17,38.07 -3.16,370.51 -49.25,717.01 -60.71,1130.54z"/>
    <path id="1" class="fil6" d="M15744.42 13228.7c-4.7,169.51 -3.59,350.29 8.69,548.59 6.4,103.24 -0.72,220 -13.58,338.81 154.78,35.15 309.58,43.34 464.35,20.58l-155.97 -1083.94 -121.45 -844.03 -19.66 -136.65c-27.59,-170.42 -101.44,-173.32 -101.5,-11.97 -0.01,12.72 -0.07,25.4 -0.17,38.07 -3.16,370.51 -49.25,717.01 -60.71,1130.54z"/>
   </g>
   <g>
    <path class="fil7 str3" d="M8741.07 10778.9c213.37,-46.02 338.02,-166.22 369.84,-348.61"/>
   </g>
   <g>
    <path class="fil7 str4" d="M9860.99 9684.57c12.48,139.11 259.32,184.23 319.14,38.23"/>
   </g>
   <rect class="fil11" x="15293.15" y="15727.21" width="271.21" height="263.14"/>
   <rect class="fil11" x="16494.39" y="15700.97" width="271.21" height="263.14"/>
   <g>
    <path class="fil7 str5" d="M15182.04 11236.32l1049.93 -41.99 571.01 2764.44 30.95 1785.25 -408.15 2.8 -510.54 -3548.15c-24,-148.24 -88.24,-150.77 -88.3,-10.4 -0.17,467.64 -83.02,886.11 -45.39,1493.84 14.94,241.42 -54.96,567.82 -78.92,785.27 -69.04,626.47 -105.27,1023.99 -48.13,1297.62 -0.64,90.91 -54.33,-23.26 -428.87,7 -11.61,-189.95 -92.53,-1252.96 -93.04,-2464.96 -0.28,-691.41 134.19,-1459.66 49.45,-2070.72z"/>
    <path id="1" class="fil4" d="M15182.04 11236.32l1049.93 -41.99 571.01 2764.44 30.95 1785.25 -408.15 2.8 -510.54 -3548.15c-24,-148.24 -88.24,-150.77 -88.3,-10.4 -0.17,467.64 -83.02,886.11 -45.39,1493.84 14.94,241.42 -54.96,567.82 -78.92,785.27 -69.04,626.47 -105.27,1023.99 -48.13,1297.62 -0.64,90.91 -54.33,-23.26 -428.87,7 -11.61,-189.95 -92.53,-1252.96 -93.04,-2464.96 -0.28,-691.41 134.19,-1459.66 49.45,-2070.72z"/>
   </g>
   <path class="fil12" d="M14952.21 16131.87l316.73 -283.39 96.77 0c7.48,31.58 35.45,73.65 69.32,76.7l172.22 0 -4.27 408.15 -188.99 0 0 -70c-46.67,0 -93.32,0 -139.99,0 0,25.67 0,51.33 0,70l-496.97 0c-202.43,-108.73 44.76,-161.28 175.18,-201.46z"/>
   <path class="fil4" d="M15274 16281.67l-564.63 0c11.03,15.69 32.6,32.83 67.66,51.66l496.97 0c0,-14.2 0,-32.45 0,-51.66z"/>
   <polygon class="fil4" points="15413.99,16281.67 15413.99,16333.33 15602.98,16333.33 15603.52,16281.67 "/>
   <path class="fil7" d="M16506.19 15855.73l250.66 2.19c52.48,86.25 76.98,169.45 129.46,255.7l-3.5 227.48 -418.22 0c0,-68.82 3.5,-156.9 3.5,-225.73l38.1 -259.64z"/>
   <path class="fil4" d="M16883.54 16294.22l-418.53 0c-0.25,16.27 -0.42,32.03 -0.42,46.88l418.22 0 0.73 -46.88z"/>
   <rect class="fil4" x="16567.03" y="16006.38" width="181.64" height="42.79"/>
   <rect class="fil4" x="16564.73" y="16085.71" width="180.1" height="43.37"/>
   <path class="fil13" d="M16569.81 16087.64l168.67 0 0 40.62 -168.67 0 0 -40.62zm-103.85 59.29l421.78 1.34 0.52 -33.61c-52.97,-87.05 -77.7,-171.02 -130.67,-258.07l-252.99 -2.21 -38.45 262.05c0,9.82 -0.07,20.02 -0.19,30.5zm276.06 -138.77l0 39.74 -168.68 0 0 -39.74 168.68 0z"/>
   <path class="fil14" d="M16888.34 16146.04l-422.94 -1.35c-0.56,47.82 -2.15,101.41 -2.93,150.43l423.58 0 2.29 -149.08z"/>
   <path class="fil15" d="M15622.72 8669.42c-84,83.56 -217.7,45.15 -238.42,37.27 -12.9,-4.89 -24.45,-63.57 -35.76,-131.12 -0.98,-5.84 99.53,-51.58 98.56,-57.53 -0.95,-5.84 -103.43,28.07 -104.38,22.19 -7.04,-43.35 -14.11,-87.2 -21.42,-120.51 -138.31,-27.39 -56.11,-60.04 3.5,-168 2.91,-123.08 5.82,-246.15 8.73,-369.23 111.87,-379.52 773.56,-337.94 839.94,-49 53.01,158.97 69.18,485.42 -99.44,591.88 -41.26,59.09 -4.07,114.24 -45.33,173.33l0 397.23 -405.98 0 0 -326.51z"/>
   <path class="fil8" d="M15077.92 11240.51l1083.76 -43.36c-1.25,-773.3 436.72,-2204.15 -9.02,-2324.73 -255.06,102.94 -489.5,172.35 -641.67,-24.03l-116.9 96.96 -316.17 2295.16z"/>
   <path class="fil15" d="M13455.36 9880.34l37.88 -182.12c-200.33,-49.34 -316.19,-168.35 -569.02,-279.06 -46.57,-20.39 -378.61,-42.33 -454.6,-0.95 -93.14,50.73 -47,134.1 320.94,133.68l168.74 75.57c64.85,29.04 42.71,91.07 -15.75,84 -481.8,-15.74 -257.56,90.14 -16.66,114.64 97.21,9.97 194.69,2.43 291.9,12.41l236.57 41.83z"/>
   <g>
    <path class="fil7 str6" d="M13390 9961.5c59.95,-87.55 73.41,-182.24 72.65,-279.13l767.2 37.58c239.88,-229.22 820.62,-838.98 1164.24,-774.6 -25.88,1006.64 -70.28,4893.8 -283.9,4927.42 -287.98,45.34 -171.67,-2709 -171.12,-3546.44l-506.12 -109.72 -327.07 -10.55 -715.88 -244.56z"/>
    <path id="1" class="fil16" d="M13390 9961.5c59.95,-87.55 73.41,-182.24 72.65,-279.13l767.2 37.58c239.88,-229.22 820.62,-838.98 1164.24,-774.6 -25.88,1006.64 -70.28,4893.8 -283.9,4927.42 -287.98,45.34 -171.67,-2709 -171.12,-3546.44l-506.12 -109.72 -327.07 -10.55 -715.88 -244.56z"/>
   </g>
   <path class="fil8" d="M15622.72 8853.36l-107.75 0c31.85,38.59 69.45,55.27 107.75,75.31l0 -75.31z"/>
   <path class="fil8" d="M16028.7 8853.36l0 50.47c39.17,-15.83 82.39,-35.27 123.1,-51.76l-123.1 1.29z"/>
   <path class="fil17" d="M15330.71 8001.53l2.82 -119.04c111.87,-379.52 773.56,-337.94 839.94,-49 53.01,158.97 69.18,485.42 -99.44,591.88 -40.35,57.78 -5.7,111.79 -42.71,169.4 -65.9,-42.78 -109.93,-117.92 -72.02,-191.62 65.99,-128.3 -42.97,-308.58 -122.05,-184.89 -5.78,-87.03 -116.16,-77.03 -112.26,-212.95 -91.59,0.74 -267.36,0.11 -394.28,-3.78z"/>
   <path class="fil12" d="M15746.43 8094.8l463.35 0c1.84,-97.51 -13.96,-194.3 -36.31,-261.31 -66.38,-288.94 -728.07,-330.52 -839.94,49 -0.94,39.68 -1.88,79.35 -2.82,119.04 126.92,3.89 302.69,4.52 394.28,3.78 -1.17,40.78 7.95,68.42 21.44,89.49z"/>
   <g>
    <polygon class="fil7 str7" points="14604.89,11188.68 15574.33,11188.68 15210.33,9796.94 14229.85,9719.95 "/>
    <polygon id="1" class="fil4" points="14604.89,11188.68 15574.33,11188.68 15210.33,9796.94 14229.85,9719.95 "/>
   </g>
   <path class="fil15" d="M15899.11 10704.84c-248.2,-22.57 -421.26,-146.28 -584.11,-50.82 -330.74,193.91 -141.24,388.45 32,308.8l136.03 -62.53 448.25 -16.25 -32.17 -179.2z"/>
   <g>
    <path class="fil7 str8" d="M15392.62 9594.72c55.09,0 99.74,54.84 99.74,122.5 0,67.65 -44.65,122.49 -99.74,122.49 -55.09,0 -99.75,-54.84 -99.75,-122.49 0,-67.66 44.66,-122.5 99.75,-122.5z"/>
    <path id="1" class="fil16" d="M15392.62 9594.72c55.09,0 99.74,54.84 99.74,122.5 0,67.65 -44.65,122.49 -99.74,122.49 -55.09,0 -99.75,-54.84 -99.75,-122.49 0,-67.66 44.66,-122.5 99.75,-122.5z"/>
   </g>
   <g>
    <path class="fil7 str9" d="M16154.18 8863.72c473.29,124.08 666.37,437.93 598.35,898 -16.54,141.38 -38.14,282.26 -49.62,424.15 -21.67,267.81 -81.97,543.11 -34.02,812.22 81.96,460.15 213.87,967.18 190.58,1479.03 -16.51,362.62 21.05,609.79 46.79,865.98 18.63,185.68 99.33,447.89 31.67,631.67 -91.71,249.13 -528.6,188.74 -637.14,-11.27 -313.82,-578.28 -196.97,-1980.98 -272.86,-2937.28l-146.92 0.64 -64 -419.76 166.34 -2.79 -1.99 -1190.28c5.18,-264.44 195.06,-362.24 172.82,-550.31z"/>
    <path id="1" class="fil16" d="M16154.18 8863.72c473.29,124.08 666.37,437.93 598.35,898 -16.54,141.38 -38.14,282.26 -49.62,424.15 -21.67,267.81 -81.97,543.11 -34.02,812.22 81.96,460.15 213.87,967.18 190.58,1479.03 -16.51,362.62 21.05,609.79 46.79,865.98 18.63,185.68 99.33,447.89 31.67,631.67 -91.71,249.13 -528.6,188.74 -637.14,-11.27 -313.82,-578.28 -196.97,-1980.98 -272.86,-2937.28l-146.92 0.64 -64 -419.76 166.34 -2.79 -1.99 -1190.28c5.18,-264.44 195.06,-362.24 172.82,-550.31z"/>
   </g>
   <ellipse class="fil4" cx="15399.09" cy="9682.98" rx="83.07" ry="88.26"/>
   <path class="fil18" d="M16151.8 8852.07c-125.35,50.59 -238.06,111.73 -378.28,114.55 107.61,354.38 320.31,190.14 369.43,26.49 11.66,-38.85 19.58,-97.39 8.85,-141.04z"/>
   <path class="fil18" d="M15624.64 8929.68c-40.56,-21.33 -80.45,-38.45 -113.65,-81.29l-116.9 96.96 -10.77 43.22c140.03,190.04 233.66,307.2 390.2,-21.95 -7.31,-0.3 -125.99,-24.9 -148.88,-36.94z"/>
   <g>
    <path class="fil7 str10" d="M15622.72 8840.61c-337.11,7.34 -175.96,452.69 -242.55,763"/>
   </g>
   <g>
    <path class="fil7 str11" d="M16028.2 8838.11c128.43,-2.53 54.44,343.6 54.44,409.48"/>
   </g>
   <g>
    <path class="fil7 str12" d="M16037.23 9611.35c-19.42,1.86 -17.63,-22.55 -17.63,-37.78l0 -276.49c0,-34.65 28.34,-62.99 62.99,-62.99l0.01 0c34.65,0 62.99,28.34 62.99,62.99l0 276.49c0,15.34 0.12,37.79 -23.52,38.68"/>
   </g>
   <path class="fil4" d="M16044.89 9573.51l0.01 0c5.68,0 10.32,4.64 10.32,10.33l0 52.34c0,5.68 -4.64,10.32 -10.32,10.32l-0.01 0c-5.69,0 -10.33,-4.64 -10.33,-10.32l0 -52.34c0,-5.69 4.64,-10.33 10.33,-10.33z"/>
   <path class="fil4" d="M16119.7 9575.69l0 0c5.69,0 10.33,4.64 10.33,10.33l0 52.34c0,5.68 -4.64,10.32 -10.33,10.32l0 0c-5.69,0 -10.33,-4.64 -10.33,-10.32l0 -52.34c0,-5.69 4.64,-10.33 10.33,-10.33z"/>
   <g>
    <path class="fil7 str13" d="M16019.6 9433.63l0 -136.55c0,-34.65 28.34,-62.99 62.99,-62.99l0.01 0c34.65,0 62.99,28.34 62.99,62.99l0 136.55"/>
   </g>
   <g>
    <path class="fil7 str14" d="M15983.35 10604.31c35.38,-1.75 175.61,5.99 233.86,-41.7 41.75,-34.17 -58,-571.53 -4.27,-672.24"/>
   </g>
   <g>
    <path class="fil7 str15" d="M8661.88 10339.88c16.53,-23.42 43.4,-37.34 72.06,-37.34 48.7,0 88.19,39.48 88.19,88.19 0,48.71 -39.49,88.19 -88.19,88.19 -18.83,0 -37.16,-6.02 -52.32,-17.2"/>
   </g>
  </g>
 </g>
</svg>
