<?xml version="1.0" encoding="UTF-8"?>
<!DOCTYPE svg PUBLIC "-//W3C//DTD SVG 1.1//EN" "http://www.w3.org/Graphics/SVG/1.1/DTD/svg11.dtd">
<!-- Creator: CorelDRAW 2018 (64 Bit) -->
<svg xmlns="http://www.w3.org/2000/svg" xml:space="preserve" width="297mm" height="210mm" version="1.1" style="shape-rendering:geometricPrecision; text-rendering:geometricPrecision; image-rendering:optimizeQuality; fill-rule:evenodd; clip-rule:evenodd"
viewBox="0 0 29700 21000"
 xmlns:xlink="http://www.w3.org/1999/xlink">
 <defs>
  <style type="text/css">
   <![CDATA[
    .fil8 {fill:none}
    .fil18 {fill:#373435}
    .fil10 {fill:#33CC33}
    .fil12 {fill:#438F2D}
    .fil9 {fill:#4A4251}
    .fil7 {fill:#4A4251}
    .fil21 {fill:#4E9F5A}
    .fil13 {fill:#592D24}
    .fil11 {fill:#663300}
    .fil3 {fill:#854232}
    .fil15 {fill:#8A4B39}
    .fil16 {fill:#A4A4A2}
    .fil2 {fill:#B51E23}
    .fil14 {fill:#E2DBD1}
    .fil19 {fill:#E2DCD0}
    .fil1 {fill:#E52F3B}
    .fil4 {fill:#F6AD82}
    .fil5 {fill:#F6AD82}
    .fil0 {fill:red}
    .fil22 {fill:#FF9999}
    .fil17 {fill:#FF9999}
    .fil6 {fill:white}
    .fil23 {fill:#373435;fill-rule:nonzero}
    .fil20 {fill:#2C2221;fill-rule:nonzero}
   ]]>
  </style>
 </defs>
 <g id="Camada_x0020_1">
  <metadata id="CorelCorpID_0Corel-Layer"/>
  <g id="_2728622965248">
   <path class="fil0" d="M21888.53 8678.81c1896.07,970.31 3196.12,2959.35 3196.12,5255.74 0,2064.76 -1051.11,3880.93 -2641.37,4931.68l-6356.2 0c-133.5,-88.21 -263.21,-181.79 -388.8,-280.49 -44.38,94.92 -91.22,188.43 -140.38,280.49l-10246.53 0c-443.91,-831.24 -696.01,-1782.68 -696.01,-2793.74 0,-3251.11 2605.44,-5886.66 5819.41,-5886.66 92.11,0 183.64,2.43 274.7,6.7 -270.91,-679.62 -420.22,-1422.04 -420.22,-2199.82 0,-3251.12 2605.44,-5886.67 5819.42,-5886.67 3213.98,0 5819.42,2635.55 5819.42,5886.67 0,232.13 -13.74,460.98 -39.56,686.1z"/>
   <polygon class="fil1" points="6250.75,13974.77 5990.23,13974.77 6978.74,12150.16 8588.59,10182.9 10287.56,12489.93 11149.89,13853.32 14781.72,13873.57 15122.73,15280.43 14708.35,15280.43 14725.02,17525.44 6244.08,17525.44 "/>
   <rect class="fil2" x="6796.2" y="13367.55" width="60.39" height="4017.53"/>
   <rect class="fil2" x="6459.36" y="13376.47" width="60.39" height="4017.53"/>
   <rect class="fil2" x="7133.04" y="13358.63" width="60.39" height="4017.53"/>
   <rect class="fil2" x="7469.88" y="13349.71" width="60.39" height="4017.53"/>
   <rect class="fil2" x="7806.72" y="13340.79" width="60.39" height="4017.53"/>
   <rect class="fil2" x="8143.56" y="13331.87" width="60.39" height="4017.53"/>
   <rect class="fil2" x="8480.4" y="13322.95" width="60.39" height="4017.53"/>
   <rect class="fil2" x="8817.24" y="13314.03" width="60.39" height="4017.53"/>
   <rect class="fil2" x="9154.08" y="13305.11" width="60.39" height="4017.53"/>
   <rect class="fil2" x="9490.92" y="13296.19" width="60.39" height="4017.53"/>
   <rect class="fil2" x="9827.76" y="13287.27" width="60.39" height="4017.53"/>
   <rect class="fil2" x="10164.6" y="13278.35" width="60.39" height="4017.53"/>
   <rect class="fil2" x="10501.44" y="13269.43" width="60.39" height="4017.53"/>
   <rect class="fil2" x="10838.28" y="13905.76" width="60.39" height="3394.68"/>
   <rect class="fil2" x="11175.12" y="14051.52" width="60.39" height="3241.71"/>
   <rect class="fil2" x="11511.96" y="14044.33" width="60.39" height="3241.71"/>
   <rect class="fil2" x="11848.8" y="14037.13" width="60.39" height="3241.71"/>
   <rect class="fil2" x="12185.64" y="14029.93" width="60.39" height="3241.71"/>
   <rect class="fil2" x="12522.48" y="14022.73" width="60.39" height="3241.71"/>
   <rect class="fil2" x="12859.32" y="14015.54" width="60.39" height="3241.71"/>
   <rect class="fil2" x="13196.16" y="14008.34" width="60.39" height="3241.71"/>
   <rect class="fil2" x="13533" y="14001.14" width="60.39" height="3241.71"/>
   <rect class="fil2" x="13869.84" y="13993.94" width="60.39" height="3241.71"/>
   <rect class="fil2" x="14206.68" y="13986.74" width="60.39" height="3241.71"/>
   <rect class="fil2" x="14543.52" y="13979.55" width="60.39" height="3241.71"/>
   <polygon class="fil3" points="6353.8,13975.29 6856.52,13011.75 6705.39,12888.52 6116.62,13975.29 "/>
   <polygon class="fil3" points="10850.97,13946.46 10288.31,13037.75 10439.44,12914.52 11088.15,13946.46 "/>
   <polygon class="fil4" points="6225.62,13976.9 6728.35,13013.36 6577.22,12890.13 5988.44,13976.9 "/>
   <polygon class="fil5" points="10981.04,13946.46 10418.38,13037.75 10569.51,12914.52 11218.22,13946.46 "/>
   <rect class="fil5" x="6245.71" y="16656.99" width="8479.31" height="868.44"/>
   <g>
    <rect class="fil6" x="7091.18" y="13520.24" width="823.75" height="840.02"/>
    <rect class="fil7" x="7191.23" y="13624.82" width="260.13" height="256.39"/>
    <rect class="fil7" x="7192.7" y="13992.62" width="260.13" height="256.39"/>
    <rect class="fil7" x="7559.71" y="13623.09" width="260.13" height="256.39"/>
    <rect class="fil7" x="7559.71" y="13989.16" width="260.13" height="256.39"/>
   </g>
   <path class="fil5" d="M14790.02 13865.49l-3631.83 -20.24c22.16,39.94 24.62,43.75 60.03,101.21l-175.79 0 0 1163.66 4047.12 0 -299.53 -1244.63z"/>
   <g>
    <rect class="fil6" x="9317.49" y="13530.28" width="823.75" height="840.02"/>
    <rect class="fil7" x="9417.55" y="13634.86" width="260.13" height="256.39"/>
    <rect class="fil7" x="9419.02" y="14002.65" width="260.13" height="256.39"/>
    <rect class="fil7" x="9786.03" y="13633.13" width="260.13" height="256.39"/>
    <rect class="fil7" x="9786.03" y="13999.2" width="260.13" height="256.39"/>
   </g>
   <g>
    <rect class="fil8" x="7418.04" y="15432.85" width="2611.32" height="2084.51"/>
    <rect class="fil9" x="7539.76" y="15547.55" width="1118.91" height="1875.7"/>
    <rect class="fil9" x="8785.4" y="15547.55" width="1117.22" height="1875.7"/>
    <polygon class="fil6" points="8587.17,15547.55 8097.92,16379.37 7580.94,15547.55 7539.76,15547.55 7539.76,15689.21 8035.09,16486.2 7539.76,17328.37 7539.76,17423.25 7611.25,17423.25 8100.49,16591.43 8617.48,17423.25 8658.67,17423.25 8658.67,17281.61 8163.32,16484.6 8658.67,15642.41 8658.67,15547.55 "/>
    <polygon class="fil6" points="9831.97,15547.55 9342.73,16379.37 8825.74,15547.55 8784.56,15547.55 8784.56,15689.21 9279.89,16486.2 8784.56,17328.37 8784.56,17423.25 8856.05,17423.25 9345.3,16591.43 9862.29,17423.25 9903.47,17423.25 9903.47,17281.61 9408.12,16484.6 9903.47,15642.41 9903.47,15547.55 "/>
    <path class="fil6" d="M7539.76 17328.37l0 -1639.16 0 -141.66 41.18 0 1006.23 0 71.5 0 0 94.86 0 1639.2 0 141.64 -41.19 0 -1006.23 0 -71.49 0 0 -94.88zm1245.64 -1.44l0 -1636.37 -0.84 -1.35 0 -141.66 0.84 0 40.34 0 1006.23 0 70.66 0 0.84 0 0 94.86 -0.84 1.44 0 1636.4 0.84 1.36 0 141.64 -0.84 0 -40.34 0 -1006.24 0 -70.65 0 -0.84 0 0 -94.88 0.84 -1.44zm1243.96 -1894.07l-2611.32 0 0 2084.5 2611.32 0 0 -2084.5z"/>
   </g>
   <g>
    <rect class="fil6" x="8218.64" y="12686.62" width="823.75" height="840.02"/>
    <rect class="fil7" x="8318.69" y="12791.2" width="260.13" height="256.39"/>
    <rect class="fil7" x="8320.17" y="13159" width="260.13" height="256.39"/>
    <rect class="fil7" x="8687.18" y="12789.48" width="260.13" height="256.39"/>
    <rect class="fil7" x="8687.18" y="13155.55" width="260.13" height="256.39"/>
   </g>
   <polygon class="fil3" points="11041.57,15280.88 15131.03,15272.35 15089.55,15110.12 11042.43,15110.12 "/>
   <path class="fil10" d="M11285.17 10908.74c436.16,219.55 740.05,711.82 740.05,1283.93 0,776.54 -559.83,1406.06 -1250.43,1406.06 -441.03,0 -828.69,-256.76 -1051.31,-644.57 -241.5,290.18 -587.36,471.99 -971.55,471.99 -262.78,0 -507.64,-85.04 -713.45,-231.64 -205.05,138.91 -453.82,220.35 -722.04,220.35 -701.74,0 -1270.6,-556.95 -1270.6,-1243.99 0,-508.1 311.17,-944.98 757.07,-1138.12 -91.74,-170.06 -143.43,-361.78 -143.43,-564.68 0,-700.55 615.17,-1268.45 1374.02,-1268.45l2.73 0.03c-10.52,-74.39 -16.07,-151.06 -16.07,-229.43 0,-693.1 430.03,-1254.96 960.49,-1254.96 492.93,0 899.05,485.21 954.06,1110.01 27.6,-2.23 55.4,-3.49 83.43,-3.49 722.02,0 1307.33,749.16 1307.33,1673.28 0,142.78 -14.01,281.37 -40.3,413.68z"/>
   <path class="fil10" d="M23628.96 17845.58l-18751.65 0.18c110.11,365.25 204.4,715.67 372.28,1048.19 5999.17,0 11335.95,0 17232.97,0 423.29,-295.83 808.6,-648.68 1146.4,-1048.37z"/>
   <g>
    <rect class="fil11" x="17604.28" y="15870.82" width="286.81" height="1653.04"/>
    <rect class="fil11" x="16640.47" y="15874.18" width="286.81" height="1653.04"/>
    <rect class="fil11" x="15676.65" y="15877.54" width="286.81" height="1653.04"/>
    <rect class="fil11" x="14712.83" y="15880.9" width="286.81" height="1653.04"/>
    <rect class="fil11" x="14763.72" y="16093.46" width="3787.72" height="283.38"/>
    <rect class="fil11" x="14763.72" y="16909.87" width="3787.72" height="283.38"/>
   </g>
   <g>
    <polygon class="fil1" points="20850.91,11731.47 20080.9,12047.83 19310.88,12364.17 18991.93,13127.93 18672.97,13891.67 18673.03,13891.82 18583.33,13892.71 18516.62,13893.36 18516.62,17533.02 23243.45,17533.02 23243.45,13890.69 23118.53,13890.69 23028.46,13890.69 22709.91,13127.93 22390.96,12364.17 21620.94,12047.83 "/>
    <rect class="fil2" x="18517.59" y="13479.53" width="95.96" height="4053.48"/>
    <rect class="fil2" x="19052.81" y="12110.69" width="95.96" height="5422.33"/>
    <rect class="fil2" x="19588.03" y="11940.28" width="95.96" height="5592.74"/>
    <rect class="fil2" x="20123.25" y="11724.77" width="95.96" height="5802.28"/>
    <rect class="fil2" x="20658.47" y="11593.61" width="95.96" height="5933.44"/>
    <rect class="fil2" x="21193.69" y="11580.36" width="95.96" height="5946.7"/>
    <rect class="fil2" x="21728.91" y="11825.05" width="95.96" height="5710.56"/>
    <rect class="fil2" x="22264.13" y="12040.55" width="95.96" height="5481.8"/>
    <rect class="fil2" x="22799.35" y="12682.06" width="95.96" height="4827.04"/>
    <g>
     <rect class="fil6" x="18941.97" y="13750.13" width="988.36" height="1007.88"/>
     <rect class="fil7" x="19062.02" y="13875.6" width="312.11" height="307.63"/>
     <rect class="fil7" x="19063.78" y="14316.9" width="312.11" height="307.63"/>
     <rect class="fil7" x="19504.14" y="13873.53" width="312.11" height="307.63"/>
     <rect class="fil7" x="19504.14" y="14312.75" width="312.11" height="307.63"/>
    </g>
    <g>
     <rect class="fil6" x="21776.89" y="13750.13" width="988.36" height="1007.88"/>
     <rect class="fil7" x="21896.93" y="13875.6" width="312.11" height="307.63"/>
     <rect class="fil7" x="21898.7" y="14316.9" width="312.11" height="307.63"/>
     <rect class="fil7" x="22339.05" y="13873.53" width="312.11" height="307.63"/>
     <rect class="fil7" x="22339.05" y="14312.75" width="312.11" height="307.63"/>
    </g>
    <polygon class="fil3" points="19247.19,12301 18915.05,13096.34 18582.9,13891.67 18583.33,13892.71 18673.03,13891.82 18672.97,13891.67 18991.93,13127.93 19310.88,12364.17 20080.9,12047.83 20850.91,11731.47 21620.94,12047.83 22390.96,12364.17 22709.91,13127.93 23028.46,13890.69 23118.53,13890.69 22786.79,13096.34 22454.65,12301 21652.78,11971.58 20850.91,11642.13 20049.06,11971.58 "/>
    <rect class="fil5" x="18516.61" y="16300.48" width="4727.6" height="1226.59"/>
    <g>
     <rect class="fil6" x="20359.43" y="12496.08" width="988.36" height="1007.88"/>
     <rect class="fil7" x="20479.48" y="12621.56" width="312.11" height="307.63"/>
     <rect class="fil7" x="20481.24" y="13062.85" width="312.11" height="307.63"/>
     <rect class="fil7" x="20921.59" y="12619.49" width="312.11" height="307.63"/>
     <rect class="fil7" x="20921.59" y="13058.71" width="312.11" height="307.63"/>
    </g>
    <g>
     <rect class="fil8" x="19797.7" y="15752.12" width="2223.51" height="1774.93"/>
     <rect class="fil9" x="19901.35" y="15849.78" width="952.74" height="1597.14"/>
     <rect class="fil9" x="20962" y="15849.78" width="951.3" height="1597.14"/>
     <polygon class="fil6" points="20793.2,15849.78 20376.62,16558.07 19936.41,15849.78 19901.35,15849.78 19901.35,15970.4 20323.12,16649.02 19901.35,17366.12 19901.35,17446.92 19962.22,17446.92 20378.81,16738.63 20819.02,17446.92 20854.09,17446.92 20854.09,17326.31 20432.3,16647.67 20854.09,15930.55 20854.09,15849.78 "/>
     <polygon class="fil6" points="21853.14,15849.78 21436.55,16558.07 20996.35,15849.78 20961.28,15849.78 20961.28,15970.4 21383.05,16649.02 20961.28,17366.12 20961.28,17446.92 21022.15,17446.92 21438.74,16738.63 21878.95,17446.92 21914.02,17446.92 21914.02,17326.31 21492.24,16647.67 21914.02,15930.55 21914.02,15849.78 "/>
     <path class="fil6" d="M19901.35 17366.12l0 -1395.72 0 -120.62 35.06 0 856.79 0 60.89 0 0 80.77 0 1395.76 0 120.61 -35.07 0 -856.8 0 -60.87 0 0 -80.8zm1060.65 -1.22l0 -1393.35 -0.72 -1.15 0 -120.62 0.72 0 34.35 0 856.79 0 60.16 0 0.72 0 0 80.77 -0.72 1.22 0 1393.38 0.72 1.16 0 120.61 -0.72 0 -34.35 0 -856.8 0 -60.15 0 -0.72 0 0 -80.8 0.72 -1.22zm1059.22 -1612.78l-2223.51 0 0 1774.93 2223.51 0 0 -1774.93z"/>
    </g>
    <polygon class="fil5" points="18915.05,13096.34 19247.19,12301 20049.06,11971.58 20850.91,11642.13 21652.78,11971.58 22454.65,12301 22786.79,13096.34 23118.53,13890.69 23386.16,13890.69 23015.22,13002.49 22643.9,12113.3 21747.41,11745.01 20850.91,11376.69 19954.43,11745.01 19057.94,12113.3 18686.62,13002.49 18315.27,13891.67 18316.79,13895.32 18583.33,13892.71 18582.9,13891.67 "/>
   </g>
   <path class="fil12" d="M4896.21 17908.77l18678.6 0c92.09,-106.41 225.19,-253.48 303.69,-385.88l-19085.22 -0.65c25.44,130.23 64.5,264.16 102.93,386.53z"/>
   <ellipse class="fil12" cx="9243.39" cy="18429.67" rx="1347.35" ry="336.5"/>
   <path class="fil13" d="M8841.68 13007.23l82.72 -51.67 431.51 468.92 26.02 -1832.45 140.07 2.95 -56.67 1820.45 531.6 -478.61 86.41 24.73 -592.42 568.73c0,1693.54 -61.79,3987.08 224.55,4839.71l-640.32 13.5c317.23,-1207.73 330.58,-3213.98 280.77,-4834.47l-514.24 -541.79z"/>
   <path class="fil14" d="M7944.53 7502.13l2534.42 0c-197.87,-149.68 -579.18,-263.09 -1037.95,-224.04 -108.78,9.24 -225.16,17.7 -294.72,-51.24 -428.25,-424.52 -976.87,-201.87 -1201.75,275.28z"/>
   <path class="fil14" d="M13387.07 5904.6l3205.47 10.3c90.32,0.28 -281.42,-262.99 -650.38,-198.41 -111.32,19.49 -250.34,79.25 -310.17,-17.31 -560.73,-904.97 -947.64,-428.87 -1474.02,-83.1 -86.65,56.93 -172.48,126.72 -260.77,107.14 -290.29,-64.34 -674.79,180.85 -510.13,181.38z"/>
   <path class="fil14" d="M20591.85 8254.29l-1180.57 0c85.7,-45.2 137.96,-72.97 346.23,-71.45 61.48,0.44 117.89,-60.53 157.07,-99.35 241.33,-239.23 596.98,-82.45 677.27,170.8z"/>
   <ellipse class="fil12" cx="13613.31" cy="18285.98" rx="1621.72" ry="336.5"/>
   <path class="fil15" d="M12627.78 17224.91c46.09,334.88 -151.13,326.46 -149.51,619.95 -57.16,-259.29 -84.61,-372.56 149.51,-619.95z"/>
   <polygon class="fil16" points="13538.93,18238.47 13322.65,18238.47 13317.78,18229.51 13299.55,18229.51 13300.95,18132.03 12981.45,17500.61 13543.14,16982.92 13822.91,17427.31 13264.37,17627.1 "/>
   <path class="fil15" d="M15590.67 15909.61l-51 -61.5c101.84,-108.39 211.11,-180.23 305.73,-162.14 0.89,154.39 -102.62,240.22 -254.73,223.64z"/>
   <path class="fil17" d="M13537.11 17295.08c-70.61,-40.79 -51.96,-188.73 -270.99,-106.6 -31.19,61.48 -64.93,113.12 -100.29,162.34 -35.35,49.23 -89.65,84.72 -127.34,136.64l115.71 36.74c182.56,31.71 321.89,-23.85 381.03,-176.21 5.23,-13.48 13.37,-46.28 1.88,-52.91z"/>
   <path class="fil17" d="M13431.78 17571.95c-23.46,0 -42.75,-28.49 -45.02,-64.98 30.04,-12.79 56.88,-30.39 80.08,-52.9 6.01,11.75 9.75,26.58 10.15,42.79 -0.59,0.77 -0.9,1.92 -0.9,3.49 0,4.33 0.07,8.76 0.11,13.18 -4.03,33.28 -22.39,58.42 -44.42,58.42z"/>
   <path class="fil17" d="M13337.32 17540.18c0,30.45 -14.68,55.14 -32.8,55.14 -18.11,0 -32.8,-24.69 -32.8,-55.14 0,-2.72 0.12,-5.4 0.35,-8.02 22.26,-1.19 43.53,-4.1 63.71,-8.75 1,5.29 1.54,10.92 1.54,16.77z"/>
   <path class="fil17" d="M13210.89 17548.43c0,28.03 -14.48,50.75 -32.32,50.75 -17.84,0 -32.32,-22.72 -32.32,-50.75 0,-9.17 1.55,-17.76 4.26,-25.18l3.69 0.95c18.73,3.25 37,5.59 54.78,7 1.23,5.38 1.91,11.18 1.91,17.23z"/>
   <path class="fil18" d="M15555.56 15859.69c-33.53,39.88 -82.45,5.28 -64.46,-39.79 3.44,-8.63 26.83,-37.5 45.26,-72 25.03,-46.87 46.52,-101.09 48.46,-100.59 17.61,4.5 8.7,167.25 -29.26,212.38z"/>
   <path class="fil16" d="M14465.92 18228.78l-174.23 0 -2.4 -27.96 -45.66 3.65c206.27,-201.36 76.47,-520.57 116.92,-782.7l259.17 83.81c-17.62,236.2 -201.06,397.05 -153.8,723.2z"/>
   <path class="fil19" d="M15953.11 16496.89c60.88,-21.97 111.37,-151.42 56.99,-182 -232.42,-130.73 -262.05,-168.16 -395.23,-399.6 -120.77,-201.09 -185.64,-160.31 -396.52,-111.82 -60.61,-72.08 -142.05,-111.03 -247.52,-111.81 -0.58,90.83 41.66,157.14 111.57,210.7 -82.89,95.57 -208.91,140.21 -339.87,146.63 -116.13,-44.96 -226.32,-7.89 -346.56,39.05 -510.27,199.22 -703.74,158.97 -1049.61,81.75 -156.38,-34.92 -304.33,-26.02 -376.13,93.12 -408.82,11.51 -243.66,744.57 -388.13,1035.54 142.15,-63.07 41.68,-738.56 311.11,-915.01 -64.74,400.82 88.53,626.05 -18.65,843.87 -74.7,151.83 -138.73,206.78 -168.7,289.91 -60.96,169.06 114.64,506.18 -45.66,736.56l241.51 -8.51c-12.4,-330.19 47.07,-512.22 53.8,-615.15 2.53,-38.62 31.12,-75.79 54.7,-103.34 80.47,-94.05 222.43,-210.54 320.46,-310.99 119.31,-20.19 171.69,90.74 248.66,127.36 372.4,177.17 644.07,78.26 736.02,109.04 110.96,37.15 203.67,112.43 316.01,121.55 7.01,165.1 52.16,260.49 83.2,413.43 -3.83,78.46 -36.63,161.49 -62.89,236.71l221.08 0c-63.71,-201.44 -2.31,-389.94 -5.82,-583.8 -2.05,-113.59 10.71,-114.26 90.38,-207.26 81.46,-95.08 93.92,-251.95 127.64,-443.1 33.73,-191.15 46.76,-431.41 247.33,-522.14 15.77,-7.14 37.94,-15.41 63.39,5.19 30.99,25.07 231.39,-18.81 333.32,23.48 60.1,24.93 188.89,150.31 222.4,8.54 0.28,-5.8 -11.85,-5.96 -11.28,-8.71 0.2,-0.94 12.81,1.76 13,0.81z"/>
   <path class="fil19" d="M12876.79 16610.56c3.85,266.31 82.84,443.87 -2.23,616.75l-1.41 2.85c83.06,43.41 53.28,-109.34 130.65,-165.54 25.6,-18.6 92.63,-37.76 94.92,-92.38 4.44,-105.63 -32.65,-58.79 -39.86,-145.65 -3.45,-41.56 35.32,-118.44 12.6,-156.16 -38.86,-64.54 -48.96,-63.82 -158.12,-63.82 -15.36,0 -27.3,1.12 -36.55,3.95z"/>
   <path class="fil19" d="M12876.79 16610.56c3.85,266.31 82.84,443.87 -2.23,616.75l-1.41 2.85c83.06,43.41 53.28,-109.34 130.65,-165.54 25.6,-18.6 92.63,-37.76 94.92,-92.38 4.44,-105.63 -32.65,-58.79 -39.86,-145.65 -3.45,-41.56 35.32,-118.44 12.6,-156.16 -38.86,-64.54 -48.96,-63.82 -158.12,-63.82 -15.36,0 -27.3,1.12 -36.55,3.95z"/>
   <path class="fil15" d="M15294.54 15788.16c-24.53,5.89 -46.41,8.47 -76.19,15.31 -60.61,-72.08 -142.05,-111.03 -247.52,-111.82 -0.58,90.84 36.67,161.27 106.58,214.82 -82.89,95.57 -203.92,136.1 -334.88,142.52 -113.06,-43.76 -225.72,-11.11 -336.08,35.82 -3.28,31.5 -4.45,74.96 -4.45,138.75 0,68.87 19.97,114.94 34.83,149.34 13.29,30.79 16.5,103.89 1.21,122.12 -51.75,61.73 -59.82,125.12 -44.8,167.49 10.79,30.42 21.65,85.97 6.32,131.51 -47.67,141.63 -14.79,228.55 47.72,229.76 93.05,1.79 129.36,70.53 129.29,104.14 -0.15,65.73 99.24,64.49 118.62,31.36 50.83,-86.86 -10.23,-129.66 73.73,-150.2 24.05,-5.89 75.64,-3.06 120.91,25.6 63.93,40.47 227.98,-71.42 159.78,-159.19 -21.4,-27.53 14.13,-95.74 -49.98,-168.06 -14.33,-16.16 -12.56,-66.78 -4.2,-88.73 28.45,-74.76 133.91,-175.61 198.81,-185.67 141.14,-21.87 140.27,-26.22 161.42,-148.24 8.71,-50.26 75.66,-46.35 98.13,-34.81 38.93,19.98 68.88,61.44 85.04,97.62 17.1,38.29 75.33,55.15 85.3,7.31 3.58,-17.19 -14.28,-60.12 13.02,-72.02 23.77,-10.35 86.36,-12.59 63.14,-105.83 -4.02,-16.17 -69.86,-114.27 -203.54,-169.26 -39.49,-16.25 -79.1,-62.4 -94.74,-101.07 -50.44,-124.79 -103.03,-117.76 -107.47,-118.57z"/>
   <path class="fil15" d="M12876.4 16627.37c8.21,251.83 80.03,432.87 -1.84,599.94 1.81,11.07 1.96,10.54 6.62,13.14 86.47,48.23 55.17,-107.28 133.37,-164.09 25.61,-18.6 92.64,-37.76 94.93,-92.37 4.44,-105.64 -32.65,-58.8 -39.86,-145.65 -3.45,-41.57 35.32,-118.45 12.6,-156.16 -38.86,-64.54 -48.96,-63.82 -158.12,-63.82 -23.99,0 -37.6,1.29 -47.7,9.01z"/>
   <path class="fil15" d="M14846.89 17948.62c6.48,-101.85 25.12,-201.73 23.19,-308.54 -1.62,-89.32 5.93,-108.83 47.97,-158.3 0.11,-0.19 0.23,-0.33 0.35,-0.41l0 -0.01c3.76,-4.41 7.79,-9.06 12.11,-14.03 5.74,-13.02 -0.29,-26.8 -20.43,-25.26 -13.82,1.05 -15.36,-14.61 -43.26,20.06 -17.62,21.88 -55.5,3.26 -43.47,104.53 8.54,71.85 -103.42,138 -36.04,224.85 9,11.6 9.07,152.47 59.58,157.11z"/>
   <path class="fil15" d="M13986.98 16442.33c59.26,-49.84 206.97,-76.6 123.79,121.58 -25.98,61.91 23.88,121.04 44.33,155.66 41.3,69.91 105.12,119.29 1.97,230.69 -24.93,26.92 -49.93,81.77 -58.66,114.26 -11.85,44.03 -16.29,100.57 -124.06,105.87 -38.08,1.87 -92.04,-8.68 -158.41,-11.75 -327.55,-15.14 -97.59,34.96 -233.86,-92.82 -114.62,-107.49 -20.35,-378.24 -16.06,-507.57 0.03,-0.86 91.08,-161.89 116.58,-176.28 85.08,-48 250.48,105.69 304.38,60.36zm-76.87 126.2c-45.25,0 -81.92,37.1 -81.92,82.87 0,45.77 36.67,82.87 81.92,82.87 45.24,0 81.92,-37.1 81.92,-82.87 0,-45.77 -36.68,-82.87 -81.92,-82.87z"/>
   <g>
    <path class="fil20" d="M14735.97 18353.02l-2.73 -2.76 2.73 -2.76 293.18 0 0 5.52 -293.18 0zm0 0l-2.73 0 0 -2.76 2.73 2.76zm-2.73 -112.15l2.73 -2.76 2.73 2.76 0 109.39 -5.46 0 0 -109.39zm0 0l0 -2.76 2.73 0 -2.73 2.76zm174.55 -2.76l1.81 0.7 -1.81 4.82 -171.82 0 0 -5.52 171.82 0zm0 0l1.03 0 0.78 0.7 -1.81 -0.7zm123.17 110.09l-1.81 4.82 -1.81 -0.7 -121.36 -109.39 3.62 -4.12 121.36 109.39zm0 0l5.35 4.82 -7.16 0 1.81 -4.82z"/>
    <polygon id="1" class="fil18" points="15029.15,18350.26 14735.97,18350.26 14735.97,18240.87 14907.79,18240.87 "/>
   </g>
   <polygon class="fil18" points="13670.35,18373.95 13377.17,18373.95 13318.29,18253.62 13536.97,18254.23 "/>
   <polygon class="fil18" points="13045.56,18394.77 12752.38,18394.77 12693.5,18274.44 12912.19,18275.05 "/>
   <g>
    <path class="fil20" d="M14310.13 18353.02l-2.73 -2.76 2.73 -2.76 293.18 0 0 5.52 -293.18 0zm0 0l-2.73 0 0 -2.76 2.73 2.76zm-2.73 -112.15l2.73 -2.76 2.73 2.76 0 109.39 -5.46 0 0 -109.39zm0 0l0 -2.76 2.73 0 -2.73 2.76zm174.55 -2.76l1.81 0.7 -1.81 4.82 -171.82 0 0 -5.52 171.82 0zm0 0l1.03 0 0.78 0.7 -1.81 -0.7zm123.17 110.09l-1.81 4.82 -1.81 -0.7 -121.36 -109.39 3.62 -4.12 121.36 109.39zm0 0l5.35 4.82 -7.16 0 1.81 -4.82z"/>
    <polygon id="1" class="fil18" points="14603.31,18350.26 14310.13,18350.26 14310.13,18240.87 14481.95,18240.87 "/>
   </g>
   <path class="fil21" d="M15729.28 17966.71l-164.61 123.98c-12.54,-152.01 -55.54,-224.82 -112.95,-260.11 20.83,173.4 41.66,346.81 62.48,520.21 42.46,0 83.71,0 126.17,0 7,-167.28 37.05,-294.59 88.91,-384.08z"/>
   <path class="fil18" d="M15397.99 15891.06c-33.53,39.87 -82.45,5.28 -64.46,-39.79 3.44,-8.64 26.83,-37.5 45.26,-72.01 25.03,-46.86 46.52,-101.08 48.46,-100.58 17.61,4.5 8.7,167.25 -29.26,212.38z"/>
   <path class="fil22" d="M15888.69 16238.18c35.06,23.05 76.8,47.57 128.62,76.71 52.09,29.29 9.97,155.29 -56.99,182 -74.28,-0.47 -132.5,-71.69 -132.5,-133.95 0,-62.26 27.59,-98.99 60.87,-124.76z"/>
   <g>
    <path class="fil20" d="M15950.26 16511.03l2.92 -13.68c3.73,0.81 6.11,4.55 5.31,8.32 -0.8,3.77 -4.5,6.17 -8.23,5.36zm-118.7 -129.11l1.07 5.63 1.25 5.5 1.42 5.37 1.6 5.24 1.77 5.1 1.95 4.97 2.12 4.85 2.3 4.71 2.46 4.59 2.64 4.44 2.81 4.33 2.98 4.19 3.16 4.07 3.33 3.93 3.51 3.81 3.69 3.69 3.86 3.55 4.04 3.43 4.21 3.3 4.4 3.16 4.59 3.05 4.75 2.9 4.95 2.77 5.13 2.65 5.3 2.51 5.49 2.37 5.69 2.24 5.86 2.1 6.04 1.95 6.23 1.82 6.42 1.68 6.6 1.53 -2.92 13.68 -6.96 -1.61 -6.78 -1.78 -6.61 -1.92 -6.44 -2.09 -6.26 -2.24 -6.09 -2.4 -5.91 -2.55 -5.74 -2.71 -5.55 -2.87 -5.37 -3.01 -5.21 -3.18 -5.01 -3.33 -4.84 -3.48 -4.65 -3.64 -4.46 -3.79 -4.28 -3.93 -4.09 -4.09 -3.91 -4.23 -3.71 -4.39 -3.52 -4.53 -3.32 -4.67 -3.13 -4.81 -2.94 -4.96 -2.74 -5.09 -2.54 -5.23 -2.34 -5.35 -2.15 -5.49 -1.95 -5.62 -1.76 -5.74 -1.56 -5.87 -1.35 -6 -1.17 -6.11 13.64 -2.4zm0 0l-13.64 2.4c-0.65,-3.81 1.87,-7.44 5.63,-8.1 3.76,-0.66 7.36,1.89 8.01,5.7z"/>
   </g>
   <g>
    <path class="fil20" d="M15574.11 16124.76l-13.78 -1.24c0.34,-3.84 3.71,-6.69 7.51,-6.35 3.8,0.34 6.61,3.75 6.27,7.59zm-110.06 10l1.83 3.94 2.11 3.58 2.36 3.23 2.62 2.92 2.86 2.62 3.07 2.31 3.27 2.02 3.48 1.74 3.64 1.46 3.79 1.19 3.92 0.89 4.02 0.62 4.09 0.34 4.12 0.06 4.16 -0.22 4.14 -0.48 4.09 -0.74 4.03 -1 3.92 -1.25 3.81 -1.49 3.64 -1.72 3.46 -1.94 3.25 -2.14 3.01 -2.34 2.77 -2.55 2.5 -2.7 2.2 -2.86 1.89 -3.03 1.56 -3.18 1.25 -3.34 0.89 -3.5 0.53 -3.68 13.78 1.24 -0.73 5.18 -1.27 4.98 -1.75 4.72 -2.2 4.46 -2.63 4.19 -2.98 3.9 -3.32 3.6 -3.61 3.31 -3.89 3.02 -4.11 2.72 -4.32 2.42 -4.5 2.12 -4.65 1.83 -4.78 1.51 -4.87 1.22 -4.97 0.9 -5 0.58 -5.04 0.26 -5.06 -0.08 -5.01 -0.42 -4.98 -0.76 -4.92 -1.13 -4.81 -1.49 -4.7 -1.88 -4.52 -2.28 -4.35 -2.68 -4.11 -3.11 -3.84 -3.52 -3.54 -3.94 -3.2 -4.37 -2.81 -4.78 -2.39 -5.18 12.8 -5.3zm0 0l-12.8 5.3c-1.44,-3.57 0.25,-7.67 3.78,-9.13 3.53,-1.46 7.58,0.26 9.02,3.83z"/>
   </g>
   <g>
    <path class="fil23" d="M15954.17 16334.08l0 0 1.07 0.02 1.07 0.05 1.01 0.08 1.06 0.11 1.05 0.15 1.02 0.17 1.02 0.21 1.01 0.23 1.02 0.26 1 0.3 0.98 0.33 0.98 0.35 0.95 0.38 0.96 0.42 0.94 0.44 0.93 0.47 0.89 0.49 0.89 0.51 0.88 0.55 0.88 0.59 0.85 0.6 0.82 0.62 0.81 0.65 0.8 0.67 0.79 0.72 0.75 0.73 0.73 0.75 0.71 0.76 0.68 0.79 0.69 0.83 0.66 0.87 0.61 0.85 -7.54 5.38 -0.47 -0.65 -0.46 -0.61 -0.49 -0.59 -0.52 -0.59 -0.53 -0.58 -0.55 -0.57 -0.55 -0.53 -0.55 -0.5 -0.58 -0.49 -0.61 -0.49 -0.62 -0.46 -0.63 -0.46 -0.62 -0.41 -0.64 -0.39 -0.67 -0.39 -0.69 -0.37 -0.67 -0.35 -0.68 -0.32 -0.7 -0.3 -0.71 -0.28 -0.72 -0.27 -0.72 -0.23 -0.74 -0.22 -0.72 -0.2 -0.75 -0.17 -0.76 -0.15 -0.76 -0.13 -0.75 -0.11 -0.76 -0.07 -0.81 -0.06 -0.77 -0.05 -0.77 0 0 0 0 -9.34zm-34.89 35.3l0 0 0.04 -1.82 0.14 -1.78 0.22 -1.78 0.31 -1.72 0.38 -1.71 0.48 -1.7 0.55 -1.63 0.62 -1.6 0.71 -1.57 0.76 -1.51 0.83 -1.47 0.92 -1.46 0.99 -1.39 1.02 -1.31 1.09 -1.28 1.16 -1.23 1.2 -1.16 1.26 -1.11 1.33 -1.06 1.37 -0.98 1.42 -0.92 1.46 -0.84 1.5 -0.78 1.56 -0.71 1.57 -0.63 1.62 -0.55 1.65 -0.49 1.71 -0.39 1.72 -0.31 1.74 -0.22 1.76 -0.14 1.8 -0.05 0 9.34 -1.32 0.03 -1.32 0.1 -1.28 0.16 -1.26 0.23 -1.23 0.29 -1.21 0.35 -1.2 0.41 -1.17 0.47 -1.14 0.51 -1.1 0.58 -1.08 0.62 -1.04 0.68 -1.01 0.72 -0.95 0.76 -0.94 0.83 -0.9 0.86 -0.84 0.89 -0.81 0.96 -0.78 0.99 -0.71 1.01 -0.66 1.04 -0.61 1.09 -0.58 1.13 -0.51 1.15 -0.46 1.18 -0.41 1.21 -0.34 1.2 -0.28 1.27 -0.23 1.28 -0.16 1.3 -0.1 1.32 -0.04 1.34 0 0 -9.22 0zm34.89 35.3l0 0 -1.8 -0.05 -1.76 -0.14 -1.74 -0.22 -1.72 -0.31 -1.71 -0.39 -1.65 -0.49 -1.62 -0.55 -1.57 -0.63 -1.56 -0.71 -1.5 -0.78 -1.46 -0.84 -1.42 -0.92 -1.37 -0.98 -1.33 -1.06 -1.26 -1.11 -1.2 -1.16 -1.16 -1.23 -1.09 -1.28 -1.02 -1.31 -0.99 -1.39 -0.92 -1.46 -0.83 -1.47 -0.76 -1.51 -0.71 -1.57 -0.62 -1.6 -0.55 -1.63 -0.48 -1.7 -0.38 -1.71 -0.31 -1.72 -0.22 -1.78 -0.14 -1.78 -0.04 -1.82 9.22 0 0.04 1.34 0.1 1.32 0.16 1.3 0.23 1.28 0.28 1.27 0.34 1.2 0.41 1.21 0.46 1.18 0.51 1.15 0.58 1.13 0.61 1.09 0.66 1.04 0.71 1.01 0.78 0.99 0.81 0.96 0.84 0.89 0.9 0.86 0.94 0.83 0.95 0.76 1.01 0.72 1.04 0.68 1.08 0.62 1.1 0.58 1.14 0.51 1.17 0.47 1.2 0.41 1.21 0.35 1.23 0.29 1.26 0.23 1.28 0.16 1.32 0.1 1.32 0.03 0 0 0 9.34zm20.7 -6.9l-0.56 0.42 -0.57 0.39 -0.6 0.41 -0.58 0.37 -0.55 0.34 -0.64 0.38 -0.61 0.33 -0.6 0.33 -0.65 0.33 -0.6 0.29 -0.62 0.28 -0.64 0.28 -0.64 0.27 -0.66 0.26 -0.64 0.22 -0.65 0.23 -0.67 0.22 -0.65 0.19 -0.66 0.18 -0.65 0.17 -0.66 0.16 -0.71 0.15 -0.7 0.14 -0.66 0.11 -0.67 0.1 -0.68 0.09 -0.72 0.08 -0.67 0.06 -0.68 0.06 -0.75 0.03 -0.67 0.02 -0.69 0.01 0 -9.34 0.53 -0.01 0.53 0 0.45 -0.03 0.52 -0.04 0.53 -0.04 0.48 -0.06 0.52 -0.07 0.51 -0.08 0.52 -0.09 0.48 -0.08 0.47 -0.11 0.5 -0.12 0.51 -0.13 0.5 -0.14 0.49 -0.15 0.47 -0.14 0.49 -0.17 0.48 -0.18 0.46 -0.18 0.48 -0.19 0.46 -0.2 0.46 -0.22 0.48 -0.23 0.43 -0.21 0.46 -0.25 0.45 -0.25 0.4 -0.24 0.47 -0.3 0.44 -0.27 0.4 -0.27 0.43 -0.31 0.42 -0.3 5.48 7.5z"/>
   </g>
   <path class="fil21" d="M19471.29 17336.24l-164.62 123.98c-12.54,-152.01 -55.53,-224.81 -112.94,-260.11 20.82,173.41 41.65,346.81 62.48,520.22 42.45,0 83.71,0 126.16,0 7,-167.28 37.05,-294.6 88.92,-384.09z"/>
   <path class="fil21" d="M20732.54 18236.65l-164.62 123.97c-12.54,-152 -55.53,-224.81 -112.94,-260.1 20.82,173.4 41.65,346.81 62.48,520.21 42.45,0 83.71,0 126.16,0 7,-167.28 37.05,-294.6 88.92,-384.08z"/>
   <path class="fil21" d="M11258.87 17783.7l-164.62 123.97c-12.54,-152 -55.53,-224.81 -112.95,-260.1 20.83,173.4 41.66,346.81 62.48,520.21 42.46,0 83.72,0 126.17,0 7,-167.28 37.05,-294.6 88.92,-384.08z"/>
   <path class="fil21" d="M6856.59 17385.09l-164.61 123.97c-12.55,-152 -55.54,-224.81 -112.95,-260.1 20.83,173.4 41.66,346.81 62.48,520.21 42.46,0 83.71,0 126.17,0 7,-167.28 37.05,-294.59 88.91,-384.08z"/>
   <path class="fil21" d="M7601.45 18039.69l-164.62 123.98c-12.54,-152.01 -55.53,-224.81 -112.94,-260.11 20.82,173.41 41.65,346.81 62.48,520.22 42.45,0 83.71,0 126.16,0 7,-167.29 37.06,-294.6 88.92,-384.09z"/>
  </g>
 </g>
</svg>
