<?xml version="1.0" encoding="UTF-8"?>
<!DOCTYPE svg PUBLIC "-//W3C//DTD SVG 1.1//EN" "http://www.w3.org/Graphics/SVG/1.1/DTD/svg11.dtd">
<!-- Creator: CorelDRAW 2018 (64 Bit) -->
<svg xmlns="http://www.w3.org/2000/svg" xml:space="preserve" width="157.716mm" height="129.872mm" version="1.1" style="shape-rendering:geometricPrecision; text-rendering:geometricPrecision; image-rendering:optimizeQuality; fill-rule:evenodd; clip-rule:evenodd"
viewBox="0 0 20924.26 17230.14"
 xmlns:xlink="http://www.w3.org/1999/xlink">
 <defs>
  <style type="text/css">
   <![CDATA[
    .str4 {stroke:#373435;stroke-width:38.9;stroke-miterlimit:22.9256}
    .str1 {stroke:#2C2221;stroke-width:22.98;stroke-miterlimit:22.9256}
    .str0 {stroke:#2C2221;stroke-width:22.98;stroke-miterlimit:22.9256}
    .str2 {stroke:#2C2221;stroke-width:58.35;stroke-linecap:round;stroke-linejoin:round;stroke-miterlimit:22.9256}
    .str3 {stroke:#2C2221;stroke-width:58.35;stroke-linecap:round;stroke-linejoin:round;stroke-miterlimit:22.9256}
    .fil7 {fill:none}
    .fil31 {fill:black}
    .fil14 {fill:blue}
    .fil8 {fill:#33CC33}
    .fil5 {fill:#373435}
    .fil11 {fill:#422509}
    .fil21 {fill:#422509}
    .fil13 {fill:#663300}
    .fil2 {fill:#8A4B39}
    .fil25 {fill:#996633}
    .fil1 {fill:#996633}
    .fil28 {fill:#99CC66}
    .fil15 {fill:#99CC66}
    .fil16 {fill:#A3601D}
    .fil3 {fill:#A4A4A2}
    .fil12 {fill:#CCCCFF}
    .fil9 {fill:#E2DBD1}
    .fil6 {fill:#E2DCD0}
    .fil0 {fill:red}
    .fil10 {fill:#FF9999}
    .fil4 {fill:#FF9999}
    .fil19 {fill:#FFCCCC}
    .fil20 {fill:#FFCCCC}
    .fil18 {fill:white}
    .fil23 {fill:url(#id0)}
    .fil30 {fill:url(#id1)}
    .fil22 {fill:url(#id2)}
    .fil29 {fill:url(#id3)}
    .fil24 {fill:url(#id4)}
    .fil27 {fill:url(#id5)}
    .fil26 {fill:url(#id6)}
    .fil17 {fill:url(#id7)}
   ]]>
  </style>
  <linearGradient id="id0" gradientUnits="userSpaceOnUse" x1="11559.51" y1="16074.13" x2="13863.55" y2="16106.95">
   <stop offset="0" style="stop-opacity:1; stop-color:black"/>
   <stop offset="1" style="stop-opacity:1; stop-color:#663300"/>
  </linearGradient>
  <linearGradient id="id1" gradientUnits="userSpaceOnUse" x1="11646.94" y1="16342.86" x2="13754.3" y2="16505.01">
   <stop offset="0" style="stop-opacity:1; stop-color:#996633"/>
   <stop offset="1" style="stop-opacity:1; stop-color:#996633"/>
  </linearGradient>
  <linearGradient id="id2" gradientUnits="userSpaceOnUse" xlink:href="#id0" x1="11704.74" y1="16882.83" x2="13708.94" y2="16973.18">
  </linearGradient>
  <linearGradient id="id3" gradientUnits="userSpaceOnUse" x1="11641.86" y1="16521.12" x2="13758.89" y2="16610.49">
   <stop offset="0" style="stop-opacity:1; stop-color:#663300"/>
   <stop offset="1" style="stop-opacity:1; stop-color:#A3601D"/>
  </linearGradient>
  <linearGradient id="id4" gradientUnits="userSpaceOnUse" xlink:href="#id0" x1="11483.08" y1="14793.69" x2="13941.92" y2="14880.75">
  </linearGradient>
  <linearGradient id="id5" gradientUnits="userSpaceOnUse" x1="11503.22" y1="14874.55" x2="13916.57" y2="15036.7">
   <stop offset="0" style="stop-opacity:1; stop-color:#996633"/>
   <stop offset="1" style="stop-opacity:1; stop-color:#A3601D"/>
  </linearGradient>
  <linearGradient id="id6" gradientUnits="userSpaceOnUse" xlink:href="#id3" x1="11497.22" y1="15074.86" x2="13922.01" y2="15159.46">
  </linearGradient>
  <linearGradient id="id7" gradientUnits="userSpaceOnUse" x1="13693.99" y1="14360.22" x2="11602.57" y2="14272.49">
   <stop offset="0" style="stop-opacity:1; stop-color:black"/>
   <stop offset="0.501961" style="stop-opacity:1; stop-color:#CC6633"/>
   <stop offset="1" style="stop-opacity:1; stop-color:#663300"/>
  </linearGradient>
 </defs>
 <g id="Camada_x0020_1">
  <metadata id="CorelCorpID_0Corel-Layer"/>
  <path class="fil0" d="M17657.09 6642.1c1938.22,980.55 3267.16,2990.57 3267.16,5311.18 0,2086.56 -1074.48,3921.89 -2700.08,4983.71l-6497.48 0c-136.46,-89.14 -269.06,-183.71 -397.45,-283.45 -45.36,95.92 -93.24,190.42 -143.48,283.45l-10474.29 0c-453.76,-840.01 -711.47,-1801.49 -711.47,-2823.22 0,-3285.4 2663.35,-5948.76 5948.76,-5948.76 94.16,0 187.71,2.45 280.81,6.78 -276.94,-686.79 -429.57,-1437.06 -429.57,-2223.03 0,-3285.42 2663.35,-5948.77 5948.77,-5948.77 3285.42,0 5948.77,2663.35 5948.77,5948.77 0,234.57 -14.04,465.84 -40.44,693.33z"/>
  <rect class="fil1" x="335.78" y="16912.76" width="18612.93" height="317.37" rx="650.29" ry="193.1"/>
  <path class="fil2" d="M15528.76 12152.8c-194.31,1395.73 637.16,1360.64 630.33,2583.87 241,-1080.7 356.75,-1552.77 -630.33,-2583.87z"/>
  <polygon class="fil3" points="11687.32,16377.19 12599.18,16377.19 12619.7,16339.83 12696.59,16339.83 12690.67,15933.55 14037.71,13301.87 11669.6,11144.2 10572.85,13068.72 12844.87,13829.08 "/>
  <path class="fil2" d="M3037.16 6670.81l214.99 -256.33c-429.35,-451.76 -890.04,-751.18 -1288.94,-675.78 -3.75,643.49 432.64,1001.22 1073.95,932.11z"/>
  <g id="_2201337297088">
   <path class="fil4" d="M11694.99 12445.25c297.71,-169.99 219.09,-786.61 1142.5,-444.3 131.53,256.25 273.78,471.46 422.83,676.63 149.05,205.19 377.96,353.09 536.86,569.5l-487.84 153.11c-769.67,132.17 -1357.08,-99.4 -1606.41,-734.42 -22.06,-56.19 -56.37,-192.88 -7.95,-220.52z"/>
   <path class="fil4" d="M12139.08 13599.19c98.91,0 180.23,-118.73 189.82,-270.82 -126.69,-53.29 -239.83,-126.65 -337.63,-220.48 -25.35,48.97 -41.13,110.81 -42.8,178.36 2.48,3.2 3.82,7.99 3.82,14.55 0,18.06 -0.33,36.48 -0.49,54.9 17.02,138.73 94.39,243.49 187.28,243.49z"/>
   <path class="fil4" d="M12537.31 13466.79c0,126.93 61.9,229.81 138.28,229.81 76.38,0 138.28,-102.89 138.28,-229.81 0,-11.34 -0.49,-22.5 -1.45,-33.43 -93.84,-4.96 -183.52,-17.09 -268.6,-36.44 -4.23,22.04 -6.51,45.51 -6.51,69.88z"/>
   <path class="fil4" d="M13070.36 13501.18c0,116.82 61.03,211.52 136.25,211.52 75.24,0 136.27,-94.7 136.27,-211.52 0,-38.2 -6.51,-74.02 -17.94,-104.96l-15.59 3.98c-78.95,13.56 -155.97,23.3 -230.93,29.15 -5.21,22.43 -8.07,46.62 -8.07,71.83z"/>
  </g>
  <path class="fil5" d="M3185.17 6462.76c141.37,166.18 347.6,22.01 271.77,-165.85 -14.53,-35.99 -113.13,-156.29 -190.83,-300.11 -105.53,-195.33 -196.13,-421.29 -204.31,-419.24 -74.26,18.75 -36.66,697.08 123.37,885.2z"/>
  <path class="fil3" d="M7779.14 16336.79l734.54 0 10.12 -116.51 192.5 15.19c-869.65,-839.23 -322.39,-2169.65 -492.95,-3262.19l-1092.68 349.31c74.32,984.47 847.7,1654.85 648.47,3014.2z"/>
  <path class="fil6" d="M1509.1 9118.48c-256.69,-91.57 -469.55,-631.07 -240.31,-758.53 979.9,-544.86 1104.85,-700.88 1666.34,-1665.47 509.15,-838.12 782.65,-668.17 1671.72,-466.04 255.54,-300.43 598.9,-462.79 1043.56,-466.04 2.44,378.57 -175.64,654.97 -470.4,878.18 349.47,398.32 880.8,584.37 1432.92,611.13 489.58,-187.4 954.19,-32.86 1461.08,162.77 2151.34,830.3 2966.98,662.57 4425.21,340.7 659.28,-145.53 1283.04,-108.42 1585.78,388.13 1723.58,47.96 1027.26,3103.27 1636.37,4316 -599.34,-262.87 -175.75,-3078.24 -1311.66,-3813.63 272.93,1670.57 -373.27,2609.26 78.61,3517.13 314.96,632.8 584.89,861.81 711.26,1208.31 257.01,704.64 -483.34,2109.68 192.5,3069.88l-1018.22 -35.48c52.26,-1376.17 -198.43,-2134.87 -226.84,-2563.86 -10.65,-160.97 -131.2,-315.87 -230.58,-430.69 -339.28,-392 -937.81,-877.49 -1351.09,-1296.19 -503.02,-84.13 -723.86,378.2 -1048.35,530.81 -1570.07,738.44 -2715.41,326.21 -3103.1,454.5 -467.82,154.81 -858.65,468.58 -1332.31,506.57 -29.55,688.12 -219.89,1085.69 -350.75,1723.13 16.15,327.02 154.44,673.08 265.17,986.59l-932.11 0c268.6,-839.59 9.76,-1625.25 24.53,-2433.22 8.66,-473.42 -45.13,-476.23 -381.04,-863.82 -343.43,-396.29 -395.95,-1050.11 -538.14,-1846.79 -142.17,-796.7 -197.12,-1798.04 -1042.73,-2176.23 -66.47,-29.73 -159.93,-64.2 -267.24,21.64 -130.69,104.52 -975.58,-78.38 -1405.3,97.86 -253.39,103.93 -796.38,626.48 -937.66,35.62 -1.15,-24.16 49.98,-24.84 47.56,-36.31 -0.84,-3.9 -53.98,7.36 -54.79,3.36z"/>
  <path class="fil2" d="M4234.21 6147.48c103.4,24.52 216.69,52.4 342.25,80.96 255.54,-300.43 598.9,-462.79 1043.56,-466.04 2.44,378.57 -175.64,654.97 -470.4,878.18 349.47,398.32 880.8,584.37 1432.9,611.13 465.31,-159.68 930.6,-63.46 1395.9,132.17 13.8,131.28 18.75,312.42 18.75,578.27 0,287.02 -84.21,479.07 -146.84,622.46 -56.03,128.31 -69.56,432.97 -5.11,508.95 218.2,257.27 252.23,521.49 188.87,698.12 -45.47,126.77 -91.25,358.26 -26.63,548.07 200.96,590.29 62.35,952.58 -201.18,957.6 -392.32,7.47 -545.41,294.01 -545.09,434.06 0.61,273.94 -418.4,268.76 -500.13,130.71 -214.29,-362 43.13,-540.41 -310.83,-626.02 -101.41,-24.53 -318.93,-12.74 -509.77,106.69 -269.55,168.68 -961.17,-297.66 -673.62,-663.47 90.19,-114.75 -59.61,-399.06 210.69,-700.46 60.43,-67.37 52.96,-278.34 17.75,-369.79 -119.99,-311.62 -564.62,-731.94 -838.22,-773.86 -595.05,-91.17 -591.36,-109.27 -680.54,-617.87 -36.71,-209.45 -318.99,-193.15 -413.73,-145.07 -164.13,83.28 -290.4,256.11 -358.51,406.86 -72.11,159.62 -317.6,229.88 -359.64,30.47 -15.1,-71.63 60.21,-250.59 -54.89,-300.14 -100.21,-43.13 -364.09,-52.51 -266.2,-441.1 16.97,-67.37 294.51,-476.25 858.11,-705.46 166.51,-67.73 333.51,-260.06 399.44,-421.27 212.68,-520.07 434.39,-490.81 453.11,-494.14z"/>
  <path class="fil2" d="M14445.99 9699.71c-34.61,1049.58 -334.3,1764.45 10.84,2460.78 -7.64,46.12 -19.91,77.63 -39.55,88.45 -364.56,201.02 -232.61,-447.11 -562.31,-683.87 -107.97,-77.53 -390.53,-157.39 -400.2,-385.02 -18.71,-440.27 137.66,-245.04 168.05,-607.03 14.54,-173.24 -148.9,-493.67 -53.13,-650.87 163.85,-269 206.43,-265.98 666.65,-265.98 101.12,0 167.07,11.37 209.65,43.54z"/>
  <path class="fil2" d="M6155.8 15169.11c-27.32,-424.5 -105.91,-840.77 -97.76,-1285.95 6.82,-372.27 -25.03,-453.59 -202.26,-659.77 -0.48,-0.8 -0.97,-1.38 -1.47,-1.71l-0.01 -0.01c-15.84,-18.41 -32.81,-37.8 -51.05,-58.49 -24.21,-54.28 1.25,-111.68 86.16,-105.27 58.23,4.38 64.73,-60.9 182.38,83.58 74.26,91.2 233.96,13.61 183.24,435.66 -36.01,299.5 436.05,575.18 151.97,937.18 -37.96,48.34 -38.26,635.46 -251.2,654.78z"/>
  <path class="fil2" d="M9798.35 8891.1c-249.86,-207.73 -872.58,-319.26 -521.92,506.72 109.56,258.03 -100.66,504.48 -186.88,648.77 -174.14,291.38 -443.17,497.19 -8.29,961.5 105.09,112.19 210.47,340.8 247.3,476.19 49.94,183.54 68.68,419.21 523.03,441.29 160.54,7.8 388.05,-36.19 667.86,-48.97 1380.99,-63.11 411.44,145.7 985.95,-386.89 483.25,-447.97 85.81,-1576.44 67.73,-2115.48 -0.11,-3.56 -384,-674.75 -491.52,-734.7 -358.7,-200.04 -1056.01,440.5 -1283.25,251.57zm324.09 526c190.75,0 345.38,154.64 345.38,345.39 0,190.75 -154.63,345.39 -345.38,345.39 -190.77,0 -345.39,-154.64 -345.39,-345.39 0,-190.75 154.63,-345.39 345.39,-345.39z"/>
  <g>
   <polygon class="fil7 str0" points="5404.53,16843.11 6640.59,16843.11 6640.59,16387.18 5916.17,16387.18 "/>
   <polygon id="1" class="fil5" points="5404.53,16843.11 6640.59,16843.11 6640.59,16387.18 5916.17,16387.18 "/>
  </g>
  <polygon class="fil5" points="11133.27,16941.84 12369.33,16941.84 12617.55,16440.31 11695.58,16442.86 "/>
  <polygon class="fil5" points="13767.39,17028.61 15003.45,17028.61 15251.68,16527.08 14329.7,16529.62 "/>
  <g>
   <polygon class="fil7 str1" points="7199.88,16843.11 8435.92,16843.11 8435.92,16387.18 7711.52,16387.18 "/>
   <polygon id="1" class="fil5" points="7199.88,16843.11 8435.92,16843.11 8435.92,16387.18 7711.52,16387.18 "/>
  </g>
  <path class="fil8" d="M2452.74 15244.53l694.02 516.71c52.88,-633.55 234.14,-936.98 476.19,-1084.09 -87.8,722.72 -175.62,1445.45 -263.42,2168.17 -179,0 -352.93,0 -531.93,0 -29.51,-697.21 -156.21,-1227.84 -374.87,-1600.8z"/>
  <path class="fil9" d="M3884.83 4460.56l2487.31 0c-194.19,-145.23 -568.41,-255.26 -1018.65,-217.38 -106.76,8.97 -220.99,17.18 -289.25,-49.71 -420.29,-411.86 -958.71,-195.85 -1179.41,267.09z"/>
  <path class="fil9" d="M9226.23 2910.61l3145.89 10c88.65,0.27 -276.19,-255.16 -638.29,-192.5 -109.24,18.91 -245.68,76.88 -304.4,-16.8 -550.32,-878.01 -930.03,-416.09 -1446.62,-80.62 -85.05,55.23 -169.27,122.95 -255.93,103.95 -284.9,-62.42 -662.25,175.46 -500.64,175.97z"/>
  <path class="fil9" d="M16297.11 5190.29l-1158.62 0c84.1,-43.85 135.39,-70.79 339.79,-69.32 60.33,0.42 115.69,-58.72 154.15,-96.4 236.83,-232.09 585.88,-79.99 664.68,165.72z"/>
  <path class="fil5" d="M3849.49 6593.49c141.37,166.18 347.6,22.01 271.77,-165.85 -14.53,-35.99 -113.13,-156.27 -190.83,-300.1 -105.53,-195.33 -196.13,-421.29 -204.31,-419.24 -74.26,18.75 -36.66,697.08 123.37,885.19z"/>
  <path class="fil10" d="M1780.67 8040.22c-147.81,96.09 -323.78,198.26 -542.28,319.74 -219.57,122.1 -42.02,647.23 240.31,758.53 313.14,-1.92 558.63,-298.76 558.63,-558.26 0,-259.49 -116.33,-412.59 -256.66,-520z"/>
  <g>
   <path class="fil7 str2" d="M1514.95 9148.93c308.84,-66.61 489.26,-240.6 535.34,-504.61"/>
  </g>
  <g>
   <path class="fil7 str3" d="M3135.99 7564.92c18.06,201.37 375.35,266.67 461.96,55.34"/>
  </g>
  <g>
   <path class="fil7 str4" d="M1400.32 8513.46c23.92,-33.9 62.82,-54.05 104.29,-54.05 70.5,0 127.66,57.15 127.66,127.66 0,70.5 -57.15,127.66 -127.66,127.66 -27.24,0 -53.78,-8.72 -75.71,-24.9"/>
  </g>
  <rect class="fil11" x="7400.94" y="16365.77" width="1747.82" height="295.1"/>
  <polygon class="fil12" points="9931.61,16101.98 9740.54,16357.35 10028.08,16682.73 10497.21,16584.35 10623.93,16421.67 10616.38,16139.81 "/>
  <rect class="fil13" x="7181.53" y="14746.54" width="2126.14" height="370.73"/>
  <path class="fil14" d="M10526.22 14455.7c-557.73,245.28 -369.29,932.87 -481.46,1223.9l-83.57 216.81c-101.69,184.41 -105.47,224.61 0.96,324.44 170.53,159.99 419.97,24.66 611.36,2.72 143.6,-16.45 142.09,-132.66 143.76,-208.2l231.63 -967.56c49.29,-205.8 531.57,-737.54 284.17,-1199.54 -124.72,-232.92 -1133.22,-391.3 -1995.15,-335.59l-5.92 8.21c-250.26,21.35 -486.2,39.18 -635.56,121.05 -405.4,285.88 -1039.42,284.39 -1647.17,-40.96 -106,441.09 62.83,823.8 519.16,1145.57l1839.23 0c373.07,-78.39 836.91,-209.26 1209.99,-338.12l8.56 47.27z"/>
  <polygon class="fil13" points="7347.99,15117.28 7071.84,16971.04 7368.26,16977.13 7669.02,15094.98 "/>
  <polygon class="fil13" points="8853.69,15117.28 9158.22,16953.11 9439.02,16956.95 9121.24,15072.88 "/>
  <path class="fil15" d="M9067.69 10368.48c-1733.49,833.92 -1297.29,1609.38 -2256.88,3152.41 648.16,403.54 1349.33,428.72 1785.63,121.05 149.36,-81.87 385.3,-99.7 635.56,-121.05l665.84 -923.08c-346.68,-302.42 -568.48,-1304.74 488.39,-1618.51l-1054.42 -535.15c-137.14,-71.72 -13.49,-196.25 -264.12,-75.68z"/>
  <path class="fil16" d="M9653.52 16507.77c-38.53,272.7 37.17,468.8 419.93,491.79l503.15 30.28c0,0 302.69,128.61 499.38,105.92 60.59,-7 483.82,-94.46 518.29,-221.32 -1.62,-408.32 -203.9,-308.68 -465.33,-351.83 -167.71,-27.69 -242.72,-88.9 -314.24,-151.34 -158.79,-138.71 -137.98,-99.99 -323.33,-2.2 -227.08,119.79 -516.75,259.62 -625.99,83.56 -106.52,-299.97 -176.01,-285.11 -211.86,15.14z"/>
  <path class="fil13" d="M10073.44 16999.57c-201.46,-12.1 -317.84,-72.15 -377.29,-166.09l-9.79 129.58c109.84,113.41 278.58,167.88 499.38,170.26l3.78 -64.31 216.93 0.66c437.48,215.19 851.3,196.92 1125.04,-83.18 -128.57,87.01 -407.24,143.7 -455.52,149.28 -196.7,22.69 -499.38,-105.92 -499.38,-105.92l-503.15 -30.28z"/>
  <ellipse class="fil7" cx="12721.55" cy="14469.53" rx="1239.57" ry="342.51"/>
  <ellipse class="fil7" cx="12700.66" cy="14438.67" rx="1146.9" ry="259.97"/>
  <path class="fil17" d="M12786.14 14424.45c401.69,0 750.06,56.19 922.47,138.36 88.6,-36.88 138.96,-79.18 138.96,-124.14 0,-143.6 -513.46,-259.98 -1146.89,-259.98 -633.46,0 -1146.92,116.38 -1146.92,259.98 0,60.86 92.26,116.84 246.81,161.13 136.4,-101.85 526.09,-175.35 985.58,-175.35z"/>
  <path class="fil18" d="M13708.61 14562.82c-172.4,-82.18 -520.78,-138.36 -922.47,-138.36 -459.49,0 -849.18,73.5 -985.58,175.35 210.06,60.22 535.16,98.84 900.11,98.84 435.08,0 813.56,-54.91 1007.93,-135.83z"/>
  <path class="fil1" d="M11120.44 9974.02l-4.33 -4.83 141.27 -485.85c16.27,-55.93 18.89,-44.26 -20.66,-90.04 -269.02,-311.55 -622.75,-289.63 -917.87,-425.98 -81.67,-37.7 -64.27,-61.52 -119.01,3.82l-207.32 275.17c176.13,64.97 951.87,572.78 1127.91,727.71z"/>
  <path class="fil19" d="M10497.26 10109.64c116.33,-290.72 -19.66,-435.58 -261.04,-147.56 -50.44,102.14 -100.88,204.3 -151.32,306.44 -74.34,213.65 -262.98,122.41 -459.26,10.84l-293.82 164.79 1048.55 532.18c-72,-58.14 -143.99,-116.25 -216.01,-174.38 110.98,-230.75 221.94,-461.55 332.92,-692.31z"/>
  <path class="fil20" d="M10675.06 9893.99c-85.74,216.9 -175.3,331.65 -261.04,548.55 -28.43,97.94 -9.35,265.22 83.24,272.39 123.78,-61.33 228.91,-51.32 312.36,41.18l177.88 -52.99 27.93 -409.37 108.62 -82.06c0,0 -745.16,-595.28 -1078.5,-677.64l-172.18 0c298.2,86.65 481.98,163.3 801.7,359.93z"/>
  <path class="fil21" d="M9708.54 9434.51c796.09,296.49 1167.34,546.34 1896.12,1176.43 29.7,17.91 78.09,-17.15 44.9,-51.38l-498.85 -558.87c-361.69,-318.3 -743.85,-565.92 -1236.63,-790.81 -288.65,-97.69 -731.52,-117.02 -704.58,-23.66 9.22,32.03 274.16,146.63 499.05,248.29z"/>
  <path class="fil22" d="M13723.6 16709.7c-248.08,100.19 -603.97,163.42 -999.05,163.42 -124.92,0 -249.82,-8.32 -370.16,-23.02 -250.51,-30.63 -481.27,-88.97 -651.32,-157.67l15.31 155.49c9.23,91.26 9.29,108.42 72.98,143.95 106.73,59.52 254.66,99.75 421.69,124.3 2.99,0.44 5.98,0.88 9,1.31 302.18,43.22 665.12,35.78 959.47,-1.31 194.35,-24.48 358.81,-61.86 456.19,-106.11 62.45,-28.33 57.05,-24.13 63.27,-87.03l22.62 -213.33z"/>
  <path class="fil23" d="M13770.97 16262.94l107.33 -1012.26c-246.18,91.33 -591.68,153.49 -980.72,167.54 -55.28,2 -111.44,3.02 -168.32,3.02 -224,0 -447.95,-20.92 -651.34,-55.1 -198.71,-33.38 -377.82,-79.42 -518.24,-130.96l98.56 1001.57c154.44,850.75 1735.5,871.22 2112.73,26.19z"/>
  <path class="fil24" d="M12246.01 15141.99c161.9,21.76 411.41,37.13 558.1,37.13 146.71,0 372.72,-33.86 487.55,-45.17 321.7,-31.72 548.02,-101.44 633.77,-327.81 9.75,-97.02 29.43,-200.64 33.54,-316.19 -103.88,150.08 -322.59,242.36 -736.19,292.95 -153.26,18.75 -322.83,29.15 -501.2,29.15 -134.16,0 -263.32,-5.89 -384.33,-16.78 -460.47,-41.45 -826.12,-167.16 -855.27,-325.72 11.7,93.35 24.33,212.68 32.65,307.57 76.22,231.79 437.81,325.41 731.38,364.88z"/>
  <path class="fil25" d="M13847.56 14438.68c0,143.6 -513.46,259.97 -1146.89,259.97 -633.46,0 -1146.92,-116.36 -1146.92,-259.97 0,-143.58 513.49,-259.98 1146.92,-259.98 633.43,0 1146.89,116.4 1146.89,259.98zm-1125.98 373.36c659.76,0 1199.19,-142.43 1237.37,-322.08l2.16 -20.4c0,-189.17 -554.97,-342.53 -1239.54,-342.53 -684.6,0 -1239.59,153.35 -1239.59,342.53 0,11.02 1.87,21.93 5.57,32.69 59.56,173.82 589.31,309.8 1234.02,309.8z"/>
  <path class="fil19" d="M11246.08 13821.32l425.13 245.8c463.96,278.49 712.85,90.79 775.62,-343.1 46.7,-322.77 -120.97,-411.77 -243.65,-238.58 -175.81,99.24 -189.43,-59.54 -250.88,-184.64 -30.86,-62.81 -151.3,144.98 -194.4,230.57 -53.53,106.26 -290.14,23.63 -389.81,23.6l-122 266.35z"/>
  <path class="fil26" d="M11511.93 14749.28c-33.42,139.56 -11.28,368.68 44.59,486.04 281.73,110.95 713.79,223.91 1176.53,223.91 462.75,0 861.68,-101.53 1143.06,-208.05 56.7,-120.64 77.94,-338.4 51.06,-461.53 -142.94,403.04 -2351.74,380.98 -2415.25,-40.36z"/>
  <path class="fil27" d="M12222.26 15048.39c-371.13,-45.16 -666.36,-140.02 -706.96,-283.5 -0.57,0.2 -1.13,0.42 -1.7,0.62 -1.9,0.73 -3.79,1.45 -5.67,2.18 -4.63,23.71 -7.84,49.53 -9.72,76.62 39.75,41.03 92.58,77.19 155.83,108.76 140.21,70.01 331.62,117.56 545.14,146.11 173.19,23.15 360.94,33.82 547.74,33.82 104.28,0 204.63,-2.19 300.43,-7.39 331.91,-18.03 609.15,-72.24 806.3,-196.99 29.72,-18.8 57.62,-39.22 83.61,-61.35 -1.75,-28.35 -5.09,-54.63 -10.11,-77.63 -55.32,156.01 -420.21,248.33 -850.38,278.45 -279.62,19.58 -586.81,12.87 -854.53,-19.7z"/>
  <path class="fil28" d="M10354.49 10963.2c-1056.36,313.92 -821.64,1343.9 -475,1646.26l-6.86 9.51 105.96 132.46c84.17,105.25 47.28,214.39 70.9,321.59 35.16,159.55 321.04,413.31 1165.22,786.89l295.07 -363.18c-505.84,-426.84 -822.81,-995.85 -923.33,-1803.42 -24.28,-195.03 30.79,-423.19 -67.77,-625.31 -50.39,-25.65 -113.76,-79.15 -164.19,-104.8z"/>
  <g>
   <path class="fil29" d="M11654.54 16217.61c-29.19,139.54 -9.84,368.66 38.94,486.02 246.01,110.95 619.98,185.92 1024.04,185.92 404.07,0 755.74,-63.55 1001.43,-170.07 49.53,-120.62 68.06,-338.4 44.59,-461.53 -124.82,403.04 -2053.55,380.99 -2109,-40.34z"/>
   <path class="fil30" d="M12274.8 16516.7c-324.06,-45.15 -581.86,-140.02 -617.31,-283.5 -0.49,0.21 -0.98,0.42 -1.47,0.64 -1.67,0.72 -3.33,1.45 -4.95,2.16 -4.06,23.72 -6.86,49.53 -8.5,76.62 34.72,41.03 80.85,77.19 136.08,108.76 122.43,70.01 289.57,117.56 476.02,146.12 151.23,23.14 315.18,33.8 478.29,33.8 91.06,0 178.69,-2.19 262.34,-7.39 289.83,-18.02 531.93,-72.24 704.07,-196.98 25.95,-18.81 50.32,-39.23 73.01,-61.35 -1.53,-28.35 -4.44,-54.63 -8.82,-77.64 -48.32,156.02 -366.93,248.33 -742.55,278.45 -244.17,19.58 -512.41,12.87 -746.19,-19.7z"/>
  </g>
  <path class="fil31" d="M9625.63 10279.36c196.29,111.58 384.93,202.81 459.26,-10.84 50.44,-102.14 100.88,-204.3 151.32,-306.44 241.38,-288.03 377.37,-143.16 261.04,147.56 -110.98,230.77 -221.94,461.56 -332.92,692.31 145.59,117.53 291.17,235.03 436.76,352.54 26.28,-23.76 177.34,-62.47 137.95,-174.99 -41.37,-118.13 -185.57,-29.12 -186.83,-97.43 -2.51,-137.03 315.34,30.2 257.39,-125.96 -83.45,-92.5 -188.58,-102.51 -312.36,-41.18 -92.59,-7.16 -111.67,-174.45 -83.24,-272.39 85.74,-216.9 175.3,-331.65 261.04,-548.55 -322.57,-198.39 -528.84,-335.24 -831.22,-422.69 -120.56,303.68 -478.94,661.96 -218.22,808.05z"/>
  <path class="fil6" d="M12660.27 14474.67c97.99,71.06 367.35,-36.75 352.64,78.83 -9.41,73.95 -183.96,51.9 -239.68,51.9 73.87,0 277.36,70.73 277.36,-45.6 0,-127.96 -91.73,-91.2 -227.97,-91.2 -22.73,0 -156.72,10.14 -162.35,6.06z"/>
  <path class="fil6" d="M12652.67 14649.5c-51.13,-37.08 -191.68,19.17 -184,-41.14 4.91,-38.59 95.99,-27.08 125.07,-27.08 -38.55,0 -144.73,-36.91 -144.73,23.79 0,66.77 47.87,47.59 118.95,47.59 11.86,0 81.78,-5.29 84.71,-3.16z"/>
 </g>
</svg>
