<?xml version="1.0" encoding="UTF-8"?>
<!DOCTYPE svg PUBLIC "-//W3C//DTD SVG 1.1//EN" "http://www.w3.org/Graphics/SVG/1.1/DTD/svg11.dtd">
<!-- Creator: CorelDRAW 2018 (64 Bit) -->
<svg xmlns="http://www.w3.org/2000/svg" xml:space="preserve" width="297mm" height="210mm" version="1.1" style="shape-rendering:geometricPrecision; text-rendering:geometricPrecision; image-rendering:optimizeQuality; fill-rule:evenodd; clip-rule:evenodd"
viewBox="0 0 29700 21000"
 xmlns:xlink="http://www.w3.org/1999/xlink">
 <defs>
  <style type="text/css">
   <![CDATA[
    .str4 {stroke:#373435;stroke-width:29.32;stroke-miterlimit:22.9256}
    .str1 {stroke:#2C2221;stroke-width:17.32;stroke-miterlimit:22.9256}
    .str0 {stroke:#2C2221;stroke-width:17.32;stroke-miterlimit:22.9256}
    .str2 {stroke:#2C2221;stroke-width:43.98;stroke-linecap:round;stroke-linejoin:round;stroke-miterlimit:22.9256}
    .str3 {stroke:#2C2221;stroke-width:43.98;stroke-linecap:round;stroke-linejoin:round;stroke-miterlimit:22.9256}
    .fil7 {fill:none}
    .fil31 {fill:black}
    .fil14 {fill:blue}
    .fil8 {fill:#33CC33}
    .fil5 {fill:#373435}
    .fil11 {fill:#422509}
    .fil21 {fill:#422509}
    .fil13 {fill:#663300}
    .fil2 {fill:#8A4B39}
    .fil25 {fill:#996633}
    .fil1 {fill:#996633}
    .fil28 {fill:#99CC66}
    .fil15 {fill:#99CC66}
    .fil16 {fill:#A3601D}
    .fil3 {fill:#A4A4A2}
    .fil12 {fill:#CCCCFF}
    .fil9 {fill:#E2DBD1}
    .fil6 {fill:#E2DCD0}
    .fil0 {fill:red}
    .fil10 {fill:#FF9999}
    .fil4 {fill:#FF9999}
    .fil19 {fill:#FFCCCC}
    .fil20 {fill:#FFCCCC}
    .fil18 {fill:white}
    .fil23 {fill:url(#id0)}
    .fil30 {fill:url(#id1)}
    .fil22 {fill:url(#id2)}
    .fil29 {fill:url(#id3)}
    .fil24 {fill:url(#id4)}
    .fil27 {fill:url(#id5)}
    .fil26 {fill:url(#id6)}
    .fil17 {fill:url(#id7)}
   ]]>
  </style>
  <linearGradient id="id0" gradientUnits="userSpaceOnUse" x1="17619.04" y1="15572.11" x2="19355.71" y2="15596.85">
   <stop offset="0" style="stop-opacity:1; stop-color:black"/>
   <stop offset="1" style="stop-opacity:1; stop-color:#663300"/>
  </linearGradient>
  <linearGradient id="id1" gradientUnits="userSpaceOnUse" x1="17684.94" y1="15774.67" x2="19273.36" y2="15896.89">
   <stop offset="0" style="stop-opacity:1; stop-color:#996633"/>
   <stop offset="1" style="stop-opacity:1; stop-color:#996633"/>
  </linearGradient>
  <linearGradient id="id2" gradientUnits="userSpaceOnUse" xlink:href="#id0" x1="17728.51" y1="16181.67" x2="19239.17" y2="16249.77">
  </linearGradient>
  <linearGradient id="id3" gradientUnits="userSpaceOnUse" x1="17681.11" y1="15909.03" x2="19276.82" y2="15976.39">
   <stop offset="0" style="stop-opacity:1; stop-color:#663300"/>
   <stop offset="1" style="stop-opacity:1; stop-color:#A3601D"/>
  </linearGradient>
  <linearGradient id="id4" gradientUnits="userSpaceOnUse" xlink:href="#id0" x1="17561.43" y1="14606.98" x2="19414.78" y2="14672.6">
  </linearGradient>
  <linearGradient id="id5" gradientUnits="userSpaceOnUse" x1="17576.61" y1="14667.93" x2="19395.67" y2="14790.15">
   <stop offset="0" style="stop-opacity:1; stop-color:#996633"/>
   <stop offset="1" style="stop-opacity:1; stop-color:#A3601D"/>
  </linearGradient>
  <linearGradient id="id6" gradientUnits="userSpaceOnUse" xlink:href="#id3" x1="17572.09" y1="14818.91" x2="19399.77" y2="14882.68">
  </linearGradient>
  <linearGradient id="id7" gradientUnits="userSpaceOnUse" x1="19227.9" y1="14280.25" x2="17651.5" y2="14214.13">
   <stop offset="0" style="stop-opacity:1; stop-color:black"/>
   <stop offset="0.501961" style="stop-opacity:1; stop-color:#CC6633"/>
   <stop offset="1" style="stop-opacity:1; stop-color:#663300"/>
  </linearGradient>
 </defs>
 <g id="Camada_x0020_1">
  <metadata id="CorelCorpID_0Corel-Layer"/>
  <g id="_2201333075840">
   <path class="fil0" d="M22215.09 8462.73c1460.93,739.09 2462.62,2254.14 2462.62,4003.3 0,1572.74 -809.89,2956.12 -2035.18,3756.47l-4897.47 0c-102.86,-67.19 -202.8,-138.47 -299.58,-213.65 -34.19,72.3 -70.28,143.53 -108.15,213.65l-7894.99 0c-342.02,-633.16 -536.27,-1357.87 -536.27,-2128 0,-2476.37 2007.5,-4483.87 4483.87,-4483.87 70.97,0 141.49,1.85 211.66,5.11 -208.74,-517.67 -323.79,-1083.18 -323.79,-1675.61 0,-2476.38 2007.5,-4483.88 4483.88,-4483.88 2476.38,0 4483.88,2007.5 4483.88,4483.88 0,176.81 -10.58,351.13 -30.48,522.6z"/>
   <rect class="fil1" x="9159.16" y="16204.23" width="14029.48" height="239.22" rx="490.16" ry="145.55"/>
   <path class="fil2" d="M20610.86 12616.41c-146.46,1052.03 480.26,1025.58 475.11,1947.59 181.65,-814.58 268.9,-1170.4 -475.11,-1947.59z"/>
   <polygon class="fil3" points="17715.38,15800.54 18402.69,15800.54 18418.16,15772.38 18476.11,15772.38 18471.65,15466.15 19486.98,13482.52 17702.02,11856.18 16875.35,13306.79 18587.88,13879.91 "/>
   <path class="fil2" d="M11195.33 8484.37l162.05 -193.21c-323.62,-340.51 -670.87,-566.2 -971.54,-509.37 -2.83,485.03 326.1,754.67 809.49,702.58z"/>
   <g>
    <path class="fil4" d="M17721.16 12836.85c224.4,-128.13 165.14,-592.91 861.16,-334.89 99.14,193.15 206.36,355.36 318.71,510.01 112.35,154.66 284.89,266.14 404.66,429.26l-367.71 115.41c-580.14,99.62 -1022.9,-74.92 -1210.83,-553.57 -16.63,-42.35 -42.49,-145.38 -5.99,-166.22z"/>
    <path class="fil4" d="M18055.89 13706.63c74.55,0 135.85,-89.49 143.08,-204.13 -95.49,-40.17 -180.77,-95.46 -254.49,-166.19 -19.11,36.91 -31,83.52 -32.26,134.44 1.87,2.41 2.88,6.02 2.88,10.97 0,13.61 -0.25,27.5 -0.37,41.38 12.83,104.57 71.15,183.53 141.16,183.53z"/>
    <path class="fil4" d="M18356.06 13606.83c0,95.67 46.66,173.22 104.23,173.22 57.57,0 104.23,-77.55 104.23,-173.22 0,-8.55 -0.37,-16.96 -1.09,-25.2 -70.73,-3.74 -138.33,-12.88 -202.46,-27.47 -3.19,16.61 -4.91,34.3 -4.91,52.67z"/>
    <path class="fil4" d="M18757.84 13632.75c0,88.05 46,159.43 102.7,159.43 56.71,0 102.71,-71.38 102.71,-159.43 0,-28.79 -4.91,-55.79 -13.52,-79.11l-11.75 3c-59.51,10.22 -117.56,17.56 -174.06,21.97 -3.93,16.91 -6.08,35.14 -6.08,54.14z"/>
   </g>
   <path class="fil5" d="M11306.89 8327.55c106.56,125.26 262,16.59 204.85,-125.01 -10.95,-27.13 -85.27,-117.8 -143.84,-226.21 -79.54,-147.23 -147.83,-317.55 -154,-316 -55.97,14.13 -27.63,525.42 92.99,667.22z"/>
   <path class="fil3" d="M14769.59 15770.09l553.66 0 7.63 -87.82 145.1 11.45c-655.5,-632.57 -243,-1635.37 -371.56,-2458.87l-823.61 263.29c56.02,742.04 638.95,1247.34 488.78,2271.95z"/>
   <path class="fil6" d="M10043.55 10329.3c-193.48,-69.02 -353.92,-475.67 -181.13,-571.74 738.6,-410.69 832.78,-528.29 1256,-1255.35 383.77,-631.73 589.92,-503.63 1260.06,-351.28 192.61,-226.45 451.42,-348.83 786.58,-351.28 1.84,285.35 -132.39,493.68 -354.56,661.93 263.41,300.23 663.9,440.47 1080.06,460.64 369.02,-141.25 719.22,-24.77 1101.29,122.69 1621.57,625.84 2236.36,499.41 3335.5,256.8 496.93,-109.69 967.09,-81.72 1195.28,292.55 1299.15,36.15 774.3,2339.09 1233.41,3253.18 -451.75,-198.14 -132.47,-2320.22 -988.66,-2874.52 205.72,1259.19 -281.35,1966.73 59.25,2651.03 237.4,476.97 440.86,649.59 536.11,910.76 193.72,531.12 -364.32,1590.17 145.1,2313.92l-767.48 -26.74c39.39,-1037.29 -149.57,-1609.16 -170.98,-1932.51 -8.03,-121.33 -98.89,-238.09 -173.8,-324.63 -255.73,-295.47 -706.87,-661.41 -1018.38,-977 -379.15,-63.41 -545.61,285.07 -790.19,400.1 -1183.44,556.6 -2046.74,245.88 -2338.96,342.58 -352.62,116.69 -647.21,353.19 -1004.23,381.83 -22.27,518.67 -165.74,818.34 -264.38,1298.81 12.17,246.49 116.41,507.33 199.87,743.64l-702.58 0c202.46,-632.84 7.36,-1225.03 18.49,-1834.04 6.53,-356.84 -34.02,-358.96 -287.21,-651.1 -258.86,-298.7 -298.45,-791.52 -405.62,-1392.02 -107.16,-600.51 -148.58,-1355.27 -785.96,-1640.33 -50.1,-22.41 -120.55,-48.39 -201.43,16.31 -98.51,78.78 -735.34,-59.08 -1059.24,73.76 -190.99,78.34 -600.27,472.21 -706.76,26.85 -0.87,-18.21 37.67,-18.72 35.85,-27.37 -0.63,-2.94 -40.69,5.55 -41.3,2.53z"/>
   <path class="fil2" d="M12097.6 8089.91c77.94,18.48 163.33,39.5 257.97,61.02 192.61,-226.45 451.42,-348.83 786.58,-351.28 1.84,285.35 -132.39,493.68 -354.56,661.93 263.41,300.23 663.9,440.47 1080.05,460.64 350.73,-120.36 701.44,-47.83 1052.16,99.62 10.4,98.95 14.13,235.49 14.13,435.87 0,216.34 -63.47,361.1 -110.68,469.18 -42.23,96.71 -52.43,326.35 -3.85,383.62 164.47,193.92 190.12,393.07 142.36,526.21 -34.27,95.55 -68.78,270.04 -20.07,413.11 151.47,444.93 47,718.01 -151.64,721.79 -295.71,5.63 -411.1,221.61 -410.86,327.17 0.46,206.48 -315.37,202.58 -376.97,98.52 -161.52,-272.86 32.51,-407.33 -234.29,-471.86 -76.44,-18.49 -240.39,-9.6 -384.24,80.42 -203.17,127.14 -724.48,-224.36 -507.74,-500.09 67.98,-86.49 -44.93,-300.79 158.81,-527.97 45.55,-50.78 39.92,-209.8 13.38,-278.73 -90.44,-234.88 -425.58,-551.7 -631.81,-583.3 -448.52,-68.72 -445.74,-82.36 -512.96,-465.72 -27.67,-157.87 -240.44,-145.59 -311.85,-109.35 -123.71,62.77 -218.89,193.04 -270.23,306.67 -54.35,120.31 -239.39,173.27 -271.08,22.97 -11.38,-53.99 45.38,-188.88 -41.37,-226.23 -75.53,-32.51 -274.43,-39.58 -200.65,-332.48 12.79,-50.78 221.99,-358.97 646.8,-531.74 125.51,-51.05 251.38,-196.02 301.08,-317.53 160.31,-392 327.42,-369.95 341.53,-372.46z"/>
   <path class="fil2" d="M19794.72 10767.4c-26.09,791.12 -251.98,1329.95 8.17,1854.81 -5.76,34.76 -15.01,58.51 -29.81,66.67 -274.79,151.52 -175.33,-337.01 -423.84,-515.47 -81.38,-58.44 -294.36,-118.63 -301.65,-290.21 -14.1,-331.85 103.76,-184.7 126.67,-457.55 10.96,-130.58 -112.23,-372.1 -40.05,-490.59 123.5,-202.76 155.6,-200.48 502.49,-200.48 76.22,0 125.93,8.57 158.02,32.82z"/>
   <path class="fil2" d="M13546 14889.95c-20.59,-319.97 -79.83,-633.73 -73.69,-969.28 5.14,-280.6 -18.87,-341.89 -152.45,-497.3 -0.36,-0.6 -0.73,-1.04 -1.11,-1.29l-0.01 -0.01c-11.94,-13.88 -24.73,-28.49 -38.48,-44.09 -18.25,-40.91 0.94,-84.18 64.94,-79.35 43.89,3.3 48.79,-45.9 137.47,63 55.97,68.74 176.35,10.26 138.12,328.38 -27.14,225.75 328.67,433.54 114.55,706.4 -28.61,36.44 -28.84,478.98 -189.34,493.54z"/>
   <path class="fil2" d="M16291.57 10157.91c-188.33,-156.58 -657.71,-240.64 -393.4,381.94 82.58,194.49 -75.87,380.25 -140.86,489.01 -131.26,219.63 -334.04,374.76 -6.25,724.73 79.21,84.56 158.64,256.88 186.4,358.93 37.64,138.34 51.77,315.98 394.23,332.62 121.01,5.88 292.49,-27.28 503.4,-36.91 1040.92,-47.57 310.12,109.82 743.16,-291.62 364.25,-337.66 64.68,-1188.24 51.05,-1594.54 -0.08,-2.68 -289.44,-508.59 -370.48,-553.78 -270.37,-150.78 -795.97,332.03 -967.25,189.62zm244.28 396.47c143.78,0 260.33,116.56 260.33,260.34 0,143.78 -116.55,260.34 -260.33,260.34 -143.79,0 -260.34,-116.56 -260.34,-260.34 0,-143.78 116.55,-260.34 260.34,-260.34z"/>
   <g>
    <polygon class="fil7 str0" points="12979.73,16151.73 13911.41,16151.73 13911.41,15808.07 13365.38,15808.07 "/>
    <polygon id="1" class="fil5" points="12979.73,16151.73 13911.41,16151.73 13911.41,15808.07 13365.38,15808.07 "/>
   </g>
   <polygon class="fil5" points="17297.76,16226.15 18229.44,16226.15 18416.54,15848.12 17721.6,15850.04 "/>
   <polygon class="fil5" points="19283.23,16291.55 20214.91,16291.55 20402.01,15913.52 19707.07,15915.44 "/>
   <g>
    <polygon class="fil7 str1" points="14332.97,16151.73 15264.64,16151.73 15264.64,15808.07 14718.62,15808.07 "/>
    <polygon id="1" class="fil5" points="14332.97,16151.73 15264.64,16151.73 15264.64,15808.07 14718.62,15808.07 "/>
   </g>
   <path class="fil8" d="M10754.82 14946.8l523.12 389.47c39.86,-477.54 176.48,-706.25 358.93,-817.13 -66.18,544.75 -132.37,1089.51 -198.55,1634.26 -134.92,0 -266.02,0 -400.94,0 -22.24,-525.52 -117.74,-925.48 -282.56,-1206.6z"/>
   <path class="fil9" d="M11834.26 6818.39l1874.81 0c-146.37,-109.47 -428.44,-192.4 -767.81,-163.85 -80.47,6.76 -166.57,12.95 -218.02,-37.47 -316.79,-310.44 -722.63,-147.62 -888.98,201.32z"/>
   <path class="fil9" d="M15860.33 5650.12l2371.21 7.54c66.82,0.2 -208.18,-192.33 -481.11,-145.1 -82.34,14.25 -185.18,57.95 -229.44,-12.66 -414.8,-661.8 -701.01,-313.63 -1090.39,-60.77 -64.11,41.63 -127.59,92.67 -192.91,78.35 -214.74,-47.05 -499.17,132.25 -377.36,132.64z"/>
   <path class="fil9" d="M21190 7368.43l-873.31 0c63.39,-33.05 102.05,-53.36 256.12,-52.25 45.47,0.32 87.2,-44.26 116.19,-72.66 178.51,-174.94 441.61,-60.29 501,124.91z"/>
   <path class="fil5" d="M11807.62 8426.09c106.56,125.26 262,16.59 204.85,-125.01 -10.95,-27.13 -85.27,-117.79 -143.84,-226.2 -79.54,-147.23 -147.83,-317.55 -154,-316 -55.97,14.13 -27.63,525.42 92.99,667.21z"/>
   <path class="fil10" d="M10248.25 9516.56c-111.41,72.43 -244.05,149.44 -408.74,241 -165.5,92.03 -31.67,487.85 181.13,571.74 236.03,-1.45 421.07,-225.19 421.07,-420.79 0,-195.59 -87.68,-310.99 -193.46,-391.95z"/>
   <g>
    <path class="fil7 str2" d="M10047.96 10352.25c232.79,-50.21 368.78,-181.35 403.51,-380.35"/>
   </g>
   <g>
    <path class="fil7 str3" d="M11269.82 9158.3c13.61,151.78 282.92,201 348.2,41.71"/>
   </g>
   <g>
    <path class="fil7 str4" d="M9961.56 9873.26c18.03,-25.55 47.35,-40.74 78.61,-40.74 53.14,0 96.22,43.08 96.22,96.22 0,53.14 -43.08,96.22 -96.22,96.22 -20.53,0 -40.54,-6.57 -57.07,-18.77"/>
   </g>
   <rect class="fil11" x="14484.52" y="15791.93" width="1317.41" height="222.43"/>
   <polygon class="fil12" points="16392.01,15593.1 16247.99,15785.59 16464.73,16030.84 16818.33,15956.69 16913.85,15834.07 16908.16,15621.62 "/>
   <rect class="fil13" x="14319.14" y="14571.45" width="1602.58" height="279.44"/>
   <path class="fil14" d="M16840.2 14352.22c-420.39,184.88 -278.35,703.15 -362.9,922.51l-62.99 163.42c-76.65,139 -79.5,169.3 0.72,244.55 128.54,120.59 316.55,18.59 460.81,2.05 108.24,-12.4 107.1,-99.99 108.36,-156.93l174.59 -729.3c37.15,-155.12 400.67,-555.92 214.19,-904.15 -94.01,-175.56 -854.16,-294.94 -1503.84,-252.95l-4.46 6.19c-188.63,16.09 -366.47,29.53 -479.05,91.24 -305.57,215.48 -783.46,214.36 -1241.55,-30.87 -79.9,332.47 47.36,620.94 391.32,863.47l1386.32 0c281.2,-59.09 630.82,-157.73 912.03,-254.86l6.45 35.63z"/>
   <polygon class="fil13" points="14444.61,14850.89 14236.46,16248.16 14459.89,16252.75 14686.59,14834.08 "/>
   <polygon class="fil13" points="15579.53,14850.89 15809.07,16234.64 16020.72,16237.54 15781.2,14817.42 "/>
   <path class="fil15" d="M15740.83 11271.48c-1306.62,628.57 -977.83,1213.07 -1701.12,2376.13 488.55,304.17 1017.06,323.15 1345.92,91.24 112.58,-61.71 290.42,-75.15 479.05,-91.24l501.88 -695.77c-261.31,-227.95 -428.49,-983.45 368.12,-1219.95l-794.77 -403.37c-103.37,-54.06 -10.17,-147.92 -199.08,-57.04z"/>
   <path class="fil16" d="M16182.4 15898.97c-29.04,205.55 28.02,353.36 316.52,370.69l379.25 22.82c0,0 228.15,96.94 376.41,79.84 45.67,-5.28 364.68,-71.2 390.66,-166.82 -1.22,-307.77 -153.69,-232.67 -350.74,-265.19 -126.41,-20.87 -182.95,-67.01 -236.86,-114.07 -119.69,-104.55 -104,-75.37 -243.71,-1.66 -171.16,90.29 -389.5,195.69 -471.84,62.98 -80.29,-226.1 -132.67,-214.9 -159.69,11.41z"/>
   <path class="fil13" d="M16498.92 16269.66c-151.85,-9.12 -239.57,-54.38 -284.38,-125.19l-7.38 97.67c82.79,85.48 209.98,126.54 376.41,128.33l2.85 -48.47 163.51 0.5c329.75,162.2 641.67,148.43 848,-62.7 -96.91,65.58 -306.96,108.31 -343.35,112.52 -148.26,17.1 -376.41,-79.84 -376.41,-79.84l-379.25 -22.82z"/>
   <ellipse class="fil7" cx="18494.93" cy="14362.65" rx="934.32" ry="258.17"/>
   <ellipse class="fil7" cx="18479.18" cy="14339.39" rx="864.48" ry="195.95"/>
   <path class="fil17" d="M18543.61 14328.67c302.77,0 565.36,42.35 695.31,104.29 66.78,-27.8 104.74,-59.68 104.74,-93.57 0,-108.24 -387.02,-195.96 -864.47,-195.96 -477.47,0 -864.49,87.72 -864.49,195.96 0,45.87 69.54,88.07 186.03,121.45 102.81,-76.77 396.54,-132.17 742.88,-132.17z"/>
   <path class="fil18" d="M19238.92 14432.96c-129.95,-61.94 -392.54,-104.29 -695.31,-104.29 -346.34,0 -640.07,55.4 -742.88,132.17 158.33,45.39 403.38,74.5 678.46,74.5 327.94,0 613.22,-41.39 759.73,-102.38z"/>
   <path class="fil1" d="M17288.09 10974.16l-3.26 -3.64 106.48 -366.21c12.26,-42.16 14.24,-33.36 -15.57,-67.87 -202.77,-234.83 -469.4,-218.31 -691.84,-321.08 -61.56,-28.42 -48.44,-46.37 -89.7,2.88l-156.27 207.41c132.76,48.97 717.47,431.73 850.16,548.51z"/>
   <path class="fil19" d="M16818.37 11076.38c87.68,-219.13 -14.82,-328.32 -196.76,-111.22 -38.02,76.99 -76.04,153.99 -114.06,230.98 -56.03,161.04 -198.22,92.27 -346.17,8.17l-221.47 124.21 790.34 401.13c-54.27,-43.82 -108.53,-87.62 -162.82,-131.44 83.65,-173.93 167.29,-347.89 250.94,-521.83z"/>
   <path class="fil20" d="M16952.39 10913.84c-64.63,163.49 -132.13,249.98 -196.76,413.47 -21.43,73.82 -7.05,199.91 62.74,205.31 93.3,-46.23 172.54,-38.68 235.44,31.04l134.08 -39.94 21.05 -308.56 81.87 -61.85c0,0 -561.66,-448.69 -812.92,-510.77l-129.78 0c224.77,65.31 363.29,123.09 604.28,271.3z"/>
   <path class="fil21" d="M16223.87 10567.5c600.05,223.48 879.88,411.8 1429.2,886.73 22.39,13.5 58.86,-12.93 33.84,-38.73l-376.01 -421.25c-272.62,-239.92 -560.68,-426.56 -932.11,-596.07 -217.57,-73.63 -551.38,-88.2 -531.08,-17.83 6.95,24.14 206.65,110.52 376.16,187.15z"/>
   <path class="fil22" d="M19250.22 16051.17c-186.99,75.52 -455.24,123.18 -753.03,123.18 -94.16,0 -188.3,-6.27 -279.01,-17.35 -188.82,-23.09 -362.76,-67.06 -490.93,-118.84l11.54 117.2c6.96,68.79 7,81.72 55.01,108.5 80.45,44.86 191.95,75.19 317.85,93.69 2.25,0.33 4.51,0.66 6.78,0.99 227.77,32.58 501.33,26.97 723.2,-0.99 146.49,-18.45 270.45,-46.63 343.85,-79.98 47.07,-21.35 43,-18.19 47.69,-65.6l17.05 -160.8z"/>
   <path class="fil23" d="M19285.93 15714.43l80.9 -762.99c-185.56,68.84 -445.98,115.69 -739.22,126.28 -41.67,1.51 -84,2.28 -126.87,2.28 -168.84,0 -337.64,-15.77 -490.95,-41.53 -149.78,-25.16 -284.78,-59.86 -390.62,-98.71l74.29 754.93c116.41,641.25 1308.13,656.68 1592.47,19.74z"/>
   <path class="fil24" d="M18136.49 14869.51c122.03,16.4 310.1,27.99 420.67,27.99 110.58,0 280.94,-25.52 367.49,-34.05 242.48,-23.91 413.07,-76.46 477.7,-247.09 7.35,-73.13 22.18,-151.23 25.28,-238.33 -78.3,113.12 -243.15,182.68 -554.9,220.81 -115.52,14.13 -243.33,21.97 -377.78,21.97 -101.12,0 -198.48,-4.44 -289.69,-12.65 -347.08,-31.24 -622.69,-126 -644.66,-245.51 8.82,70.36 18.34,160.31 24.61,231.83 57.45,174.71 330,245.28 551.28,275.03z"/>
   <path class="fil25" d="M19343.66 14339.39c0,108.24 -387.02,195.95 -864.47,195.95 -477.47,0 -864.49,-87.71 -864.49,-195.95 0,-108.22 387.04,-195.96 864.49,-195.96 477.45,0 864.47,87.74 864.47,195.96zm-848.71 281.42c497.29,0 903.89,-107.36 932.67,-242.77l1.63 -15.38c0,-142.59 -418.31,-258.18 -934.3,-258.18 -516.02,0 -934.34,115.59 -934.34,258.18 0,8.31 1.41,16.53 4.2,24.64 44.89,131.02 444.19,233.51 930.14,233.51z"/>
   <path class="fil19" d="M17382.79 13874.06l320.44 185.27c349.71,209.91 537.31,68.43 584.62,-258.61 35.2,-243.29 -91.18,-310.37 -183.65,-179.83 -132.52,74.8 -142.78,-44.88 -189.1,-139.17 -23.26,-47.34 -114.04,109.28 -146.53,173.79 -40.35,80.09 -218.69,17.81 -293.82,17.79l-91.96 200.76z"/>
   <path class="fil26" d="M17583.18 14573.51c-25.19,105.19 -8.5,277.89 33.61,366.35 212.35,83.63 538.02,168.77 886.81,168.77 348.8,0 649.49,-76.53 861.58,-156.82 42.74,-90.93 58.75,-255.07 38.49,-347.88 -107.74,303.79 -1772.62,287.16 -1820.49,-30.42z"/>
   <path class="fil27" d="M18118.59 14798.96c-279.74,-34.04 -502.27,-105.54 -532.87,-213.69 -0.43,0.15 -0.85,0.32 -1.28,0.47 -1.43,0.55 -2.86,1.09 -4.27,1.64 -3.49,17.87 -5.91,37.33 -7.33,57.75 29.96,30.93 69.78,58.18 117.46,81.98 105.68,52.77 249.96,88.61 410.9,110.13 130.54,17.45 272.06,25.49 412.86,25.49 78.6,0 154.24,-1.65 226.45,-5.57 250.18,-13.59 459.15,-54.45 607.75,-148.48 22.4,-14.17 43.43,-29.56 63.02,-46.24 -1.32,-21.37 -3.84,-41.18 -7.62,-58.51 -41.7,117.59 -316.73,187.18 -640.97,209.88 -210.76,14.76 -442.31,9.7 -644.1,-14.85z"/>
   <path class="fil28" d="M16710.76 11719.75c-796.23,236.62 -619.31,1012.96 -358.03,1240.87l-5.17 7.17 79.87 99.84c63.44,79.33 35.64,161.6 53.44,242.4 26.5,120.26 241.98,311.53 878.28,593.12l222.41 -273.75c-381.28,-321.73 -620.19,-750.62 -695.96,-1359.33 -18.3,-147 23.21,-318.98 -51.08,-471.33 -37.98,-19.33 -85.75,-59.66 -123.76,-78.99z"/>
   <g>
    <path class="fil29" d="M17690.67 15680.26c-22,105.18 -7.42,277.88 29.35,366.34 185.43,83.63 467.31,140.14 771.87,140.14 304.57,0 569.64,-47.9 754.83,-128.19 37.33,-90.92 51.3,-255.07 33.61,-347.88 -94.08,303.79 -1547.86,287.17 -1589.66,-30.41z"/>
    <path class="fil30" d="M18158.19 15905.7c-244.26,-34.03 -438.58,-105.54 -465.3,-213.69 -0.37,0.16 -0.74,0.32 -1.11,0.48 -1.26,0.54 -2.51,1.09 -3.73,1.63 -3.06,17.88 -5.17,37.33 -6.41,57.75 26.17,30.93 60.94,58.18 102.57,81.98 92.28,52.77 218.26,88.61 358.8,110.14 113.99,17.44 237.57,25.48 360.51,25.48 68.64,0 134.69,-1.65 197.74,-5.57 218.46,-13.58 400.94,-54.45 530.69,-148.47 19.56,-14.18 37.93,-29.57 55.03,-46.24 -1.15,-21.37 -3.35,-41.18 -6.65,-58.52 -36.42,117.6 -276.57,187.18 -559.7,209.88 -184.04,14.76 -386.23,9.7 -562.44,-14.85z"/>
   </g>
   <path class="fil31" d="M16161.38 11204.31c147.95,84.1 290.14,152.87 346.17,-8.17 38.02,-76.99 76.04,-153.99 114.06,-230.98 181.94,-217.1 284.44,-107.91 196.76,111.22 -83.65,173.94 -167.29,347.9 -250.94,521.83 109.74,88.59 219.47,177.15 329.21,265.73 19.81,-17.91 133.67,-47.09 103.98,-131.9 -31.18,-89.04 -139.87,-21.95 -140.82,-73.44 -1.89,-103.29 237.69,22.76 194.01,-94.94 -62.9,-69.72 -142.14,-77.27 -235.44,-31.04 -69.79,-5.4 -84.17,-131.49 -62.74,-205.31 64.63,-163.49 132.13,-249.98 196.76,-413.47 -243.14,-149.54 -398.61,-252.69 -626.53,-318.6 -90.87,228.9 -361,498.95 -164.48,609.07z"/>
   <path class="fil6" d="M18448.74 14366.52c73.86,53.56 276.89,-27.7 265.8,59.42 -7.09,55.74 -138.66,39.12 -180.66,39.12 55.68,0 209.06,53.31 209.06,-34.37 0,-96.45 -69.14,-68.74 -171.83,-68.74 -17.13,0 -118.13,7.64 -122.37,4.57z"/>
   <path class="fil6" d="M18443.01 14498.3c-38.54,-27.95 -144.48,14.45 -138.69,-31.01 3.7,-29.09 72.35,-20.41 94.27,-20.41 -29.06,0 -109.09,-27.82 -109.09,17.93 0,50.33 36.08,35.87 89.66,35.87 8.94,0 61.64,-3.99 63.85,-2.38z"/>
  </g>
 </g>
</svg>
