<?xml version="1.0" encoding="UTF-8"?>
<!DOCTYPE svg PUBLIC "-//W3C//DTD SVG 1.1//EN" "http://www.w3.org/Graphics/SVG/1.1/DTD/svg11.dtd">
<!-- Creator: CorelDRAW 2018 (64 Bit) -->
<svg xmlns="http://www.w3.org/2000/svg" xml:space="preserve" width="297mm" height="210mm" version="1.1" style="shape-rendering:geometricPrecision; text-rendering:geometricPrecision; image-rendering:optimizeQuality; fill-rule:evenodd; clip-rule:evenodd"
viewBox="0 0 29700 21000"
 xmlns:xlink="http://www.w3.org/1999/xlink">
 <defs>
  <style type="text/css">
   <![CDATA[
    .fil18 {fill:none}
    .fil5 {fill:#373435}
    .fil33 {fill:black}
    .fil15 {fill:blue}
    .fil8 {fill:#33CC33}
    .fil12 {fill:#422509}
    .fil23 {fill:#422509}
    .fil14 {fill:#663300}
    .fil2 {fill:#8A4B39}
    .fil27 {fill:#996633}
    .fil1 {fill:#996633}
    .fil30 {fill:#99CC66}
    .fil16 {fill:#99CC66}
    .fil17 {fill:#A3601D}
    .fil3 {fill:#A4A4A2}
    .fil13 {fill:#CCCCFF}
    .fil9 {fill:#E2DBD1}
    .fil6 {fill:#E2DCD0}
    .fil0 {fill:red}
    .fil10 {fill:#FF9999}
    .fil4 {fill:#FF9999}
    .fil21 {fill:#FFCCCC}
    .fil22 {fill:#FFCCCC}
    .fil20 {fill:white}
    .fil11 {fill:#373435;fill-rule:nonzero}
    .fil7 {fill:#2C2221;fill-rule:nonzero}
    .fil29 {fill:url(#id0)}
    .fil26 {fill:url(#id1)}
    .fil31 {fill:url(#id2)}
    .fil24 {fill:url(#id3)}
    .fil28 {fill:url(#id4)}
    .fil19 {fill:url(#id5)}
    .fil25 {fill:url(#id6)}
    .fil32 {fill:url(#id7)}
   ]]>
  </style>
  <linearGradient id="id0" gradientUnits="userSpaceOnUse" x1="15868.45" y1="16598.82" x2="18229.33" y2="16756.82">
   <stop offset="0" style="stop-opacity:1; stop-color:#996633"/>
   <stop offset="1" style="stop-opacity:1; stop-color:#A3601D"/>
  </linearGradient>
  <linearGradient id="id1" gradientUnits="userSpaceOnUse" x1="15848.74" y1="16520.04" x2="18254.13" y2="16604.86">
   <stop offset="0" style="stop-opacity:1; stop-color:black"/>
   <stop offset="1" style="stop-opacity:1; stop-color:#663300"/>
  </linearGradient>
  <linearGradient id="id2" gradientUnits="userSpaceOnUse" x1="16004.06" y1="18203.11" x2="18075.08" y2="18290.2">
   <stop offset="0" style="stop-opacity:1; stop-color:#663300"/>
   <stop offset="1" style="stop-opacity:1; stop-color:#A3601D"/>
  </linearGradient>
  <linearGradient id="id3" gradientUnits="userSpaceOnUse" xlink:href="#id1" x1="16065.6" y1="18555.56" x2="18026.2" y2="18643.6">
  </linearGradient>
  <linearGradient id="id4" gradientUnits="userSpaceOnUse" xlink:href="#id2" x1="15862.59" y1="16793.99" x2="18234.65" y2="16876.42">
  </linearGradient>
  <linearGradient id="id5" gradientUnits="userSpaceOnUse" x1="18011.61" y1="16097.66" x2="15965.65" y2="16012.2">
   <stop offset="0" style="stop-opacity:1; stop-color:black"/>
   <stop offset="0.501961" style="stop-opacity:1; stop-color:#CC6633"/>
   <stop offset="1" style="stop-opacity:1; stop-color:#663300"/>
  </linearGradient>
  <linearGradient id="id6" gradientUnits="userSpaceOnUse" xlink:href="#id1" x1="15923.51" y1="17767.61" x2="18177.47" y2="17799.59">
  </linearGradient>
  <linearGradient id="id7" gradientUnits="userSpaceOnUse" x1="16009.05" y1="18029.45" x2="18070.57" y2="18187.44">
   <stop offset="0" style="stop-opacity:1; stop-color:#996633"/>
   <stop offset="1" style="stop-opacity:1; stop-color:#996633"/>
  </linearGradient>
 </defs>
 <g id="Camada_x0020_1">
  <metadata id="CorelCorpID_0Corel-Layer"/>
  <g id="_2728622929024">
   <path class="fil0" d="M21888.53 8577.67c1896.07,955.39 3196.12,2913.82 3196.12,5174.88 0,2032.99 -1051.12,3821.21 -2641.37,4855.79l-6356.21 0c-133.49,-86.86 -263.2,-179 -388.8,-276.18 -44.38,93.47 -91.22,185.54 -140.37,276.18l-10246.54 0c-443.91,-818.45 -696.01,-1755.25 -696.01,-2750.75 0,-3201.08 2605.44,-5796.09 5819.41,-5796.09 92.11,0 183.64,2.4 274.7,6.61 -270.91,-669.16 -420.22,-1400.17 -420.22,-2165.98 0,-3201.09 2605.44,-5796.08 5819.42,-5796.08 3213.98,0 5819.42,2594.99 5819.42,5796.08 0,228.56 -13.73,453.89 -39.55,675.54z"/>
   <rect class="fil1" x="4943.83" y="18584.72" width="18208.23" height="309.23" rx="636.15" ry="188.14"/>
   <path class="fil2" d="M19806.47 13946.93c-190.09,1359.91 623.3,1325.71 616.63,2517.55 235.75,-1052.97 348.98,-1512.92 -616.63,-2517.55z"/>
   <polygon class="fil3" points="16048.56,18062.89 16940.58,18062.89 16960.66,18026.49 17035.87,18026.49 17030.08,17630.64 18347.83,15066.5 16031.22,12964.21 14958.32,14839.35 17180.94,15580.19 "/>
   <path class="fil2" d="M7586.48 8605.64l210.32 -249.74c-420.01,-440.17 -870.69,-731.9 -1260.92,-658.44 -3.68,626.97 423.22,975.52 1050.6,908.18z"/>
   <g>
    <path class="fil4" d="M16056.06 14231.88c291.23,-165.62 214.33,-766.43 1117.66,-432.89 128.66,249.67 267.82,459.35 413.64,659.25 145.82,199.93 369.74,344.04 525.19,554.89l-477.24 149.19c-752.94,128.77 -1327.58,-96.85 -1571.47,-715.58 -21.59,-54.74 -55.16,-187.92 -7.78,-214.86z"/>
    <path class="fil4" d="M16490.49 15356.2c96.75,0 176.31,-115.68 185.69,-263.86 -123.92,-51.94 -234.61,-123.4 -330.28,-214.83 -24.81,47.71 -40.24,107.96 -41.87,173.77 2.43,3.12 3.73,7.79 3.73,14.19 0,17.59 -0.31,35.54 -0.48,53.49 16.65,135.17 92.35,237.24 183.21,237.24z"/>
    <path class="fil4" d="M16880.06 15227.19c0,123.67 60.57,223.92 135.28,223.92 74.72,0 135.28,-100.25 135.28,-223.92 0,-11.04 -0.48,-21.92 -1.42,-32.57 -91.8,-4.84 -179.53,-16.65 -262.76,-35.51 -4.14,21.47 -6.38,44.33 -6.38,68.08z"/>
    <path class="fil4" d="M17401.52 15260.7c0,113.81 59.7,206.08 133.28,206.08 73.61,0 133.31,-92.27 133.31,-206.08 0,-37.22 -6.38,-72.11 -17.54,-102.26l-15.26 3.88c-77.24,13.2 -152.58,22.69 -225.9,28.4 -5.1,21.86 -7.89,45.41 -7.89,69.98z"/>
   </g>
   <path class="fil5" d="M7731.27 8402.93c138.29,161.92 340.04,21.44 265.86,-161.59 -14.21,-35.07 -110.66,-152.27 -186.68,-292.41 -103.23,-190.31 -191.87,-410.48 -199.87,-408.48 -72.64,18.27 -35.86,679.19 120.69,862.48z"/>
   <path class="fil3" d="M12225.34 18023.53l718.57 0 9.92 -113.52 188.31 14.81c-850.74,-817.71 -315.38,-2113.98 -482.23,-3178.47l-1068.92 340.34c72.7,959.21 829.25,1612.38 634.35,2936.84z"/>
   <path class="fil6" d="M6091.64 10990.5c-251.12,-89.22 -459.34,-614.88 -235.08,-739.06 958.59,-530.89 1080.82,-682.9 1630.1,-1622.73 498.07,-816.6 765.63,-651.01 1635.37,-454.08 249.98,-292.72 585.89,-450.91 1020.87,-454.08 2.39,368.85 -171.82,638.15 -460.17,855.63 341.88,388.1 861.65,569.38 1401.76,595.46 478.94,-182.59 933.44,-32.02 1429.32,158.59 2104.56,809 2902.48,645.56 4328.99,331.95 644.95,-141.79 1255.14,-105.64 1551.3,378.17 1686.11,46.73 1004.94,3023.61 1600.79,4205.21 -586.3,-256.12 -171.93,-2999.22 -1283.14,-3715.74 267,1627.69 -365.14,2542.29 76.91,3426.85 308.1,616.56 572.16,839.7 695.79,1177.3 251.42,686.55 -472.84,2055.54 188.31,2991.09l-996.08 -34.56c51.13,-1340.87 -194.11,-2080.08 -221.9,-2498.06 -10.42,-156.84 -128.35,-307.78 -225.57,-419.64 -331.9,-381.94 -917.41,-854.98 -1321.71,-1262.91 -492.08,-81.97 -708.12,368.49 -1025.55,517.18 -1535.93,719.49 -2656.38,317.83 -3035.63,442.84 -457.64,150.83 -839.99,456.55 -1303.34,493.57 -28.91,670.45 -215.11,1057.82 -343.13,1678.91 15.8,318.62 151.08,655.79 259.39,961.26l-911.84 0c262.77,-818.04 9.55,-1583.54 24,-2370.77 8.48,-461.27 -44.15,-464.01 -372.75,-841.65 -335.97,-386.11 -387.35,-1023.15 -526.44,-1799.39 -139.08,-776.25 -192.84,-1751.89 -1020.06,-2120.37 -65.03,-28.96 -156.46,-62.55 -261.43,21.08 -127.85,101.83 -954.36,-76.37 -1374.74,95.35 -247.88,101.26 -779.07,610.4 -917.28,34.71 -1.12,-23.55 48.9,-24.21 46.53,-35.39 -0.81,-3.8 -52.81,7.17 -53.59,3.28z"/>
   <path class="fil2" d="M8757.49 8095.75c101.16,23.88 211.98,51.06 334.81,78.88 249.98,-292.72 585.88,-450.91 1020.86,-454.08 2.4,368.85 -171.82,638.15 -460.16,855.63 341.87,388.1 861.64,569.38 1401.75,595.46 455.19,-155.59 910.36,-61.83 1365.55,128.76 13.5,127.92 18.34,304.41 18.34,563.44 0,279.65 -82.37,466.78 -143.64,606.48 -54.82,125.01 -68.05,421.86 -5.01,495.89 213.46,250.67 246.75,508.11 184.77,680.2 -44.48,123.51 -89.26,349.07 -26.05,534.01 196.59,575.13 61,928.14 -196.81,933.02 -383.78,7.27 -533.54,286.46 -533.24,422.91 0.6,266.91 -409.3,261.87 -489.25,127.36 -209.63,-352.72 42.19,-526.53 -304.07,-609.95 -99.21,-23.9 -312,-12.41 -498.69,103.96 -263.68,164.34 -940.27,-290.02 -658.97,-646.45 88.23,-111.8 -58.31,-388.81 206.11,-682.47 59.12,-65.65 51.8,-271.21 17.36,-360.31 -117.37,-303.62 -552.34,-713.16 -820,-754 -582.1,-88.83 -578.5,-106.47 -665.74,-602.01 -35.91,-204.07 -312.06,-188.2 -404.74,-141.36 -160.55,81.15 -284.08,249.54 -350.71,396.42 -70.54,155.52 -310.7,223.98 -351.82,29.7 -14.78,-69.8 58.89,-244.16 -53.7,-292.44 -98.03,-42.03 -356.16,-51.16 -260.42,-429.78 16.6,-65.65 288.11,-464.03 839.46,-687.36 162.89,-65.98 326.26,-253.39 390.75,-410.45 208.06,-506.72 424.94,-478.22 443.26,-481.46z"/>
   <path class="fil2" d="M18747.24 11556.81c-33.87,1022.63 -327.03,1719.16 10.6,2397.61 -7.47,44.94 -19.47,75.63 -38.69,86.19 -356.64,195.86 -227.55,-435.64 -550.08,-666.33 -105.62,-75.54 -382.04,-153.35 -391.5,-375.13 -18.3,-428.97 134.66,-238.76 164.4,-591.46 14.23,-168.79 -145.66,-480.99 -51.98,-634.16 160.28,-262.1 201.95,-259.16 652.16,-259.16 98.93,0 163.45,11.09 205.09,42.44z"/>
   <path class="fil2" d="M10637.3 16885.82c-26.72,-413.6 -103.6,-819.19 -95.63,-1252.94 6.66,-362.72 -24.49,-441.95 -197.86,-642.84 -0.47,-0.77 -0.95,-1.34 -1.44,-1.67l-0.02 -0.01c-15.5,-17.94 -32.1,-36.82 -49.93,-56.99 -23.69,-52.88 1.21,-108.82 84.27,-102.57 56.97,4.27 63.33,-59.33 178.42,81.44 72.64,88.86 228.88,13.26 179.26,424.48 -35.22,291.81 426.57,560.41 148.67,913.12 -37.12,47.11 -37.43,619.16 -245.74,637.98z"/>
   <path class="fil2" d="M14200.65 10768.94c-244.41,-202.4 -853.6,-311.06 -510.56,493.73 107.16,251.4 -98.47,491.53 -182.82,632.11 -170.36,283.91 -433.55,484.43 -8.12,936.82 102.81,109.31 205.89,332.06 241.92,463.98 48.86,178.82 67.2,408.44 511.66,429.96 157.05,7.6 379.61,-35.27 653.34,-47.72 1350.96,-61.48 402.49,141.96 964.51,-376.96 472.74,-436.48 83.95,-1535.98 66.26,-2061.18 -0.11,-3.46 -375.65,-657.42 -480.83,-715.84 -350.91,-194.91 -1033.06,429.2 -1255.36,245.1zm317.04 512.51c186.61,0 337.88,150.67 337.88,336.53 0,185.86 -151.27,336.53 -337.88,336.53 -186.61,0 -337.88,-150.67 -337.88,-336.53 0,-185.86 151.27,-336.53 337.88,-336.53z"/>
   <g>
    <path class="fil7" d="M11111.55 18528.05l-1209.18 0 0 -22.38 1209.18 0 11.24 11.19 -11.24 11.19zm11.24 -11.19l0 11.19 -11.24 0 11.24 -11.19zm0 -444.23l0 444.23 -22.48 0 0 -444.23 11.24 -11.19 11.24 11.19zm-11.24 -11.19l11.24 0 0 11.19 -11.24 -11.19zm-708.66 0l708.66 0 0 22.38 -708.66 0 -7.48 -19.55 7.48 -2.83zm-7.48 2.83l3.19 -2.83 4.29 0 -7.48 2.83zm-500.52 444.23l500.52 -444.23 14.96 16.72 -500.52 444.23 -7.48 2.83 -7.48 -19.55zm7.48 19.55l-29.51 0 22.03 -19.55 7.48 19.55z"/>
    <polygon id="1" class="fil5" points="9902.37,18516.86 11111.55,18516.86 11111.55,18072.63 10402.89,18072.63 "/>
   </g>
   <polygon class="fil5" points="15506.55,18613.05 16715.73,18613.05 16958.56,18124.4 16056.63,18126.87 "/>
   <polygon class="fil5" points="18083.4,18697.59 19292.58,18697.59 19535.41,18208.94 18633.48,18211.41 "/>
   <g>
    <path class="fil7" d="M12867.86 18528.05l-1209.19 0 0 -22.38 1209.19 0 11.24 11.19 -11.24 11.19zm11.24 -11.19l0 11.19 -11.24 0 11.24 -11.19zm0 -444.23l0 444.23 -22.48 0 0 -444.23 11.24 -11.19 11.24 11.19zm-11.24 -11.19l11.24 0 0 11.19 -11.24 -11.19zm-708.67 0l708.67 0 0 22.38 -708.67 0 -7.48 -19.55 7.48 -2.83zm-7.48 2.83l3.19 -2.83 4.29 0 -7.48 2.83zm-500.52 444.23l500.52 -444.23 14.96 16.72 -500.52 444.23 -7.48 2.83 -7.48 -19.55zm7.48 19.55l-29.51 0 22.03 -19.55 7.48 19.55z"/>
    <polygon id="1" class="fil5" points="11658.67,18516.86 12867.86,18516.86 12867.86,18072.63 12159.19,18072.63 "/>
   </g>
   <path class="fil8" d="M7014.76 16959.3l678.94 503.45c51.73,-617.28 229.04,-912.93 465.83,-1056.26 -85.89,704.17 -171.8,1408.36 -257.69,2112.53 -175.1,0 -345.26,0 -520.36,0 -28.87,-679.31 -152.81,-1196.33 -366.72,-1559.72z"/>
   <path class="fil9" d="M8415.71 6452.12l2433.24 0c-189.97,-141.51 -556.06,-248.71 -996.51,-211.8 -104.44,8.74 -216.18,16.74 -282.95,-48.43 -411.16,-401.3 -937.87,-190.83 -1153.78,260.23z"/>
   <path class="fil9" d="M13640.97 4941.96l3077.49 9.74c86.71,0.26 -270.18,-248.61 -624.41,-187.56 -106.87,18.42 -240.35,74.91 -297.78,-16.37 -538.35,-855.47 -909.81,-405.41 -1415.18,-78.55 -83.19,53.81 -165.59,119.79 -250.36,101.28 -278.7,-60.82 -647.85,170.95 -489.76,171.46z"/>
   <path class="fil9" d="M20558.11 7163.13l-1133.43 0c82.27,-42.73 132.45,-68.98 332.4,-67.54 59.02,0.41 113.18,-57.22 150.8,-93.92 231.69,-226.15 573.15,-77.94 650.23,161.46z"/>
   <path class="fil5" d="M8381.14 8530.32c138.3,161.91 340.04,21.44 265.86,-161.6 -14.2,-35.07 -110.66,-152.27 -186.67,-292.4 -103.24,-190.32 -191.87,-410.48 -199.87,-408.48 -72.65,18.27 -35.86,679.19 120.68,862.48z"/>
   <path class="fil10" d="M6357.3 9939.9c-144.59,93.63 -316.74,193.18 -530.48,311.54 -214.8,118.96 -41.11,630.61 235.08,739.06 306.34,-1.88 546.48,-291.1 546.48,-543.94 0,-252.83 -113.79,-402 -251.08,-506.66z"/>
   <g>
    <path class="fil7" d="M6103.38 11047.95c-15.4,3.3 -30.6,-6.46 -33.92,-21.8 -3.32,-15.34 6.48,-30.48 21.88,-33.78l12.04 55.58zm489.56 -524.34l56.22 9.78 -4.79 24.83 -5.62 24.34 -6.42 23.83 -7.23 23.33 -8.04 22.81 -8.86 22.29 -9.67 21.75 -10.49 21.22 -11.3 20.67 -12.1 20.1 -12.91 19.55 -13.72 18.97 -14.51 18.39 -15.3 17.8 -16.09 17.2 -16.88 16.61 -17.63 15.99 -18.42 15.38 -19.18 14.77 -19.95 14.15 -20.69 13.51 -21.44 12.9 -22.18 12.25 -22.91 11.64 -23.65 11 -24.38 10.38 -25.1 9.74 -25.83 9.1 -26.54 8.46 -27.27 7.84 -27.98 7.2 -28.7 6.56 -12.04 -55.58 27.22 -6.22 26.46 -6.8 25.69 -7.38 24.94 -7.96 24.17 -8.52 23.42 -9.08 22.66 -9.64 21.89 -10.18 21.15 -10.74 20.38 -11.27 19.64 -11.82 18.89 -12.33 18.13 -12.87 17.4 -13.39 16.66 -13.92 15.93 -14.43 15.2 -14.95 14.47 -15.48 13.74 -15.98 13.03 -16.51 12.3 -17.03 11.59 -17.55 10.88 -18.08 10.18 -18.61 9.45 -19.12 8.75 -19.67 8.02 -20.19 7.32 -20.73 6.59 -21.27 5.88 -21.81 5.14 -22.34 4.43 -22.89zm0 0c2.71,-15.46 17.5,-25.81 33.02,-23.11 15.52,2.7 25.91,17.43 23.2,32.89l-56.22 -9.78z"/>
   </g>
   <g>
    <path class="fil7" d="M7654.73 9479.35c-1.4,-15.63 10.18,-29.45 25.88,-30.85 15.7,-1.4 29.58,10.14 30.98,25.77l-56.86 5.08zm453.92 40.59l52.82 21.56 -9.88 21.03 -11.6 19.4 -13.18 17.73 -14.59 16.02 -15.87 14.3 -16.95 12.58 -17.9 10.91 -18.68 9.24 -19.34 7.65 -19.86 6.08 -20.27 4.57 -20.55 3.1 -20.73 1.68 -20.81 0.3 -20.79 -1.05 -20.65 -2.37 -20.45 -3.66 -20.11 -4.92 -19.7 -6.16 -19.18 -7.4 -18.55 -8.62 -17.82 -9.84 -16.97 -11.04 -16 -12.23 -14.93 -13.45 -13.69 -14.66 -12.31 -15.83 -10.8 -17 -9.08 -18.12 -7.24 -19.19 -5.21 -20.18 -3.05 -21.02 56.86 -5.08 2.17 14.98 3.67 14.22 5.12 13.55 6.48 12.92 7.8 12.28 9.07 11.65 10.27 10.98 11.41 10.27 12.46 9.53 13.41 8.72 14.28 7.88 15.03 6.98 15.66 6.04 16.2 5.08 16.61 4.06 16.89 3.02 17.07 1.95 17.11 0.87 17.05 -0.24 16.87 -1.36 16.55 -2.5 16.15 -3.65 15.64 -4.78 15.02 -5.93 14.32 -7.08 13.52 -8.23 12.69 -9.42 11.77 -10.6 10.79 -11.84 9.78 -13.15 8.68 -14.52 7.52 -16.01zm0 0c5.97,-14.52 22.65,-21.47 37.23,-15.52 14.58,5.95 21.56,22.56 15.59,37.08l-52.82 -21.56z"/>
   </g>
   <g>
    <path class="fil11" d="M6087.25 10329.39l0 37.9 0 0 -3.22 0.05 -3.22 0.15 -3.18 0.23 -3.17 0.34 -3.14 0.42 -3.12 0.53 -3.12 0.61 -3.06 0.7 -3.05 0.8 -3.01 0.88 -3.02 0.98 -2.96 1.05 -2.89 1.14 -2.89 1.23 -2.86 1.32 -2.8 1.39 -2.76 1.48 -2.71 1.55 -2.67 1.64 -2.63 1.72 -2.57 1.79 -2.51 1.87 -2.47 1.95 -2.42 2.04 -2.36 2.09 -2.26 2.15 -2.24 2.26 -2.17 2.31 -2.09 2.38 -2.05 2.48 -1.97 2.52 -1.89 2.59 -31.1 -21.86 2.59 -3.53 2.67 -3.42 2.75 -3.32 2.87 -3.26 2.95 -3.15 3.02 -3.04 3.14 -2.97 3.2 -2.85 3.26 -2.74 3.35 -2.65 3.43 -2.55 3.51 -2.45 3.55 -2.32 3.63 -2.24 3.69 -2.11 3.76 -2.02 3.82 -1.89 3.86 -1.78 3.91 -1.67 3.99 -1.56 4.02 -1.43 4.04 -1.32 4.11 -1.2 4.15 -1.08 4.2 -0.96 4.2 -0.83 4.26 -0.71 4.28 -0.58 4.31 -0.46 4.34 -0.33 4.34 -0.19 4.38 -0.07 0 0zm143.91 143.32l-38.06 0 0 0 -0.13 -5.45 -0.41 -5.35 -0.68 -5.27 -0.93 -5.21 -1.18 -5.09 -1.42 -4.98 -1.67 -4.9 -1.89 -4.79 -2.11 -4.65 -2.34 -4.54 -2.55 -4.42 -2.75 -4.28 -2.95 -4.13 -3.16 -3.99 -3.32 -3.82 -3.52 -3.67 -3.68 -3.5 -3.83 -3.31 -4 -3.13 -4.17 -2.95 -4.28 -2.75 -4.42 -2.52 -4.58 -2.34 -4.67 -2.1 -4.81 -1.88 -4.91 -1.66 -5.01 -1.42 -5.13 -1.18 -5.21 -0.93 -5.29 -0.67 -5.38 -0.4 -5.47 -0.14 0 -37.9 7.39 0.18 7.3 0.56 7.21 0.91 7.09 1.27 6.95 1.6 6.85 1.92 6.69 2.26 6.53 2.56 6.39 2.88 6.2 3.16 6.04 3.46 5.84 3.73 5.63 3.99 5.44 4.25 5.23 4.51 4.98 4.74 4.76 4.97 4.52 5.2 4.26 5.41 4.01 5.61 3.75 5.82 3.47 6 3.18 6.18 2.89 6.37 2.57 6.51 2.27 6.66 1.94 6.82 1.6 6.93 1.27 7.05 0.92 7.17 0.55 7.29 0.19 7.35 0 0zm-143.91 143.33l0 -37.9 0 0 5.47 -0.14 5.38 -0.4 5.29 -0.67 5.21 -0.93 5.13 -1.18 5.01 -1.42 4.91 -1.66 4.8 -1.87 4.68 -2.12 4.58 -2.33 4.42 -2.53 4.29 -2.74 4.16 -2.95 4 -3.13 3.83 -3.31 3.68 -3.5 3.52 -3.67 3.32 -3.82 3.15 -3.99 2.95 -4.13 2.77 -4.3 2.54 -4.4 2.34 -4.54 2.11 -4.66 1.89 -4.8 1.67 -4.88 1.42 -4.99 1.18 -5.09 0.93 -5.21 0.68 -5.27 0.41 -5.35 0.13 -5.45 38.06 0 -0.19 7.35 -0.55 7.29 -0.92 7.17 -1.27 7.05 -1.6 6.93 -1.94 6.83 -2.27 6.66 -2.57 6.5 -2.89 6.36 -3.18 6.2 -3.48 6 -3.73 5.8 -4.01 5.63 -4.27 5.41 -4.52 5.2 -4.76 4.97 -4.98 4.74 -5.23 4.51 -5.44 4.25 -5.64 3.99 -5.83 3.72 -6.04 3.47 -6.2 3.15 -6.38 2.88 -6.54 2.57 -6.69 2.26 -6.85 1.92 -6.95 1.6 -7.09 1.27 -7.21 0.91 -7.3 0.56 -7.39 0.18 0 0zm-85.37 -27.96l22.58 -30.5 1.72 1.23 1.74 1.2 1.77 1.17 1.75 1.11 1.79 1.08 1.87 1.08 1.83 1.01 1.82 0.96 1.89 0.94 1.9 0.9 1.9 0.87 1.94 0.82 1.92 0.79 1.96 0.75 1.97 0.71 1.96 0.66 2 0.63 2.02 0.6 2.04 0.55 2.03 0.52 2.03 0.47 2.02 0.43 2.08 0.39 2.05 0.36 2.06 0.3 2.11 0.28 2.08 0.22 2.13 0.19 2.09 0.16 2.1 0.1 2.1 0.06 2.12 0.02 0 37.9 -2.88 -0.02 -2.88 -0.1 -2.86 -0.14 -2.87 -0.2 -2.83 -0.25 -2.84 -0.32 -2.81 -0.36 -2.84 -0.42 -2.83 -0.48 -2.78 -0.53 -2.8 -0.59 -2.79 -0.65 -2.75 -0.7 -2.72 -0.75 -2.72 -0.8 -2.7 -0.85 -2.72 -0.92 -2.67 -0.97 -2.66 -1.01 -2.64 -1.07 -2.6 -1.12 -2.6 -1.17 -2.56 -1.22 -2.55 -1.28 -2.56 -1.34 -2.49 -1.39 -2.43 -1.4 -2.47 -1.48 -2.45 -1.55 -2.37 -1.57 -2.36 -1.62 -2.34 -1.69z"/>
   </g>
   <rect class="fil12" x="11855.37" y="18051.76" width="1709.81" height="287.52"/>
   <polygon class="fil13" points="14331.02,17794.75 14144.1,18043.57 14425.39,18360.59 14884.32,18264.74 15008.28,18106.23 15000.9,17831.61 "/>
   <rect class="fil14" x="11640.73" y="16474.1" width="2079.91" height="361.21"/>
   <path class="fil15" d="M14912.7 16190.72c-545.61,238.99 -361.26,908.93 -470.99,1192.48l-81.76 211.25c-99.48,179.68 -103.17,218.84 0.94,316.12 166.82,155.87 410.83,24.03 598.07,2.65 140.47,-16.03 139,-129.26 140.63,-202.86l226.6 -942.73c48.21,-200.52 520,-718.61 277.98,-1168.74 -122.01,-226.94 -1108.57,-381.26 -1951.76,-326.98l-5.8 8c-244.81,20.8 -475.62,38.16 -621.74,117.94 -396.57,278.54 -1016.81,277.09 -1611.34,-39.9 -103.71,429.76 61.46,802.65 507.87,1116.16l1799.25 0c364.95,-76.38 818.7,-203.88 1183.68,-329.45l8.37 46.06z"/>
   <polygon class="fil14" points="11803.57,16835.33 11533.42,18641.51 11823.4,18647.44 12117.63,16813.6 "/>
   <polygon class="fil14" points="13276.54,16835.33 13574.44,18624.03 13849.13,18627.78 13538.27,16792.06 "/>
   <path class="fil16" d="M13485.88 12208.4c-1695.8,812.53 -1269.08,1568.08 -2207.81,3071.51 634.07,393.18 1319.99,417.72 1746.8,117.94 146.12,-79.78 376.93,-97.14 621.74,-117.94l651.37 -899.39c-339.14,-294.65 -556.12,-1271.26 477.77,-1576.97l-1031.49 -521.41c-134.17,-69.88 -13.21,-191.21 -258.38,-73.74z"/>
   <path class="fil17" d="M14058.96 18190.13c-37.68,265.7 36.37,456.77 410.81,479.18l492.21 29.49c0,0 296.11,125.31 488.53,103.2 59.26,-6.82 473.29,-92.04 507.02,-215.64 -1.59,-397.83 -199.47,-300.76 -455.21,-342.8 -164.07,-26.97 -237.45,-86.62 -307.41,-147.45 -155.34,-135.15 -134.98,-97.43 -316.3,-2.14 -222.14,116.71 -505.52,252.95 -612.38,81.41 -104.21,-292.27 -172.2,-277.79 -207.27,14.75z"/>
   <path class="fil14" d="M14469.77 18669.31c-197.08,-11.8 -310.92,-70.31 -369.09,-161.83l-9.58 126.25c107.45,110.49 272.52,163.57 488.54,165.88l3.69 -62.65 212.21 0.64c427.97,209.67 832.8,191.88 1100.58,-81.04 -125.78,84.77 -398.39,140 -445.61,145.44 -192.42,22.11 -488.53,-103.2 -488.53,-103.2l-492.21 -29.49z"/>
   <ellipse class="fil18" cx="17060.3" cy="16204.2" rx="1212.62" ry="333.72"/>
   <ellipse class="fil18" cx="17039.86" cy="16174.13" rx="1121.97" ry="253.3"/>
   <path class="fil19" d="M17123.48 16160.28c392.95,0 733.75,54.74 902.41,134.81 86.67,-35.93 135.93,-77.15 135.93,-120.95 0,-139.91 -502.29,-253.3 -1121.95,-253.3 -619.68,0 -1121.98,113.39 -1121.98,253.3 0,59.29 90.26,113.84 241.43,156.99 133.43,-99.23 514.66,-170.85 964.16,-170.85z"/>
   <path class="fil20" d="M18025.89 16295.09c-168.66,-80.07 -509.46,-134.81 -902.41,-134.81 -449.5,0 -830.73,71.62 -964.16,170.85 205.5,58.67 523.54,96.3 880.55,96.3 425.62,0 795.88,-53.5 986.02,-132.34z"/>
   <path class="fil1" d="M15493.99 11824.07l-4.22 -4.7 138.19 -473.38c15.91,-54.5 18.49,-43.13 -20.21,-87.73 -263.16,-303.55 -609.2,-282.2 -897.91,-415.05 -79.89,-36.73 -62.86,-59.94 -116.42,3.72l-202.81 268.11c172.31,63.31 931.17,558.08 1103.38,709.03z"/>
   <path class="fil21" d="M14884.36 11956.21c113.81,-283.27 -19.22,-424.41 -255.35,-143.77 -49.35,99.52 -98.7,199.05 -148.05,298.58 -72.71,208.16 -257.26,119.27 -449.28,10.56l-287.42 160.56 1025.74 518.51c-70.43,-56.63 -140.86,-113.25 -211.31,-169.89 108.56,-224.84 217.11,-449.71 325.67,-674.55z"/>
   <path class="fil22" d="M15058.3 11746.1c-83.88,211.34 -171.48,323.14 -255.36,534.48 -27.81,95.42 -9.15,258.41 81.42,265.39 121.1,-59.76 223.94,-50 305.58,40.12l174 -51.63 27.33 -398.86 106.26 -79.95c0,0 -728.96,-580 -1055.06,-660.24l-168.43 0c291.72,84.41 471.5,159.11 784.26,350.69z"/>
   <path class="fil23" d="M14112.79 11298.4c778.78,288.88 1141.96,532.32 1854.9,1146.23 29.05,17.46 76.38,-16.71 43.91,-50.06l-488 -544.53c-353.82,-310.12 -727.68,-551.39 -1209.75,-770.51 -282.37,-95.18 -715.6,-114.01 -689.26,-23.04 9.02,31.2 268.2,142.85 488.2,241.91z"/>
   <path class="fil24" d="M18040.56 18386.86c-242.68,97.63 -590.84,159.24 -977.33,159.24 -122.2,0 -244.38,-8.11 -362.11,-22.44 -245.07,-29.84 -470.81,-86.67 -637.15,-153.61l14.97 151.5c9.03,88.92 9.08,105.64 71.39,140.26 104.42,57.98 249.13,97.19 412.53,121.11 2.92,0.42 5.85,0.85 8.8,1.27 295.62,42.12 650.65,34.86 938.61,-1.27 190.12,-23.86 351,-60.29 446.26,-103.39 61.09,-27.61 55.81,-23.52 61.9,-84.8l22.13 -207.87z"/>
   <path class="fil25" d="M18086.9 17951.58l104.99 -986.28c-240.82,89 -578.81,149.55 -959.39,163.24 -54.08,1.95 -109.02,2.94 -164.66,2.94 -219.13,0 -438.2,-20.38 -637.19,-53.68 -194.38,-32.53 -369.59,-77.38 -506.96,-127.59l96.42 975.85c151.08,828.92 1697.76,848.86 2066.79,25.52z"/>
   <path class="fil26" d="M16595.09 16859.39c158.39,21.2 402.47,36.19 545.98,36.19 143.51,0 364.62,-32.99 476.94,-44.01 314.71,-30.92 536.11,-98.85 619.99,-319.41 9.54,-94.53 28.78,-195.48 32.81,-308.07 -101.62,146.22 -315.58,236.14 -720.18,285.42 -149.93,18.27 -315.81,28.41 -490.31,28.41 -131.24,0 -257.6,-5.74 -375.97,-16.35 -450.46,-40.39 -808.16,-162.89 -836.67,-317.36 11.44,90.94 23.79,207.22 31.94,299.67 74.55,225.84 428.28,317.06 715.47,355.51z"/>
   <path class="fil27" d="M18161.82 16174.14c0,139.92 -502.29,253.29 -1121.95,253.29 -619.68,0 -1121.98,-113.37 -1121.98,-253.29 0,-139.89 502.32,-253.3 1121.98,-253.3 619.66,0 1121.95,113.41 1121.95,253.3zm-1101.5 363.78c645.42,0 1173.12,-138.78 1210.47,-313.83l2.13 -19.88c0,-184.32 -542.92,-333.73 -1212.6,-333.73 -669.72,0 -1212.64,149.41 -1212.64,333.73 0,10.75 1.84,21.38 5.46,31.85 58.26,169.37 576.49,301.86 1207.18,301.86z"/>
   <path class="fil21" d="M15616.9 15572.62l415.89 239.49c453.87,271.35 697.35,88.47 758.75,-334.29 45.69,-314.48 -118.34,-401.19 -238.35,-232.45 -171.99,96.69 -185.31,-58.02 -245.42,-179.9 -30.19,-61.2 -148.01,141.26 -190.19,224.65 -52.36,103.53 -283.82,23.02 -381.33,23l-119.35 259.5z"/>
   <path class="fil28" d="M15876.98 16476.78c-32.7,135.97 -11.04,359.2 43.62,473.55 275.61,108.11 698.28,218.16 1150.96,218.16 452.68,0 842.94,-98.93 1118.19,-202.71 55.48,-117.54 76.25,-329.72 49.96,-449.68 -139.84,392.68 -2300.61,371.2 -2362.73,-39.32z"/>
   <path class="fil29" d="M16571.86 16768.2c-363.06,-44 -651.87,-136.43 -691.59,-276.23 -0.55,0.2 -1.1,0.42 -1.65,0.62 -1.87,0.7 -3.72,1.41 -5.54,2.11 -4.54,23.1 -7.68,48.25 -9.52,74.65 38.88,39.98 90.57,75.2 152.44,105.97 137.16,68.21 324.41,114.54 533.29,142.37 169.43,22.55 353.1,32.94 535.83,32.94 102.02,0 200.19,-2.13 293.9,-7.2 324.7,-17.56 595.92,-70.38 788.78,-191.93 29.07,-18.32 56.37,-38.21 81.79,-59.77 -1.71,-27.62 -4.98,-53.23 -9.89,-75.64 -54.12,152.01 -411.07,241.96 -831.89,271.31 -273.53,19.07 -574.06,12.53 -835.95,-19.2z"/>
   <path class="fil30" d="M14744.71 12787.86c-1033.4,305.87 -803.78,1309.4 -464.68,1604.01l-6.71 9.27 103.66 129.06c82.34,102.54 46.26,208.88 69.36,313.34 34.4,155.45 314.06,402.69 1139.88,766.69l288.66 -353.86c-494.84,-415.89 -804.92,-970.29 -903.26,-1757.14 -23.74,-190.02 30.13,-412.32 -66.29,-609.26 -49.3,-24.99 -111.29,-77.12 -160.62,-102.11z"/>
   <g>
    <path class="fil31" d="M16016.49 17907.41c-28.55,135.97 -9.64,359.21 38.09,473.55 240.66,108.11 606.49,181.16 1001.78,181.16 395.28,0 739.31,-61.92 979.66,-165.71 48.44,-117.53 66.58,-329.72 43.62,-449.68 -122.1,392.69 -2008.9,371.2 -2063.15,-39.32z"/>
    <path class="fil32" d="M16623.26 18198.83c-317.02,-44 -569.22,-136.43 -603.9,-276.23 -0.48,0.2 -0.96,0.42 -1.44,0.62 -1.63,0.7 -3.25,1.41 -4.84,2.11 -3.96,23.1 -6.7,48.26 -8.31,74.65 33.96,39.98 79.09,75.2 133.12,105.97 119.77,68.21 283.27,114.54 465.67,142.37 147.94,22.55 308.33,32.94 467.89,32.94 89.08,0 174.8,-2.13 256.63,-7.2 283.53,-17.56 520.36,-70.38 688.77,-191.92 25.38,-18.33 49.22,-38.22 71.42,-59.78 -1.49,-27.62 -4.35,-53.23 -8.64,-75.64 -47.26,152.01 -358.94,241.96 -726.41,271.31 -238.85,19.07 -501.27,12.54 -729.96,-19.2z"/>
   </g>
   <path class="fil33" d="M14031.68 12121.58c192.02,108.71 376.57,197.6 449.28,-10.56 49.35,-99.53 98.7,-199.06 148.05,-298.58 236.13,-280.64 369.16,-139.5 255.35,143.77 -108.56,224.84 -217.11,449.71 -325.67,674.55 142.43,114.5 284.83,228.99 427.26,343.49 25.71,-23.16 173.49,-60.87 134.95,-170.5 -40.47,-115.1 -181.53,-28.37 -182.76,-94.93 -2.46,-133.52 308.49,29.42 251.8,-122.73 -81.64,-90.12 -184.48,-99.88 -305.58,-40.12 -90.57,-6.98 -109.23,-169.97 -81.42,-265.39 83.88,-211.34 171.48,-323.14 255.36,-534.48 -315.56,-193.3 -517.34,-326.64 -813.13,-411.83 -117.95,295.88 -468.53,644.97 -213.49,787.31z"/>
   <path class="fil6" d="M17000.36 16209.2c95.85,69.24 359.36,-35.8 344.96,76.82 -9.2,72.05 -179.96,50.56 -234.47,50.56 72.27,0 271.33,68.91 271.33,-44.43 0,-124.66 -89.74,-88.85 -223.01,-88.85 -22.24,0 -153.32,9.88 -158.81,5.9z"/>
   <path class="fil6" d="M16992.92 16379.55c-50.02,-36.13 -187.52,18.68 -180.01,-40.09 4.8,-37.59 93.9,-26.38 122.35,-26.38 -37.71,0 -141.58,-35.96 -141.58,23.18 0,65.05 46.82,46.36 116.36,46.36 11.61,0 80.01,-5.15 82.88,-3.07z"/>
  </g>
 </g>
</svg>
