<?xml version="1.0" encoding="UTF-8"?>
<!DOCTYPE svg PUBLIC "-//W3C//DTD SVG 1.1//EN" "http://www.w3.org/Graphics/SVG/1.1/DTD/svg11.dtd">
<!-- Creator: CorelDRAW 2018 (64 Bit) -->
<svg xmlns="http://www.w3.org/2000/svg" xml:space="preserve" width="297mm" height="210mm" version="1.1" style="shape-rendering:geometricPrecision; text-rendering:geometricPrecision; image-rendering:optimizeQuality; fill-rule:evenodd; clip-rule:evenodd"
viewBox="0 0 29700 21000"
 xmlns:xlink="http://www.w3.org/1999/xlink">
 <defs>
  <style type="text/css">
   <![CDATA[
    .str13 {stroke:#373435;stroke-width:76.12;stroke-miterlimit:22.9256}
    .str7 {stroke:#2C2221;stroke-width:22.48;stroke-miterlimit:22.9256}
    .str1 {stroke:#2C2221;stroke-width:22.48;stroke-miterlimit:22.9256}
    .str0 {stroke:#2C2221;stroke-width:22.48;stroke-miterlimit:22.9256}
    .str6 {stroke:#A4A4A2;stroke-width:22.48;stroke-miterlimit:22.9256}
    .str14 {stroke:#A4A4A2;stroke-width:22.48;stroke-miterlimit:22.9256}
    .str5 {stroke:#2C2221;stroke-width:22.48;stroke-miterlimit:22.9256}
    .str9 {stroke:#A4A4A2;stroke-width:22.48;stroke-miterlimit:22.9256}
    .str2 {stroke:#A4A4A2;stroke-width:22.48;stroke-miterlimit:22.9256}
    .str11 {stroke:#373435;stroke-width:38.05;stroke-miterlimit:22.9256}
    .str12 {stroke:#A4A4A2;stroke-width:38.05;stroke-miterlimit:22.9256}
    .str10 {stroke:#373435;stroke-width:38.05;stroke-miterlimit:22.9256}
    .str8 {stroke:#2C2221;stroke-width:38.05;stroke-miterlimit:22.9256}
    .str15 {stroke:#373435;stroke-width:38.05;stroke-miterlimit:22.9256}
    .str4 {stroke:#2C2221;stroke-width:57.08;stroke-linecap:round;stroke-linejoin:round;stroke-miterlimit:22.9256}
    .str3 {stroke:#2C2221;stroke-width:57.08;stroke-linecap:round;stroke-linejoin:round;stroke-miterlimit:22.9256}
    .fil7 {fill:none}
    .fil4 {fill:#373435}
    .fil8 {fill:#509B58}
    .fil18 {fill:#53D97A}
    .fil13 {fill:#672B2A}
    .fil12 {fill:#672B2A}
    .fil2 {fill:#8A4B39}
    .fil1 {fill:#996633}
    .fil14 {fill:#9C3D41}
    .fil17 {fill:#9C3D41}
    .fil3 {fill:#A4A4A2}
    .fil10 {fill:#BD7C9E}
    .fil9 {fill:#E2DBD1}
    .fil6 {fill:#E2DCD0}
    .fil0 {fill:red}
    .fil5 {fill:#FF9999}
    .fil11 {fill:#FFA4A5}
    .fil15 {fill:#FFA4A5}
    .fil16 {fill:white}
   ]]>
  </style>
 </defs>
 <g id="Camada_x0020_1">
  <metadata id="CorelCorpID_0Corel-Layer"/>
  <g id="_2728625440176">
   <path class="fil0" d="M21888.52 8603.71c1896.08,959.24 3196.13,2925.55 3196.13,5195.71 0,2041.18 -1051.12,3836.61 -2641.37,4875.35l-6356.21 0c-133.5,-87.2 -263.21,-179.72 -388.8,-277.29 -44.38,93.84 -91.22,186.29 -140.38,277.29l-10246.54 0c-443.9,-821.75 -696,-1762.31 -696,-2761.83 0,-3213.97 2605.44,-5819.42 5819.41,-5819.42 92.11,0 183.64,2.41 274.7,6.63 -270.91,-671.86 -420.22,-1405.8 -420.22,-2174.7 0,-3213.98 2605.44,-5819.42 5819.42,-5819.42 3213.98,0 5819.42,2605.44 5819.42,5819.42 0,229.48 -13.73,455.72 -39.56,678.26z"/>
   <rect class="fil1" x="5022.29" y="18487.6" width="18256.15" height="406.36" rx="637.83" ry="247.24"/>
   <path class="fil2" d="M19908.9 13833.49c-190.1,1365.38 623.29,1331.04 616.62,2527.68 235.75,-1057.21 348.98,-1519.01 -616.62,-2527.68z"/>
   <polygon class="fil3" points="16150.98,17966.02 17043,17966.02 17063.08,17929.48 17138.29,17929.48 17132.5,17532.03 18450.25,14957.56 16133.64,12846.81 15717.36,15403.94 17283.36,15473.32 "/>
   <path class="fil2" d="M7688.9 8470.69l210.32 -250.76c-420.01,-441.93 -870.69,-734.84 -1260.92,-661.08 -3.68,629.49 423.22,979.45 1050.6,911.84z"/>
   <path class="fil4" d="M7833.69 8267.16c138.29,162.57 340.04,21.53 265.86,-162.25 -14.21,-35.21 -110.66,-152.88 -186.68,-293.58 -103.23,-191.08 -191.87,-412.13 -199.87,-410.12 -72.64,18.34 -35.86,681.92 120.69,865.95z"/>
   <g>
    <path class="fil5" d="M16552.12 14216.99c291.23,-166.3 214.33,-769.52 1117.66,-434.65 128.66,250.69 267.81,461.21 413.63,661.92 145.82,200.73 369.75,345.42 525.19,557.12l-477.23 149.79c-752.94,129.28 -1327.58,-97.24 -1571.48,-718.46 -21.58,-54.96 -55.15,-188.68 -7.77,-215.72z"/>
    <path class="fil5" d="M16986.55 15345.83c96.75,0 176.3,-116.15 185.69,-264.93 -123.93,-52.14 -234.61,-123.89 -330.29,-215.69 -24.8,47.91 -40.23,108.4 -41.86,174.47 2.43,3.13 3.72,7.83 3.72,14.25 0,17.66 -0.31,35.68 -0.48,53.71 16.65,135.71 92.36,238.19 183.22,238.19z"/>
    <path class="fil5" d="M17376.12 15216.3c0,124.17 60.56,224.82 135.28,224.82 74.71,0 135.28,-100.65 135.28,-224.82 0,-11.09 -0.48,-22.01 -1.42,-32.7 -91.8,-4.86 -179.53,-16.72 -262.76,-35.66 -4.14,21.56 -6.38,44.52 -6.38,68.36z"/>
    <path class="fil5" d="M17897.58 15249.94c0,114.28 59.7,206.92 133.28,206.92 73.61,0 133.31,-92.64 133.31,-206.92 0,-37.37 -6.38,-72.4 -17.54,-102.67l-15.26 3.9c-77.24,13.26 -152.58,22.78 -225.9,28.51 -5.1,21.95 -7.89,45.6 -7.89,70.26z"/>
   </g>
   <path class="fil3" d="M12327.76 17926.5l718.58 0 9.91 -113.98 188.31 14.87c-850.74,-821 -315.38,-2122.49 -482.23,-3191.27l-1068.92 341.72c72.7,963.06 829.25,1618.87 634.35,2948.66z"/>
   <path class="fil6" d="M6164.32 10865.15c-251.11,-89.58 -459.33,-617.35 -235.08,-742.04 958.6,-533.02 1080.82,-685.64 1630.11,-1629.26 498.07,-819.89 765.62,-653.64 1635.37,-455.92 249.98,-293.89 585.88,-452.72 1020.86,-455.9 2.4,370.34 -171.82,640.73 -460.16,859.08 341.87,389.66 861.64,571.67 1401.75,597.85 1116.68,-383.24 2223.95,742.4 3340.63,1112.42 316.74,91.63 668.02,181.87 950.23,7.25 913.89,-565.47 2483.24,-1125.8 3018.75,-247.46 1686.12,46.92 1004.95,3035.79 1600.8,4222.15 -586.3,-257.15 -171.93,-3011.3 -1283.14,-3730.71 266.99,1634.25 -365.15,2552.53 76.9,3440.65 308.1,619.04 572.16,843.08 695.79,1182.05 251.42,689.3 -472.84,2063.81 188.32,3003.13l-996.08 -34.7c51.13,-1346.27 -194.12,-2088.46 -221.9,-2508.12 -10.43,-157.47 -128.35,-309.02 -225.57,-421.33 -331.9,-383.48 -917.42,-858.42 -1321.72,-1268 -2027.7,1580.05 -3603.5,812.41 -4061.17,963.89 -457.67,151.47 -839.99,458.39 -1303.35,495.56 -28.9,673.15 -215.1,1062.08 -343.13,1685.66 15.8,319.91 151.09,658.44 259.4,965.14l-911.85 0c262.77,-821.33 9.56,-1589.92 24.01,-2380.32 8.47,-463.12 -44.15,-465.87 -372.76,-845.04 -335.97,-387.66 -387.35,-1027.27 -526.43,-1806.64 -139.08,-779.37 -192.85,-1758.94 -1020.07,-2128.9 -65.02,-29.08 -156.45,-62.81 -261.43,21.16 -127.84,102.25 -954.36,-76.67 -1374.74,95.74 -247.88,101.67 -779.06,612.86 -917.27,34.85 -1.12,-23.65 48.9,-24.31 46.53,-35.54 -0.81,-3.81 -52.81,7.21 -53.6,3.3z"/>
   <path class="fil2" d="M8859.91 7958.74c101.16,23.98 211.98,51.27 334.81,79.19 249.98,-293.89 585.88,-452.72 1020.86,-455.9 2.4,370.34 -171.82,640.73 -460.16,859.08 341.87,389.66 861.64,571.67 1401.75,597.85 455.19,-156.22 910.36,-62.08 1365.55,129.29 13.5,128.42 18.34,305.63 18.34,565.7 0,280.78 -82.37,468.66 -143.64,608.92 -54.82,125.52 -68.05,423.56 -5,497.89 213.45,251.68 246.74,510.15 184.76,682.94 -44.48,124.01 -89.26,350.48 -26.05,536.16 196.59,577.45 61,931.87 -196.81,936.77 -383.78,7.31 -533.54,287.62 -533.24,424.62 0.6,267.99 -409.3,262.93 -489.24,127.87 -209.64,-354.13 42.18,-528.65 -304.08,-612.41 -99.21,-23.99 -311.99,-12.45 -498.69,104.38 -263.68,165.01 -940.27,-291.19 -658.97,-649.05 88.23,-112.25 -58.31,-390.38 206.11,-685.22 59.12,-65.91 51.81,-272.3 17.36,-361.75 -117.37,-304.85 -552.34,-716.03 -819.99,-757.04 -582.11,-89.19 -578.51,-106.9 -665.75,-604.44 -35.91,-204.89 -312.06,-188.96 -404.74,-141.93 -160.55,81.48 -284.08,250.55 -350.71,398.02 -70.54,156.14 -310.7,224.89 -351.82,29.82 -14.78,-70.08 58.89,-245.14 -53.7,-293.62 -98.03,-42.2 -356.16,-51.37 -260.42,-431.51 16.6,-65.91 288.11,-465.89 839.46,-690.13 162.89,-66.24 326.26,-254.4 390.75,-412.1 208.06,-508.76 424.95,-480.14 443.26,-483.4z"/>
   <path class="fil2" d="M18849.67 11433.74c-33.88,1026.75 -327.04,1726.08 10.59,2407.27 -7.47,45.12 -19.47,75.93 -38.69,86.53 -356.64,196.65 -227.55,-437.4 -550.08,-669.01 -105.62,-75.85 -382.04,-153.96 -391.5,-376.65 -18.3,-430.7 134.67,-239.72 164.4,-593.84 14.23,-169.47 -145.66,-482.92 -51.97,-636.71 160.27,-263.15 201.94,-260.2 652.15,-260.2 98.93,0 163.45,11.13 205.1,42.61z"/>
   <path class="fil2" d="M10739.73 16784.21c-26.73,-415.27 -103.61,-822.49 -95.64,-1257.99 6.66,-364.18 -24.49,-443.72 -197.86,-645.42 -0.47,-0.78 -0.95,-1.35 -1.44,-1.68l-0.02 -0.01c-15.5,-18.02 -32.09,-36.97 -49.93,-57.22 -23.69,-53.09 1.21,-109.26 84.27,-102.99 56.97,4.29 63.33,-59.56 178.42,81.77 72.64,89.22 228.89,13.32 179.26,426.19 -35.22,292.99 426.57,562.67 148.67,916.8 -37.12,47.3 -37.43,621.66 -245.73,640.55z"/>
   <path class="fil2" d="M14303.08 10642.7c-244.42,-203.22 -853.61,-312.32 -510.57,495.71 107.16,252.42 -98.47,493.51 -182.82,634.66 -170.36,285.05 -433.54,486.38 -8.12,940.59 102.81,109.75 205.9,333.4 241.93,465.85 48.85,179.54 67.19,410.09 511.65,431.69 157.05,7.63 379.61,-35.41 653.34,-47.91 1350.96,-61.73 402.49,142.53 964.51,-378.47 472.74,-438.24 83.95,-1542.17 66.26,-2069.49 -0.11,-3.47 -375.65,-660.07 -480.83,-718.72 -350.9,-195.7 -1033.05,430.92 -1255.35,246.09zm317.03 514.57c186.61,0 337.89,151.27 337.89,337.88 0,186.61 -151.28,337.89 -337.89,337.89 -186.61,0 -337.88,-151.28 -337.88,-337.89 0,-186.61 151.27,-337.88 337.88,-337.88z"/>
   <g>
    <polygon class="fil7 str0" points="10004.79,18421.82 11213.97,18421.82 11213.97,17975.8 10505.31,17975.8 "/>
    <polygon id="1" class="fil4" points="10004.79,18421.82 11213.97,18421.82 11213.97,17975.8 10505.31,17975.8 "/>
   </g>
   <polygon class="fil4" points="15608.97,18518.4 16818.15,18518.4 17060.98,18027.78 16159.05,18030.26 "/>
   <polygon class="fil4" points="18225.57,18558.04 19434.75,18558.04 19677.58,18067.42 18775.65,18069.91 "/>
   <g>
    <polygon class="fil7 str1" points="11761.1,18421.82 12970.28,18421.82 12970.28,17975.8 12261.62,17975.8 "/>
    <polygon id="1" class="fil4" points="11761.1,18421.82 12970.28,18421.82 12970.28,17975.8 12261.62,17975.8 "/>
   </g>
   <path class="fil8" d="M7117.18 16857.98l678.94 505.48c51.73,-619.77 229.04,-916.61 465.83,-1060.51 -85.89,707.01 -171.8,1414.03 -257.69,2121.03 -175.1,0 -345.26,0 -520.36,0 -28.87,-682.04 -152.81,-1201.14 -366.72,-1566z"/>
   <path class="fil9" d="M8518.13 6308.49l2433.24 0c-189.97,-142.07 -556.06,-249.71 -996.51,-212.65 -104.44,8.78 -216.18,16.8 -282.95,-48.63 -411.16,-402.91 -937.87,-191.59 -1153.78,261.28z"/>
   <path class="fil9" d="M13743.39 4792.25l3077.49 9.78c86.71,0.27 -270.18,-249.61 -624.41,-188.32 -106.87,18.5 -240.34,75.22 -297.78,-16.43 -538.35,-858.91 -909.81,-407.04 -1415.18,-78.87 -83.19,54.04 -165.59,120.27 -250.36,101.7 -278.7,-61.07 -647.85,171.63 -489.76,172.14z"/>
   <path class="fil9" d="M20660.53 7022.36l-1133.43 0c82.27,-42.9 132.45,-69.25 332.4,-67.8 59.03,0.41 113.18,-57.46 150.8,-94.3 231.69,-227.06 573.15,-78.25 650.23,162.1z"/>
   <path class="fil4" d="M8483.56 8395.06c138.3,162.57 340.04,21.53 265.86,-162.25 -14.2,-35.21 -110.66,-152.88 -186.67,-293.58 -103.24,-191.08 -191.87,-412.13 -199.87,-410.12 -72.65,18.34 -35.86,681.92 120.68,865.95z"/>
   <path class="fil10" d="M6459.72 9810.32c-144.58,94.01 -316.74,193.96 -530.48,312.79 -214.8,119.44 -41.11,633.15 235.08,742.04 306.34,-1.89 546.49,-292.27 546.49,-546.13 0,-253.85 -113.8,-403.62 -251.09,-508.7z"/>
   <g>
    <path class="fil7 str2" d="M16116.49 14363.84c-6.65,240.02 -5.07,496 12.31,776.79 9.06,146.2 -1.02,311.52 -19.23,479.76 219.17,49.77 438.36,61.36 657.52,29.13l-220.86 -1534.85 -171.96 -1195.14 -27.84 -193.5c-39.07,-241.31 -143.64,-245.41 -143.73,-16.94 -0.02,18.01 -0.09,35.96 -0.25,53.89 -4.47,524.64 -69.73,1015.29 -85.96,1600.86z"/>
    <path id="1" class="fil6" d="M16116.49 14363.84c-6.65,240.02 -5.07,496 12.31,776.79 9.06,146.2 -1.02,311.52 -19.23,479.76 219.17,49.77 438.36,61.36 657.52,29.13l-220.86 -1534.85 -171.96 -1195.14 -27.84 -193.5c-39.07,-241.31 -143.64,-245.41 -143.73,-16.94 -0.02,18.01 -0.09,35.96 -0.25,53.89 -4.47,524.64 -69.73,1015.29 -85.96,1600.86z"/>
   </g>
   <g>
    <path class="fil7 str3" d="M6199.78 10894.93c302.13,-65.17 478.63,-235.37 523.69,-493.64"/>
   </g>
   <g>
    <path class="fil7 str4" d="M7785.58 9345.36c17.66,196.98 367.19,260.87 451.9,54.13"/>
   </g>
   <rect class="fil11" x="15477.49" y="17901.72" width="384.04" height="372.61"/>
   <rect class="fil11" x="17178.45" y="17864.55" width="384.04" height="372.61"/>
   <g>
    <path class="fil7 str5" d="M15320.16 11542.63l1486.71 -59.46 808.54 3914.44 43.83 2527.9 -577.94 3.97 -722.92 -5024.17c-33.98,-209.91 -124.96,-213.48 -125.03,-14.73 -0.25,662.18 -117.57,1254.73 -64.29,2115.27 21.17,341.85 -77.82,804.04 -111.75,1111.95 -97.75,887.08 -149.05,1449.96 -68.14,1837.42 -0.9,128.73 -76.93,-32.94 -607.28,9.91 -16.44,-268.97 -131.02,-1774.18 -131.74,-3490.38 -0.4,-979.02 190,-2066.87 70.01,-2932.12z"/>
    <path id="1" class="fil4" d="M15320.16 11542.63l1486.71 -59.46 808.54 3914.44 43.83 2527.9 -577.94 3.97 -722.92 -5024.17c-33.98,-209.91 -124.96,-213.48 -125.03,-14.73 -0.25,662.18 -117.57,1254.73 -64.29,2115.27 21.17,341.85 -77.82,804.04 -111.75,1111.95 -97.75,887.08 -149.05,1449.96 -68.14,1837.42 -0.9,128.73 -76.93,-32.94 -607.28,9.91 -16.44,-268.97 -131.02,-1774.18 -131.74,-3490.38 -0.4,-979.02 190,-2066.87 70.01,-2932.12z"/>
   </g>
   <path class="fil12" d="M14994.73 18474.71l448.49 -401.27 137.01 0c10.6,44.7 50.21,104.27 98.17,108.59l243.87 0 -6.05 577.95 -267.61 0 0 -99.12c-66.08,0 -132.15,0 -198.23,0 0,36.34 0,72.68 0,99.12l-703.71 0c-286.64,-153.96 63.39,-228.38 248.06,-285.27z"/>
   <path class="fil4" d="M15450.38 18686.82l-799.52 0c15.62,22.22 46.17,46.49 95.81,73.16l703.71 0c0,-20.12 0,-45.95 0,-73.16z"/>
   <polygon class="fil4" points="15648.61,18686.82 15648.61,18759.98 15916.22,18759.98 15916.98,18686.82 "/>
   <path class="fil7" d="M17195.15 18083.7l354.94 3.1c74.31,122.13 109,239.93 183.32,362.07l-4.95 322.11 -592.2 0c0,-97.45 4.95,-222.17 4.95,-319.63l53.94 -367.65z"/>
   <path class="fil4" d="M17729.48 18704.6l-592.63 0c-0.36,23.04 -0.59,45.34 -0.59,66.38l592.2 0 1.02 -66.38z"/>
   <rect class="fil4" x="17281.31" y="18297.02" width="257.21" height="60.6"/>
   <rect class="fil4" x="17278.05" y="18409.35" width="255.03" height="61.42"/>
   <path class="fil13" d="M17285.24 18412.07l238.84 0 0 57.52 -238.84 0 0 -57.52zm-147.05 83.96l597.24 1.91 0.74 -47.6c-75.01,-123.27 -110.03,-242.16 -185.03,-365.43l-358.24 -3.13 -54.44 371.07c0,13.89 -0.1,28.34 -0.27,43.18zm390.9 -196.5l0 56.27 -238.84 0 0 -56.27 238.84 0z"/>
   <path class="fil14" d="M17736.28 18494.77l-598.88 -1.91c-0.79,67.71 -3.05,143.59 -4.14,213.01l599.77 0 3.25 -211.1z"/>
   <path class="fil15" d="M15944.17 7907.91c-118.95,118.31 -308.26,63.92 -337.6,52.77 -18.27,-6.93 -34.63,-90.01 -50.64,-185.66 -1.39,-8.27 140.93,-73.05 139.56,-81.46 -1.35,-8.28 -146.45,39.73 -147.8,31.42 -9.97,-61.4 -19.98,-123.49 -30.33,-170.65 -195.85,-38.79 -79.45,-85.02 4.95,-237.89 4.13,-174.28 8.24,-348.55 12.37,-522.83 158.41,-537.39 1095.36,-478.51 1189.35,-69.38 75.06,225.1 97.95,687.35 -140.81,838.1 -58.43,83.67 -5.77,161.77 -64.19,245.44l0 562.47 -574.86 0 0 -462.33z"/>
   <path class="fil8" d="M15172.73 11548.56l1534.6 -61.4c-1.77,-1094.99 618.4,-3121.06 -12.76,-3291.8 -361.17,145.75 -693.14,244.04 -908.61,-34.03l-165.53 137.29 -447.7 3249.94z"/>
   <path class="fil15" d="M12875.19 9622.57l53.64 -257.89c-283.67,-69.86 -447.72,-238.39 -805.73,-395.14 -65.94,-28.88 -536.1,-59.95 -643.71,-1.35 -131.89,71.83 -66.55,189.89 454.45,189.29l238.93 107.01c91.84,41.12 60.48,128.96 -22.3,118.94 -682.23,-22.29 -364.71,127.63 -23.59,162.33 137.65,14.12 275.68,3.45 413.33,17.57l334.98 59.24z"/>
   <g>
    <path class="fil7 str6" d="M12782.65 9737.49c84.89,-123.97 103.94,-258.05 102.87,-395.26l1086.35 53.22c339.67,-324.57 1161.99,-1187.99 1648.56,-1096.83 -36.64,1425.4 -99.52,6929.6 -402,6977.22 -407.78,64.19 -243.09,-3835.95 -242.31,-5021.76l-716.67 -155.36 -463.12 -14.93 -1013.68 -346.3z"/>
    <path id="1" class="fil16" d="M12782.65 9737.49c84.89,-123.97 103.94,-258.05 102.87,-395.26l1086.35 53.22c339.67,-324.57 1161.99,-1187.99 1648.56,-1096.83 -36.64,1425.4 -99.52,6929.6 -402,6977.22 -407.78,64.19 -243.09,-3835.95 -242.31,-5021.76l-716.67 -155.36 -463.12 -14.93 -1013.68 -346.3z"/>
   </g>
   <path class="fil8" d="M15944.17 8168.36l-152.58 0c45.1,54.64 98.34,78.27 152.58,106.64l0 -106.64z"/>
   <path class="fil8" d="M16519.03 8168.36l0 71.47c55.47,-22.41 116.66,-49.95 174.31,-73.29l-174.31 1.82z"/>
   <path class="fil17" d="M15530.69 6962.17l3.99 -168.56c158.41,-537.39 1095.36,-478.51 1189.35,-69.38 75.06,225.1 97.95,687.35 -140.81,838.1 -57.13,81.81 -8.07,158.3 -60.48,239.88 -93.31,-60.58 -155.66,-166.98 -101.98,-271.34 93.45,-181.67 -60.84,-436.95 -172.82,-261.81 -8.18,-123.22 -164.48,-109.06 -158.96,-301.53 -129.7,1.05 -378.57,0.15 -558.29,-5.36z"/>
   <path class="fil12" d="M16119.34 7094.25l656.11 0c2.59,-138.08 -19.77,-275.13 -51.42,-370.02 -93.99,-409.13 -1030.94,-468.01 -1189.35,69.38 -1.33,56.19 -2.67,112.37 -3.99,168.56 179.72,5.51 428.59,6.41 558.29,5.36 -1.65,57.74 11.25,96.89 30.36,126.72z"/>
   <g>
    <polygon class="fil7 str7" points="14502.92,11475.17 15875.65,11475.17 15360.23,9504.47 13971.87,9395.45 "/>
    <polygon id="1" class="fil4" points="14502.92,11475.17 15875.65,11475.17 15360.23,9504.47 13971.87,9395.45 "/>
   </g>
   <path class="fil15" d="M16335.53 10790.05c-351.45,-31.95 -596.49,-207.14 -827.09,-71.95 -468.33,274.57 -199.99,550.03 45.31,437.25l192.62 -88.55 634.71 -23 -45.55 -253.75z"/>
   <g>
    <path class="fil7 str8" d="M15618.34 9218.13c78.01,0 141.24,77.66 141.24,173.45 0,95.79 -63.23,173.45 -141.24,173.45 -78,0 -141.24,-77.66 -141.24,-173.45 0,-95.79 63.24,-173.45 141.24,-173.45z"/>
    <path id="1" class="fil16" d="M15618.34 9218.13c78.01,0 141.24,77.66 141.24,173.45 0,95.79 -63.23,173.45 -141.24,173.45 -78,0 -141.24,-77.66 -141.24,-173.45 0,-95.79 63.24,-173.45 141.24,-173.45z"/>
   </g>
   <g>
    <path class="fil7 str9" d="M16696.71 8183.04c670.18,175.7 943.58,620.1 847.26,1271.55 -23.42,200.21 -54.01,399.69 -70.26,600.61 -30.68,379.22 -116.06,769.03 -48.18,1150.1 116.07,651.57 302.85,1369.51 269.86,2094.29 -23.37,513.48 29.82,863.46 66.26,1226.23 26.39,262.92 140.66,634.21 44.85,894.45 -129.86,352.76 -748.49,267.25 -902.19,-15.97 -444.36,-818.84 -278.91,-2805.05 -386.36,-4159.17l-208.04 0.91 -90.62 -594.38 235.52 -3.96 -2.81 -1685.44c7.33,-374.44 276.2,-512.92 244.71,-779.22z"/>
    <path id="1" class="fil16" d="M16696.71 8183.04c670.18,175.7 943.58,620.1 847.26,1271.55 -23.42,200.21 -54.01,399.69 -70.26,600.61 -30.68,379.22 -116.06,769.03 -48.18,1150.1 116.07,651.57 302.85,1369.51 269.86,2094.29 -23.37,513.48 29.82,863.46 66.26,1226.23 26.39,262.92 140.66,634.21 44.85,894.45 -129.86,352.76 -748.49,267.25 -902.19,-15.97 -444.36,-818.84 -278.91,-2805.05 -386.36,-4159.17l-208.04 0.91 -90.62 -594.38 235.52 -3.96 -2.81 -1685.44c7.33,-374.44 276.2,-512.92 244.71,-779.22z"/>
   </g>
   <ellipse class="fil4" cx="15627.51" cy="9343.1" rx="117.63" ry="124.97"/>
   <path class="fil18" d="M16693.34 8166.54c-177.49,71.63 -337.1,158.2 -535.64,162.2 152.37,501.8 453.56,269.23 523.11,37.51 16.51,-55.02 27.73,-137.9 12.53,-199.71z"/>
   <path class="fil18" d="M15946.89 8276.43c-57.44,-30.2 -113.92,-54.44 -160.93,-115.1l-165.53 137.29 -15.26 61.21c198.29,269.09 330.87,434.99 552.53,-31.09 -10.35,-0.43 -178.4,-35.26 -210.81,-52.31z"/>
   <g>
    <path class="fil7 str10" d="M15944.17 8150.31c-477.35,10.39 -249.16,641 -343.45,1080.41"/>
   </g>
   <g>
    <path class="fil7 str11" d="M16518.32 8146.77c181.85,-3.58 77.09,486.53 77.09,579.82"/>
   </g>
   <g>
    <path class="fil7 str12" d="M16531.11 9241.68c-27.5,2.63 -24.96,-31.93 -24.96,-53.5l0 -391.51c0,-49.06 40.13,-89.19 89.2,-89.19l0.01 0c49.06,0 89.19,40.13 89.19,89.19l0 391.51c0,21.73 0.17,53.51 -33.31,54.77"/>
   </g>
   <path class="fil4" d="M16541.96 9188.1l0 0c8.05,0 14.63,6.57 14.63,14.62l0 74.11c0,8.05 -6.58,14.62 -14.63,14.62l0 0c-8.05,0 -14.62,-6.57 -14.62,-14.62l0 -74.11c0,-8.05 6.57,-14.62 14.62,-14.62z"/>
   <path class="fil4" d="M16647.89 9191.19l0 0c8.05,0 14.63,6.57 14.63,14.62l0 74.11c0,8.05 -6.58,14.62 -14.63,14.62l0 0c-8.05,0 -14.62,-6.57 -14.62,-14.62l0 -74.11c0,-8.05 6.57,-14.62 14.62,-14.62z"/>
   <g>
    <path class="fil7 str13" d="M16506.15 8990.02l0 -193.35c0,-49.06 40.13,-89.19 89.2,-89.19l0.01 0c49.06,0 89.19,40.13 89.19,89.19l0 193.35"/>
   </g>
   <g>
    <path class="fil7 str14" d="M16454.81 10647.7c50.1,-2.48 248.67,8.49 331.16,-59.04 59.11,-48.39 -82.13,-809.29 -6.05,-951.9"/>
   </g>
   <g>
    <path class="fil7 str15" d="M6087.64 10273.27c23.4,-33.16 61.45,-52.87 102.03,-52.87 68.97,0 124.88,55.91 124.88,124.87 0,68.97 -55.91,124.88 -124.88,124.88 -26.65,0 -52.61,-8.53 -74.08,-24.35"/>
   </g>
  </g>
 </g>
</svg>
