<?xml version="1.0" encoding="UTF-8"?>
<!DOCTYPE svg PUBLIC "-//W3C//DTD SVG 1.1//EN" "http://www.w3.org/Graphics/SVG/1.1/DTD/svg11.dtd">
<!-- Creator: CorelDRAW 2018 (64 Bit) -->
<svg xmlns="http://www.w3.org/2000/svg" xml:space="preserve" width="297mm" height="210mm" version="1.1" style="shape-rendering:geometricPrecision; text-rendering:geometricPrecision; image-rendering:optimizeQuality; fill-rule:evenodd; clip-rule:evenodd"
viewBox="0 0 29700 21000"
 xmlns:xlink="http://www.w3.org/1999/xlink">
 <defs>
  <style type="text/css">
   <![CDATA[
    .str1 {stroke:#2C2221;stroke-width:5.19;stroke-miterlimit:22.9256}
    .str0 {stroke:#2C2221;stroke-width:5.19;stroke-miterlimit:22.9256}
    .str4 {stroke:#373435;stroke-width:8.78;stroke-miterlimit:22.9256}
    .str3 {stroke:#2C2221;stroke-width:13.17;stroke-linecap:round;stroke-linejoin:round;stroke-miterlimit:22.9256}
    .str2 {stroke:#2C2221;stroke-width:13.17;stroke-linecap:round;stroke-linejoin:round;stroke-miterlimit:22.9256}
    .fil8 {fill:none}
    .fil10 {fill:#33CC33}
    .fil18 {fill:#373435}
    .fil12 {fill:#438F2D}
    .fil9 {fill:#4A4251}
    .fil7 {fill:#4A4251}
    .fil20 {fill:#4E9F5A}
    .fil13 {fill:#592D24}
    .fil11 {fill:#663300}
    .fil3 {fill:#854232}
    .fil15 {fill:#8A4B39}
    .fil16 {fill:#A4A4A2}
    .fil2 {fill:#B51E23}
    .fil14 {fill:#E2DBD1}
    .fil19 {fill:#E2DCD0}
    .fil1 {fill:#E52F3B}
    .fil4 {fill:#F6AD82}
    .fil5 {fill:#F6AD82}
    .fil0 {fill:red}
    .fil21 {fill:#FF9999}
    .fil17 {fill:#FF9999}
    .fil6 {fill:white}
   ]]>
  </style>
 </defs>
 <g id="Camada_x0020_1">
  <metadata id="CorelCorpID_0Corel-Layer"/>
  <path class="fil0" d="M22022.61 8197.91c1804.68,912.99 3042.06,2784.52 3042.06,4945.25 0,1942.78 -1000.45,3651.65 -2514.04,4640.32l-6049.81 0c-127.06,-83 -250.51,-171.05 -370.06,-263.92 -42.24,89.32 -86.82,177.3 -133.6,263.92l-9752.6 0c-422.51,-782.13 -662.46,-1677.36 -662.46,-2628.69 0,-3059.04 2479.85,-5538.89 5538.89,-5538.89 87.66,0 174.78,2.29 261.46,6.31 -257.86,-639.47 -399.97,-1338.04 -399.97,-2069.87 0,-3059.05 2479.84,-5538.89 5538.89,-5538.89 3059.05,0 5538.9,2479.84 5538.9,5538.89 0,218.42 -13.08,433.75 -37.66,645.57z"/>
  <polygon class="fil1" points="7138.66,13181 6890.7,13181 7831.55,11464.18 9363.81,9613.14 10980.87,11783.88 11801.63,13066.73 15258.39,13085.77 15582.96,14409.52 15188.56,14409.52 15204.43,16521.9 7132.31,16521.9 "/>
  <rect class="fil2" x="7657.82" y="12609.65" width="57.48" height="3780.19"/>
  <rect class="fil2" x="7337.22" y="12618.05" width="57.48" height="3780.19"/>
  <rect class="fil2" x="7978.42" y="12601.26" width="57.48" height="3780.19"/>
  <rect class="fil2" x="8299.02" y="12592.87" width="57.48" height="3780.19"/>
  <rect class="fil2" x="8619.63" y="12584.47" width="57.48" height="3780.19"/>
  <rect class="fil2" x="8940.23" y="12576.08" width="57.48" height="3780.19"/>
  <rect class="fil2" x="9260.83" y="12567.69" width="57.48" height="3780.19"/>
  <rect class="fil2" x="9581.43" y="12559.29" width="57.48" height="3780.19"/>
  <rect class="fil2" x="9902.04" y="12550.9" width="57.48" height="3780.19"/>
  <rect class="fil2" x="10222.64" y="12542.51" width="57.48" height="3780.19"/>
  <rect class="fil2" x="10543.24" y="12534.11" width="57.48" height="3780.19"/>
  <rect class="fil2" x="10863.84" y="12525.72" width="57.48" height="3780.19"/>
  <rect class="fil2" x="11184.45" y="12517.33" width="57.48" height="3780.19"/>
  <rect class="fil2" x="11505.05" y="13116.06" width="57.48" height="3194.13"/>
  <rect class="fil2" x="11825.65" y="13253.22" width="57.48" height="3050.2"/>
  <rect class="fil2" x="12146.25" y="13246.45" width="57.48" height="3050.2"/>
  <rect class="fil2" x="12466.86" y="13239.67" width="57.48" height="3050.2"/>
  <rect class="fil2" x="12787.46" y="13232.9" width="57.48" height="3050.2"/>
  <rect class="fil2" x="13108.06" y="13226.13" width="57.48" height="3050.2"/>
  <rect class="fil2" x="13428.66" y="13219.36" width="57.48" height="3050.2"/>
  <rect class="fil2" x="13749.27" y="13212.58" width="57.48" height="3050.2"/>
  <rect class="fil2" x="14069.87" y="13205.81" width="57.48" height="3050.2"/>
  <rect class="fil2" x="14390.47" y="13199.04" width="57.48" height="3050.2"/>
  <rect class="fil2" x="14711.07" y="13192.27" width="57.48" height="3050.2"/>
  <rect class="fil2" x="15031.68" y="13185.49" width="57.48" height="3050.2"/>
  <polygon class="fil3" points="7236.74,13181.49 7715.23,12274.87 7571.39,12158.93 7010.99,13181.49 "/>
  <polygon class="fil3" points="11517.13,13154.36 10981.59,12299.33 11125.44,12183.39 11742.87,13154.36 "/>
  <polygon class="fil4" points="7114.74,13183 7593.24,12276.38 7449.39,12160.44 6889,13183 "/>
  <polygon class="fil5" points="11640.92,13154.36 11105.39,12299.33 11249.23,12183.39 11866.67,13154.36 "/>
  <rect class="fil5" x="7133.86" y="15704.76" width="8070.56" height="817.14"/>
  <g id="_2414414546384">
   <rect class="fil6" x="7938.57" y="12753.32" width="784.04" height="790.39"/>
   <rect class="fil7" x="8033.8" y="12851.72" width="247.59" height="241.24"/>
   <rect class="fil7" x="8035.21" y="13197.79" width="247.59" height="241.24"/>
   <rect class="fil7" x="8384.53" y="12850.1" width="247.59" height="241.24"/>
   <rect class="fil7" x="8384.53" y="13194.54" width="247.59" height="241.24"/>
  </g>
  <path class="fil5" d="M15266.29 13078.18l-3456.76 -19.05c21.1,37.59 23.44,41.17 57.14,95.23l-167.32 0 0 1094.91 3852.03 0 -285.09 -1171.09z"/>
  <g id="_2414414545104">
   <rect class="fil6" x="10057.57" y="12762.77" width="784.04" height="790.39"/>
   <rect class="fil7" x="10152.8" y="12861.17" width="247.59" height="241.24"/>
   <rect class="fil7" x="10154.2" y="13207.24" width="247.59" height="241.24"/>
   <rect class="fil7" x="10503.52" y="12859.54" width="247.59" height="241.24"/>
   <rect class="fil7" x="10503.52" y="13203.99" width="247.59" height="241.24"/>
  </g>
  <g id="_2414414540496">
   <rect class="fil8" x="8249.68" y="14552.94" width="2485.44" height="1961.36"/>
   <rect class="fil9" x="8365.53" y="14660.86" width="1064.97" height="1764.89"/>
   <rect class="fil9" x="9551.13" y="14660.86" width="1063.37" height="1764.89"/>
   <polygon class="fil6" points="9362.45,14660.86 8896.79,15443.54 8404.73,14660.86 8365.53,14660.86 8365.53,14794.15 8836.99,15544.06 8365.53,16336.47 8365.53,16425.75 8433.57,16425.75 8899.24,15643.07 9391.3,16425.75 9430.5,16425.75 9430.5,16292.48 8959.04,15542.56 9430.5,14750.12 9430.5,14660.86 "/>
   <polygon class="fil6" points="10547.24,14660.86 10081.59,15443.54 9589.52,14660.86 9550.33,14660.86 9550.33,14794.15 10021.78,15544.06 9550.33,16336.47 9550.33,16425.75 9618.37,16425.75 10084.03,15643.07 10576.1,16425.75 10615.3,16425.75 10615.3,16292.48 10143.83,15542.56 10615.3,14750.12 10615.3,14660.86 "/>
   <path class="fil6" d="M8365.53 16336.47l0 -1542.32 0 -133.29 39.2 0 957.72 0 68.05 0 0 89.26 0 1542.36 0 133.27 -39.2 0 -957.73 0 -68.04 0 0 -89.28zm1185.6 -1.35l0 -1539.69 -0.8 -1.28 0 -133.29 0.8 0 38.39 0 957.72 0 67.26 0 0.8 0 0 89.26 -0.8 1.35 0 1539.73 0.8 1.28 0 133.27 -0.8 0 -38.4 0 -957.73 0 -67.24 0 -0.8 0 0 -89.28 0.8 -1.35zm1183.99 -1782.17l-2485.44 0 0 1961.35 2485.44 0 0 -1961.35z"/>
  </g>
  <g id="_2414414537456">
   <rect class="fil6" x="9011.69" y="11968.95" width="784.04" height="790.39"/>
   <rect class="fil7" x="9106.92" y="12067.35" width="247.59" height="241.24"/>
   <rect class="fil7" x="9108.32" y="12413.42" width="247.59" height="241.24"/>
   <rect class="fil7" x="9457.64" y="12065.73" width="247.59" height="241.24"/>
   <rect class="fil7" x="9457.64" y="12410.17" width="247.59" height="241.24"/>
  </g>
  <polygon class="fil3" points="11698.53,14409.94 15590.86,14401.93 15551.38,14249.27 11699.35,14249.27 "/>
  <path class="fil10" d="M11930.39 10296.1c415.14,206.58 704.38,669.77 704.38,1208.08 0,730.67 -532.85,1322.99 -1190.15,1322.99 -419.77,0 -788.74,-241.59 -1000.63,-606.49 -229.86,273.04 -559.05,444.11 -924.72,444.11 -250.12,0 -483.17,-80.01 -679.06,-217.95 -195.16,130.7 -431.94,207.33 -687.23,207.33 -667.91,0 -1209.36,-524.05 -1209.36,-1170.5 0,-478.08 296.17,-889.15 720.59,-1070.88 -87.33,-160.02 -136.53,-340.41 -136.53,-531.32 0,-659.17 585.52,-1193.52 1307.79,-1193.52l2.6 0.03c-10.01,-70 -15.29,-142.14 -15.29,-215.88 0,-652.14 409.29,-1180.82 914.18,-1180.82 469.17,0 855.71,456.55 908.08,1044.44 26.26,-2.1 52.72,-3.28 79.4,-3.28 687.21,0 1244.31,704.89 1244.31,1574.42 0,134.35 -13.34,264.75 -38.36,389.24z"/>
  <path class="fil10" d="M23679.15 16823.13l-17847.73 0.17c104.81,343.67 194.56,673.39 354.35,986.26 5709.97,0 10789.49,0 16402.24,0 402.89,-278.35 769.62,-610.36 1091.14,-986.43z"/>
  <g id="_2414414534160">
   <rect class="fil11" x="17944.89" y="14965.04" width="272.98" height="1555.38"/>
   <rect class="fil11" x="17027.54" y="14968.2" width="272.98" height="1555.38"/>
   <rect class="fil11" x="16110.18" y="14971.36" width="272.98" height="1555.38"/>
   <rect class="fil11" x="15192.83" y="14974.52" width="272.98" height="1555.38"/>
   <rect class="fil11" x="15241.26" y="15174.53" width="3605.13" height="266.63"/>
   <rect class="fil11" x="15241.26" y="15942.7" width="3605.13" height="266.63"/>
  </g>
  <g id="_2414413945696">
   <polygon class="fil1" points="21035.01,11070.22 20302.12,11367.9 19569.22,11665.55 19265.65,12384.19 18962.06,13102.81 18962.12,13102.95 18876.74,13103.78 18813.25,13104.4 18813.25,16529.04 23312.22,16529.04 23312.22,13101.89 23193.33,13101.89 23107.6,13101.89 22804.4,12384.19 22500.83,11665.55 21767.92,11367.9 "/>
   <rect class="fil2" x="18814.17" y="12715.02" width="91.33" height="3814.01"/>
   <rect class="fil2" x="19323.59" y="11427.04" width="91.33" height="5101.99"/>
   <rect class="fil2" x="19833.01" y="11266.7" width="91.33" height="5262.33"/>
   <rect class="fil2" x="20342.43" y="11063.93" width="91.33" height="5459.49"/>
   <rect class="fil2" x="20851.85" y="10940.51" width="91.33" height="5582.91"/>
   <rect class="fil2" x="21361.27" y="10928.04" width="91.33" height="5595.38"/>
   <rect class="fil2" x="21870.69" y="11158.27" width="91.33" height="5373.19"/>
   <rect class="fil2" x="22380.11" y="11361.04" width="91.33" height="5157.95"/>
   <rect class="fil2" x="22889.53" y="11964.66" width="91.33" height="4541.87"/>
   <g>
    <rect class="fil6" x="19218.1" y="12969.63" width="940.72" height="948.34"/>
    <rect class="fil7" x="19332.36" y="13087.69" width="297.07" height="289.45"/>
    <rect class="fil7" x="19334.04" y="13502.91" width="297.07" height="289.45"/>
    <rect class="fil7" x="19753.16" y="13085.74" width="297.07" height="289.45"/>
    <rect class="fil7" x="19753.16" y="13499.02" width="297.07" height="289.45"/>
   </g>
   <g>
    <rect class="fil6" x="21916.35" y="12969.63" width="940.72" height="948.34"/>
    <rect class="fil7" x="22030.61" y="13087.69" width="297.07" height="289.45"/>
    <rect class="fil7" x="22032.3" y="13502.91" width="297.07" height="289.45"/>
    <rect class="fil7" x="22451.42" y="13085.74" width="297.07" height="289.45"/>
    <rect class="fil7" x="22451.42" y="13499.02" width="297.07" height="289.45"/>
   </g>
   <polygon class="fil3" points="19508.6,11606.11 19192.48,12354.46 18876.33,13102.81 18876.74,13103.78 18962.12,13102.95 18962.06,13102.81 19265.65,12384.19 19569.22,11665.55 20302.12,11367.9 21035.01,11070.22 21767.92,11367.9 22500.83,11665.55 22804.4,12384.19 23107.6,13101.89 23193.33,13101.89 22877.57,12354.46 22561.45,11606.11 21798.23,11296.15 21035.01,10986.16 20271.81,11296.15 "/>
   <rect class="fil5" x="18813.24" y="15369.31" width="4499.71" height="1154.12"/>
   <g>
    <rect class="fil6" x="20567.22" y="11789.67" width="940.72" height="948.34"/>
    <rect class="fil7" x="20681.49" y="11907.73" width="297.07" height="289.45"/>
    <rect class="fil7" x="20683.17" y="12322.96" width="297.07" height="289.45"/>
    <rect class="fil7" x="21102.29" y="11905.78" width="297.07" height="289.45"/>
    <rect class="fil7" x="21102.29" y="12319.06" width="297.07" height="289.45"/>
   </g>
   <g>
    <rect class="fil8" x="20032.58" y="14853.34" width="2116.33" height="1670.07"/>
    <rect class="fil9" x="20131.22" y="14945.24" width="906.81" height="1502.78"/>
    <rect class="fil9" x="21140.75" y="14945.24" width="905.44" height="1502.78"/>
    <polygon class="fil6" points="20980.09,14945.24 20583.58,15611.68 20164.6,14945.24 20131.22,14945.24 20131.22,15058.73 20532.66,15697.26 20131.22,16372 20131.22,16448.02 20189.16,16448.02 20585.67,15781.57 21004.66,16448.02 21038.04,16448.02 21038.04,16334.54 20636.59,15695.99 21038.04,15021.24 21038.04,14945.24 "/>
    <polygon class="fil6" points="21988.93,14945.24 21592.43,15611.68 21173.44,14945.24 21140.06,14945.24 21140.06,15058.73 21541.5,15697.26 21140.06,16372 21140.06,16448.02 21198,16448.02 21594.51,15781.57 22013.5,16448.02 22046.88,16448.02 22046.88,16334.54 21645.43,15695.99 22046.88,15021.24 22046.88,14945.24 "/>
    <path class="fil6" d="M20131.22 16372l0 -1313.27 0 -113.49 33.38 0 815.49 0 57.95 0 0 76 0 1313.3 0 113.48 -33.38 0 -815.5 0 -57.94 0 0 -76.02zm1009.53 -1.15l0 -1311.03 -0.69 -1.09 0 -113.49 0.69 0 32.69 0 815.49 0 57.26 0 0.69 0 0 76 -0.69 1.15 0 1311.06 0.69 1.09 0 113.48 -0.69 0 -32.69 0 -815.5 0 -57.25 0 -0.69 0 0 -76.02 0.69 -1.15zm1008.16 -1517.5l-2116.33 0 0 1670.07 2116.33 0 0 -1670.07z"/>
   </g>
   <polygon class="fil5" points="19192.48,12354.46 19508.6,11606.11 20271.81,11296.15 21035.01,10986.16 21798.23,11296.15 22561.45,11606.11 22877.57,12354.46 23193.33,13101.89 23448.05,13101.89 23094.99,12266.16 22741.57,11429.5 21888.29,11082.97 21035.01,10736.4 20181.75,11082.97 19328.48,11429.5 18975.05,12266.16 18621.61,13102.81 18623.06,13106.24 18876.74,13103.78 18876.33,13102.81 "/>
  </g>
  <path class="fil12" d="M5849.42 16882.59l17778.19 0c87.65,-100.12 214.33,-238.51 289.05,-363.08l-18165.22 -0.62c24.22,122.54 61.4,248.56 97.98,363.7z"/>
  <ellipse class="fil12" cx="9987.04" cy="17372.72" rx="1282.4" ry="316.62"/>
  <path class="fil13" d="M9604.69 12270.62l78.73 -48.62 410.72 441.22 24.76 -1724.2 133.32 2.78 -53.94 1712.91 505.97 -450.34 82.25 23.27 -563.86 535.13c0,1593.48 -58.82,3751.53 213.72,4553.79l-609.45 12.7c301.94,-1136.37 314.65,-3024.1 267.23,-4548.86l-489.45 -509.78z"/>
  <path class="fil14" d="M8750.79 7090.75l2412.25 0c-188.33,-140.84 -551.26,-247.55 -987.92,-210.81 -103.53,8.7 -214.31,16.66 -280.51,-48.21 -407.61,-399.44 -929.78,-189.94 -1143.82,259.02z"/>
  <path class="fil14" d="M13930.97 5587.59l3050.95 9.7c85.96,0.26 -267.86,-247.46 -619.03,-186.7 -105.95,18.34 -238.27,74.57 -295.21,-16.28 -533.71,-851.51 -901.96,-403.53 -1402.97,-78.19 -82.48,53.56 -164.16,119.23 -248.2,100.81 -276.3,-60.54 -642.26,170.16 -485.54,170.66z"/>
  <path class="fil14" d="M20788.45 7798.47l-1123.66 0c81.56,-42.53 131.31,-68.66 329.54,-67.22 58.51,0.4 112.2,-56.96 149.49,-93.49 229.69,-225.1 568.21,-77.58 644.63,160.71z"/>
  <ellipse class="fil12" cx="14146.31" cy="17237.52" rx="1543.55" ry="316.62"/>
  <path class="fil15" d="M13208.28 16239.13c43.87,315.09 -143.84,307.17 -142.3,583.32 -54.4,-243.97 -80.53,-350.55 142.3,-583.32z"/>
  <polygon class="fil16" points="14075.51,17192.81 13869.66,17192.81 13865.02,17184.38 13847.67,17184.38 13849,17092.66 13544.9,16498.54 14079.51,16011.43 14345.8,16429.57 13814.19,16617.56 "/>
  <path class="fil15" d="M16028.34 15001.54l-48.54 -57.87c96.93,-101.99 200.94,-169.59 290.99,-152.56 0.85,145.27 -97.67,226.03 -242.45,210.43z"/>
  <path class="fil17" d="M14073.78 16305.15c-67.21,-38.37 -49.46,-177.58 -257.93,-100.3 -29.69,57.85 -61.8,106.43 -95.45,152.75 -33.65,46.33 -85.33,79.72 -121.2,128.57l110.13 34.57c173.76,29.83 306.37,-22.44 362.66,-165.8 4.98,-12.69 12.72,-43.54 1.79,-49.79z"/>
  <path class="fil17" d="M13973.53 16565.66c-22.33,0 -40.69,-26.8 -42.86,-61.14 28.6,-12.03 54.15,-28.59 76.22,-49.77 5.73,11.05 9.29,25.01 9.67,40.26 -0.56,0.72 -0.86,1.81 -0.86,3.29 0,4.07 0.07,8.23 0.11,12.39 -3.85,31.32 -21.32,54.97 -42.28,54.97z"/>
  <path class="fil17" d="M13883.62 16535.77c0,28.65 -13.97,51.88 -31.22,51.88 -17.24,0 -31.22,-23.23 -31.22,-51.88 0,-2.56 0.12,-5.08 0.33,-7.55 21.19,-1.12 41.43,-3.86 60.64,-8.23 0.96,4.98 1.47,10.28 1.47,15.78z"/>
  <path class="fil17" d="M13763.28 16543.53c0,26.37 -13.77,47.75 -30.75,47.75 -16.99,0 -30.77,-21.38 -30.77,-47.75 0,-8.62 1.47,-16.71 4.05,-23.69l3.52 0.9c17.83,3.06 35.21,5.26 52.13,6.58 1.18,5.06 1.82,10.52 1.82,16.21z"/>
  <path class="fil18" d="M15994.93 14954.57c-31.92,37.51 -78.48,4.96 -61.36,-37.45 3.28,-8.12 25.54,-35.28 43.08,-67.75 23.83,-44.09 44.28,-95.11 46.13,-94.64 16.76,4.23 8.27,157.37 -27.85,199.84z"/>
  <path class="fil16" d="M14957.81 17183.69l-165.83 0 -2.28 -26.3 -43.46 3.43c196.33,-189.47 72.78,-489.82 111.29,-736.46l246.67 78.86c-16.77,222.25 -191.37,373.59 -146.39,680.47z"/>
  <path class="fil19" d="M16373.31 15554.11c57.95,-20.67 106,-142.46 54.25,-171.24 -221.22,-123.01 -249.42,-158.23 -376.18,-375.99 -114.95,-189.21 -176.69,-150.84 -377.41,-105.21 -57.68,-67.83 -135.2,-104.48 -235.58,-105.21 -0.56,85.46 39.65,147.86 106.19,198.25 -78.9,89.92 -198.85,131.93 -323.49,137.97 -110.53,-42.31 -215.41,-7.42 -329.85,36.74 -485.68,187.45 -669.82,149.58 -999.02,76.92 -148.84,-32.86 -289.65,-24.48 -358,87.62 -389.11,10.83 -231.91,700.58 -369.42,974.36 135.3,-59.34 39.68,-694.93 296.12,-860.95 -61.62,377.14 84.26,589.06 -17.75,794.02 -71.1,142.85 -132.04,194.56 -160.57,272.78 -58.02,159.07 109.12,476.27 -43.46,693.05l229.87 -8.01c-11.8,-310.69 44.8,-481.96 51.21,-578.81 2.4,-36.34 29.62,-71.31 52.05,-97.23 76.6,-88.5 211.72,-198.1 305.02,-292.62 113.56,-19 163.42,85.38 236.67,119.83 354.45,166.71 613.02,73.64 700.55,102.61 105.61,34.95 193.84,105.78 300.77,114.36 6.67,155.34 49.64,245.1 79.19,389.01 -3.65,73.82 -34.87,151.95 -59.86,222.72l210.43 0c-60.64,-189.54 -2.21,-366.91 -5.54,-549.31 -1.96,-106.88 10.19,-107.51 86.02,-195.01 77.53,-89.47 89.39,-237.07 121.49,-416.93 32.09,-179.86 44.5,-405.92 235.4,-491.29 15.01,-6.72 36.11,-14.5 60.33,4.88 29.51,23.59 220.24,-17.7 317.26,22.09 57.2,23.47 179.79,141.43 211.68,8.04 0.26,-5.45 -11.28,-5.61 -10.74,-8.2 0.19,-0.88 12.19,1.67 12.37,0.76z"/>
  <path class="fil19" d="M13445.29 15661.08c3.67,250.57 78.85,417.64 -2.12,580.31l-1.34 2.68c79.06,40.85 50.71,-102.89 124.34,-155.76 24.38,-17.51 88.17,-35.54 90.35,-86.92 4.22,-99.4 -31.08,-55.33 -37.94,-137.05 -3.28,-39.11 33.62,-111.44 12,-146.93 -36.99,-60.73 -46.61,-60.05 -150.5,-60.05 -14.62,0 -25.98,1.05 -34.79,3.72z"/>
  <path class="fil19" d="M13445.29 15661.08c3.67,250.57 78.85,417.64 -2.12,580.31l-1.34 2.68c79.06,40.85 50.71,-102.89 124.34,-155.76 24.38,-17.51 88.17,-35.54 90.35,-86.92 4.22,-99.4 -31.08,-55.33 -37.94,-137.05 -3.28,-39.11 33.62,-111.44 12,-146.93 -36.99,-60.73 -46.61,-60.05 -150.5,-60.05 -14.62,0 -25.98,1.05 -34.79,3.72z"/>
  <path class="fil15" d="M15746.49 14887.26c-23.34,5.54 -44.17,7.96 -72.51,14.41 -57.7,-67.83 -135.21,-104.48 -235.6,-105.22 -0.55,85.47 34.91,151.74 101.45,202.13 -78.9,89.92 -194.1,128.06 -318.74,134.1 -107.61,-41.17 -214.84,-10.45 -319.88,33.7 -3.12,29.64 -4.24,70.54 -4.24,130.55 0,64.8 19.02,108.16 33.16,140.53 12.65,28.96 15.7,97.74 1.15,114.9 -49.26,58.08 -56.94,117.73 -42.64,157.6 10.27,28.62 20.6,80.88 6.01,123.74 -45.37,133.25 -14.08,215.05 45.42,216.18 88.57,1.68 123.13,66.37 123.06,97.99 -0.14,61.84 94.45,60.67 112.9,29.5 48.38,-81.72 -9.73,-122 70.18,-141.32 22.89,-5.54 71.99,-2.88 115.08,24.09 60.85,38.08 216.99,-67.2 152.07,-149.79 -20.36,-25.9 13.46,-90.08 -47.56,-158.13 -13.64,-15.21 -11.96,-62.84 -4,-83.48 27.08,-70.35 127.46,-165.25 189.23,-174.71 134.33,-20.58 133.5,-24.67 153.64,-139.49 8.28,-47.28 72.01,-43.6 93.4,-32.75 37.05,18.8 65.55,57.82 80.93,91.86 16.28,36.03 71.7,51.89 81.19,6.87 3.41,-16.17 -13.59,-56.57 12.39,-67.76 22.63,-9.73 82.2,-11.85 60.1,-99.58 -3.83,-15.21 -66.49,-107.51 -193.72,-159.26 -37.59,-15.29 -75.3,-58.71 -90.18,-95.1 -48.01,-117.41 -98.06,-110.8 -102.29,-111.56z"/>
  <path class="fil15" d="M13444.92 15676.89c7.82,236.95 76.17,407.3 -1.75,564.5 1.72,10.41 1.87,9.91 6.3,12.36 82.3,45.38 52.51,-100.94 126.94,-154.39 24.38,-17.51 88.17,-35.53 90.35,-86.92 4.23,-99.4 -31.07,-55.32 -37.94,-137.05 -3.28,-39.11 33.62,-111.44 12,-146.93 -36.99,-60.73 -46.61,-60.05 -150.5,-60.05 -22.84,0 -35.79,1.22 -45.4,8.48z"/>
  <path class="fil15" d="M15320.42 16920.08c6.17,-95.83 23.91,-189.81 22.07,-290.31 -1.54,-84.05 5.65,-102.4 45.66,-148.95 0.11,-0.18 0.22,-0.31 0.33,-0.39l0.01 0c3.57,-4.16 7.4,-8.53 11.52,-13.2 5.47,-12.26 -0.28,-25.22 -19.45,-23.77 -13.15,0.99 -14.61,-13.75 -41.17,18.87 -16.77,20.59 -52.82,3.07 -41.37,98.35 8.13,67.62 -98.44,129.85 -34.31,211.58 8.57,10.91 8.64,143.46 56.71,147.82z"/>
  <path class="fil15" d="M14501.96 15502.78c56.41,-46.9 196.99,-72.08 117.83,114.4 -24.73,58.25 22.72,113.89 42.19,146.46 39.31,65.78 100.05,112.24 1.87,217.06 -23.73,25.33 -47.52,76.94 -55.83,107.51 -11.27,41.43 -15.51,94.64 -118.08,99.62 -36.24,1.76 -87.6,-8.17 -150.77,-11.05 -311.77,-14.25 -92.88,32.89 -222.59,-87.35 -109.09,-101.13 -19.37,-355.89 -15.29,-477.58 0.03,-0.8 86.69,-152.33 110.97,-165.86 80.98,-45.16 238.4,99.44 289.7,56.79zm-73.16 118.75c-43.07,0 -77.98,34.91 -77.98,77.97 0,43.07 34.91,77.98 77.98,77.98 43.06,0 77.97,-34.91 77.97,-77.98 0,-43.06 -34.91,-77.97 -77.97,-77.97z"/>
  <g>
   <polygon class="fil8 str0" points="15493.89,17298 15214.85,17298 15214.85,17195.07 15378.39,17195.07 "/>
   <polygon id="1" class="fil18" points="15493.89,17298 15214.85,17298 15214.85,17195.07 15378.39,17195.07 "/>
  </g>
  <polygon class="fil18" points="14200.59,17320.28 13921.55,17320.28 13865.51,17207.06 14073.65,17207.64 "/>
  <polygon class="fil18" points="13605.92,17339.87 13326.88,17339.87 13270.84,17226.65 13478.98,17227.22 "/>
  <g>
   <polygon class="fil8 str1" points="15088.58,17298 14809.54,17298 14809.54,17195.07 14973.08,17195.07 "/>
   <polygon id="1" class="fil18" points="15088.58,17298 14809.54,17298 14809.54,17195.07 14973.08,17195.07 "/>
  </g>
  <path class="fil20" d="M16160.28 16937.11l-156.68 116.65c-11.94,-143.03 -52.86,-211.53 -107.5,-244.74 19.82,163.16 39.64,326.32 59.46,489.48 40.41,0 79.68,0 120.09,0 6.66,-157.4 35.26,-277.2 84.63,-361.39z"/>
  <path class="fil18" d="M15844.95 14984.08c-31.91,37.52 -78.47,4.97 -61.35,-37.44 3.28,-8.13 25.54,-35.28 43.08,-67.75 23.82,-44.1 44.28,-95.11 46.12,-94.65 16.77,4.24 8.28,157.37 -27.85,199.84z"/>
  <path class="fil21" d="M16312 15310.69c33.37,21.69 73.1,44.76 122.42,72.18 49.57,27.56 9.49,146.12 -54.25,171.24 -70.69,-0.43 -126.11,-67.44 -126.11,-126.03 0,-58.58 26.26,-93.14 57.94,-117.39z"/>
  <g>
   <path class="fil8 str2" d="M16371.99 15560.99c-69.72,-15.04 -110.45,-54.32 -120.85,-113.92"/>
  </g>
  <g>
   <path class="fil8 str3" d="M16006.03 15203.39c-4.08,45.45 -84.74,60.2 -104.29,12.49"/>
  </g>
  <g>
   <path class="fil8 str4" d="M16397.87 15417.52c-5.4,-7.65 -14.18,-12.2 -23.55,-12.2 -15.91,0 -28.82,12.9 -28.82,28.82 0,15.92 12.91,28.82 28.82,28.82 6.15,0 12.15,-1.97 17.1,-5.62"/>
  </g>
  <path class="fil20" d="M19721.9 16343.89l-156.68 116.65c-11.94,-143.03 -52.86,-211.53 -107.5,-244.74 19.82,163.16 39.64,326.32 59.46,489.48 40.41,0 79.68,0 120.09,0 6.66,-157.4 35.26,-277.2 84.63,-361.39z"/>
  <path class="fil20" d="M20922.35 17191.1l-156.68 116.65c-11.94,-143.03 -52.86,-211.53 -107.5,-244.74 19.82,163.16 39.64,326.32 59.46,489.48 40.41,0 79.68,0 120.09,0 6.66,-157.4 35.26,-277.2 84.63,-361.39z"/>
  <path class="fil20" d="M11905.36 16764.91l-156.68 116.65c-11.94,-143.03 -52.86,-211.53 -107.5,-244.74 19.82,163.16 39.64,326.32 59.46,489.48 40.41,0 79.68,0 120.09,0 6.66,-157.4 35.26,-277.2 84.63,-361.39z"/>
  <path class="fil20" d="M7715.3 16389.85l-156.68 116.65c-11.94,-143.03 -52.86,-211.53 -107.5,-244.74 19.82,163.16 39.64,326.32 59.46,489.48 40.41,0 79.68,0 120.09,0 6.66,-157.4 35.26,-277.2 84.63,-361.39z"/>
  <path class="fil20" d="M8424.25 17005.78l-156.68 116.65c-11.94,-143.03 -52.86,-211.53 -107.5,-244.74 19.82,163.16 39.64,326.32 59.46,489.48 40.41,0 79.68,0 120.09,0 6.66,-157.4 35.26,-277.2 84.63,-361.39z"/>
 </g>
</svg>
